%TF.GenerationSoftware,KiCad,Pcbnew,7.0.9*%
%TF.CreationDate,2023-12-23T19:40:19-06:00*%
%TF.ProjectId,picow_eeprom,7069636f-775f-4656-9570-726f6d2e6b69,rev?*%
%TF.SameCoordinates,Original*%
%TF.FileFunction,Soldermask,Bot*%
%TF.FilePolarity,Negative*%
%FSLAX46Y46*%
G04 Gerber Fmt 4.6, Leading zero omitted, Abs format (unit mm)*
G04 Created by KiCad (PCBNEW 7.0.9) date 2023-12-23 19:40:19*
%MOMM*%
%LPD*%
G01*
G04 APERTURE LIST*
%ADD10O,1.700000X1.700000*%
%ADD11R,1.700000X1.700000*%
%ADD12O,1.500000X1.500000*%
%ADD13O,1.800000X1.800000*%
G04 APERTURE END LIST*
D10*
%TO.C,U1*%
X45495000Y-69395000D03*
D11*
X42955000Y-69395000D03*
D10*
X40415000Y-69395000D03*
X51845000Y-21365000D03*
X51845000Y-23905000D03*
D11*
X51845000Y-26445000D03*
D10*
X51845000Y-28985000D03*
X51845000Y-31525000D03*
X51845000Y-34065000D03*
X51845000Y-36605000D03*
D11*
X51845000Y-39145000D03*
D10*
X51845000Y-41685000D03*
X51845000Y-44225000D03*
X51845000Y-46765000D03*
X51845000Y-49305000D03*
D11*
X51845000Y-51845000D03*
D10*
X51845000Y-54385000D03*
X51845000Y-56925000D03*
X51845000Y-59465000D03*
X51845000Y-62005000D03*
D11*
X51845000Y-64545000D03*
D10*
X51845000Y-67085000D03*
X51845000Y-69625000D03*
X34065000Y-69625000D03*
X34065000Y-67085000D03*
D11*
X34065000Y-64545000D03*
D10*
X34065000Y-62005000D03*
X34065000Y-59465000D03*
X34065000Y-56925000D03*
X34065000Y-54385000D03*
D11*
X34065000Y-51845000D03*
D10*
X34065000Y-49305000D03*
X34065000Y-46765000D03*
X34065000Y-44225000D03*
X34065000Y-41685000D03*
D11*
X34065000Y-39145000D03*
D10*
X34065000Y-36605000D03*
X34065000Y-34065000D03*
X34065000Y-31525000D03*
X34065000Y-28985000D03*
D11*
X34065000Y-26445000D03*
D10*
X34065000Y-23905000D03*
X34065000Y-21365000D03*
D12*
X45380000Y-24525000D03*
X40530000Y-24525000D03*
D13*
X40230000Y-21495000D03*
X45680000Y-21495000D03*
%TD*%
M02*
