%TF.GenerationSoftware,KiCad,Pcbnew,7.0.9*%
%TF.CreationDate,2023-12-23T19:40:19-06:00*%
%TF.ProjectId,picow_eeprom,7069636f-775f-4656-9570-726f6d2e6b69,rev?*%
%TF.SameCoordinates,Original*%
%TF.FileFunction,Soldermask,Top*%
%TF.FilePolarity,Negative*%
%FSLAX46Y46*%
G04 Gerber Fmt 4.6, Leading zero omitted, Abs format (unit mm)*
G04 Created by KiCad (PCBNEW 7.0.9) date 2023-12-23 19:40:19*
%MOMM*%
%LPD*%
G01*
G04 APERTURE LIST*
G04 Aperture macros list*
%AMRoundRect*
0 Rectangle with rounded corners*
0 $1 Rounding radius*
0 $2 $3 $4 $5 $6 $7 $8 $9 X,Y pos of 4 corners*
0 Add a 4 corners polygon primitive as box body*
4,1,4,$2,$3,$4,$5,$6,$7,$8,$9,$2,$3,0*
0 Add four circle primitives for the rounded corners*
1,1,$1+$1,$2,$3*
1,1,$1+$1,$4,$5*
1,1,$1+$1,$6,$7*
1,1,$1+$1,$8,$9*
0 Add four rect primitives between the rounded corners*
20,1,$1+$1,$2,$3,$4,$5,0*
20,1,$1+$1,$4,$5,$6,$7,0*
20,1,$1+$1,$6,$7,$8,$9,0*
20,1,$1+$1,$8,$9,$2,$3,0*%
G04 Aperture macros list end*
%ADD10RoundRect,0.150000X-0.825000X-0.150000X0.825000X-0.150000X0.825000X0.150000X-0.825000X0.150000X0*%
%ADD11R,1.700000X3.500000*%
%ADD12O,1.700000X1.700000*%
%ADD13R,1.700000X1.700000*%
%ADD14R,3.500000X1.700000*%
%ADD15O,1.500000X1.500000*%
%ADD16O,1.800000X1.800000*%
G04 APERTURE END LIST*
D10*
%TO.C,U2*%
X39210000Y-77880000D03*
X39210000Y-79150000D03*
X39210000Y-80420000D03*
X39210000Y-81690000D03*
X44160000Y-81690000D03*
X44160000Y-80420000D03*
X44160000Y-79150000D03*
X44160000Y-77880000D03*
%TD*%
D11*
%TO.C,U1*%
X45495000Y-70295000D03*
D12*
X45495000Y-69395000D03*
D11*
X42955000Y-70295000D03*
D13*
X42955000Y-69395000D03*
D12*
X40415000Y-69395000D03*
D11*
X40415000Y-70295000D03*
D14*
X52745000Y-21365000D03*
D12*
X51845000Y-21365000D03*
X51845000Y-23905000D03*
D14*
X52745000Y-23905000D03*
D13*
X51845000Y-26445000D03*
D14*
X52745000Y-26445000D03*
D12*
X51845000Y-28985000D03*
D14*
X52745000Y-28985000D03*
X52745000Y-31525000D03*
D12*
X51845000Y-31525000D03*
X51845000Y-34065000D03*
D14*
X52745000Y-34065000D03*
D12*
X51845000Y-36605000D03*
D14*
X52745000Y-36605000D03*
D13*
X51845000Y-39145000D03*
D14*
X52745000Y-39145000D03*
X52745000Y-41685000D03*
D12*
X51845000Y-41685000D03*
D14*
X52745000Y-44225000D03*
D12*
X51845000Y-44225000D03*
X51845000Y-46765000D03*
D14*
X52745000Y-46765000D03*
X52745000Y-49305000D03*
D12*
X51845000Y-49305000D03*
D14*
X52745000Y-51845000D03*
D13*
X51845000Y-51845000D03*
D14*
X52745000Y-54385000D03*
D12*
X51845000Y-54385000D03*
X51845000Y-56925000D03*
D14*
X52745000Y-56925000D03*
D12*
X51845000Y-59465000D03*
D14*
X52745000Y-59465000D03*
X52745000Y-62005000D03*
D12*
X51845000Y-62005000D03*
D13*
X51845000Y-64545000D03*
D14*
X52745000Y-64545000D03*
D12*
X51845000Y-67085000D03*
D14*
X52745000Y-67085000D03*
D12*
X51845000Y-69625000D03*
D14*
X52745000Y-69625000D03*
D12*
X34065000Y-69625000D03*
D14*
X33165000Y-69625000D03*
X33165000Y-67085000D03*
D12*
X34065000Y-67085000D03*
D13*
X34065000Y-64545000D03*
D14*
X33165000Y-64545000D03*
D12*
X34065000Y-62005000D03*
D14*
X33165000Y-62005000D03*
D12*
X34065000Y-59465000D03*
D14*
X33165000Y-59465000D03*
X33165000Y-56925000D03*
D12*
X34065000Y-56925000D03*
X34065000Y-54385000D03*
D14*
X33165000Y-54385000D03*
X33165000Y-51845000D03*
D13*
X34065000Y-51845000D03*
D14*
X33165000Y-49305000D03*
D12*
X34065000Y-49305000D03*
X34065000Y-46765000D03*
D14*
X33165000Y-46765000D03*
X33165000Y-44225000D03*
D12*
X34065000Y-44225000D03*
X34065000Y-41685000D03*
D14*
X33165000Y-41685000D03*
X33165000Y-39145000D03*
D13*
X34065000Y-39145000D03*
D12*
X34065000Y-36605000D03*
D14*
X33165000Y-36605000D03*
X33165000Y-34065000D03*
D12*
X34065000Y-34065000D03*
D14*
X33165000Y-31525000D03*
D12*
X34065000Y-31525000D03*
D14*
X33165000Y-28985000D03*
D12*
X34065000Y-28985000D03*
D13*
X34065000Y-26445000D03*
D14*
X33165000Y-26445000D03*
X33165000Y-23905000D03*
D12*
X34065000Y-23905000D03*
D14*
X33165000Y-21365000D03*
D12*
X34065000Y-21365000D03*
D15*
X45380000Y-24525000D03*
X40530000Y-24525000D03*
D16*
X40230000Y-21495000D03*
X45680000Y-21495000D03*
%TD*%
M02*
