%TF.GenerationSoftware,KiCad,Pcbnew,7.0.9*%
%TF.CreationDate,2023-12-23T19:40:19-06:00*%
%TF.ProjectId,picow_eeprom,7069636f-775f-4656-9570-726f6d2e6b69,rev?*%
%TF.SameCoordinates,Original*%
%TF.FileFunction,Legend,Top*%
%TF.FilePolarity,Positive*%
%FSLAX46Y46*%
G04 Gerber Fmt 4.6, Leading zero omitted, Abs format (unit mm)*
G04 Created by KiCad (PCBNEW 7.0.9) date 2023-12-23 19:40:19*
%MOMM*%
%LPD*%
G01*
G04 APERTURE LIST*
%ADD10C,0.150000*%
%ADD11C,0.120000*%
G04 APERTURE END LIST*
D10*
X40923095Y-75839819D02*
X40923095Y-76649342D01*
X40923095Y-76649342D02*
X40970714Y-76744580D01*
X40970714Y-76744580D02*
X41018333Y-76792200D01*
X41018333Y-76792200D02*
X41113571Y-76839819D01*
X41113571Y-76839819D02*
X41304047Y-76839819D01*
X41304047Y-76839819D02*
X41399285Y-76792200D01*
X41399285Y-76792200D02*
X41446904Y-76744580D01*
X41446904Y-76744580D02*
X41494523Y-76649342D01*
X41494523Y-76649342D02*
X41494523Y-75839819D01*
X41923095Y-75935057D02*
X41970714Y-75887438D01*
X41970714Y-75887438D02*
X42065952Y-75839819D01*
X42065952Y-75839819D02*
X42304047Y-75839819D01*
X42304047Y-75839819D02*
X42399285Y-75887438D01*
X42399285Y-75887438D02*
X42446904Y-75935057D01*
X42446904Y-75935057D02*
X42494523Y-76030295D01*
X42494523Y-76030295D02*
X42494523Y-76125533D01*
X42494523Y-76125533D02*
X42446904Y-76268390D01*
X42446904Y-76268390D02*
X41875476Y-76839819D01*
X41875476Y-76839819D02*
X42494523Y-76839819D01*
X42193095Y-44949819D02*
X42193095Y-45759342D01*
X42193095Y-45759342D02*
X42240714Y-45854580D01*
X42240714Y-45854580D02*
X42288333Y-45902200D01*
X42288333Y-45902200D02*
X42383571Y-45949819D01*
X42383571Y-45949819D02*
X42574047Y-45949819D01*
X42574047Y-45949819D02*
X42669285Y-45902200D01*
X42669285Y-45902200D02*
X42716904Y-45854580D01*
X42716904Y-45854580D02*
X42764523Y-45759342D01*
X42764523Y-45759342D02*
X42764523Y-44949819D01*
X43764523Y-45949819D02*
X43193095Y-45949819D01*
X43478809Y-45949819D02*
X43478809Y-44949819D01*
X43478809Y-44949819D02*
X43383571Y-45092676D01*
X43383571Y-45092676D02*
X43288333Y-45187914D01*
X43288333Y-45187914D02*
X43193095Y-45235533D01*
X55052998Y-42085868D02*
X54972185Y-42112805D01*
X54972185Y-42112805D02*
X54891373Y-42193618D01*
X54891373Y-42193618D02*
X54837498Y-42301367D01*
X54837498Y-42301367D02*
X54837498Y-42409117D01*
X54837498Y-42409117D02*
X54864436Y-42489929D01*
X54864436Y-42489929D02*
X54945248Y-42624616D01*
X54945248Y-42624616D02*
X55026060Y-42705428D01*
X55026060Y-42705428D02*
X55160747Y-42786241D01*
X55160747Y-42786241D02*
X55241560Y-42813178D01*
X55241560Y-42813178D02*
X55349309Y-42813178D01*
X55349309Y-42813178D02*
X55457059Y-42759303D01*
X55457059Y-42759303D02*
X55510934Y-42705428D01*
X55510934Y-42705428D02*
X55564808Y-42597679D01*
X55564808Y-42597679D02*
X55564808Y-42543804D01*
X55564808Y-42543804D02*
X55376247Y-42355242D01*
X55376247Y-42355242D02*
X55268497Y-42462992D01*
X55861120Y-42355242D02*
X55295434Y-41789557D01*
X55295434Y-41789557D02*
X55510934Y-41574057D01*
X55510934Y-41574057D02*
X55591746Y-41547120D01*
X55591746Y-41547120D02*
X55645621Y-41547120D01*
X55645621Y-41547120D02*
X55726433Y-41574057D01*
X55726433Y-41574057D02*
X55807245Y-41654870D01*
X55807245Y-41654870D02*
X55834182Y-41735682D01*
X55834182Y-41735682D02*
X55834182Y-41789557D01*
X55834182Y-41789557D02*
X55807245Y-41870369D01*
X55807245Y-41870369D02*
X55591746Y-42085868D01*
X55888057Y-41304683D02*
X55888057Y-41250809D01*
X55888057Y-41250809D02*
X55914995Y-41169996D01*
X55914995Y-41169996D02*
X56049682Y-41035309D01*
X56049682Y-41035309D02*
X56130494Y-41008372D01*
X56130494Y-41008372D02*
X56184369Y-41008372D01*
X56184369Y-41008372D02*
X56265181Y-41035309D01*
X56265181Y-41035309D02*
X56319056Y-41089184D01*
X56319056Y-41089184D02*
X56372930Y-41196934D01*
X56372930Y-41196934D02*
X56372930Y-41843431D01*
X56372930Y-41843431D02*
X56723117Y-41493245D01*
X56345993Y-40738998D02*
X56723117Y-40361874D01*
X56723117Y-40361874D02*
X57046366Y-41169996D01*
X55793651Y-47438710D02*
X55335716Y-47357898D01*
X55470403Y-47761959D02*
X54904717Y-47196274D01*
X54904717Y-47196274D02*
X55120216Y-46980775D01*
X55120216Y-46980775D02*
X55201029Y-46953837D01*
X55201029Y-46953837D02*
X55254903Y-46953837D01*
X55254903Y-46953837D02*
X55335716Y-46980775D01*
X55335716Y-46980775D02*
X55416528Y-47061587D01*
X55416528Y-47061587D02*
X55443465Y-47142399D01*
X55443465Y-47142399D02*
X55443465Y-47196274D01*
X55443465Y-47196274D02*
X55416528Y-47277086D01*
X55416528Y-47277086D02*
X55201029Y-47492585D01*
X55470403Y-46630588D02*
X55928338Y-47088524D01*
X55928338Y-47088524D02*
X56009151Y-47115462D01*
X56009151Y-47115462D02*
X56063025Y-47115462D01*
X56063025Y-47115462D02*
X56143838Y-47088524D01*
X56143838Y-47088524D02*
X56251587Y-46980775D01*
X56251587Y-46980775D02*
X56278525Y-46899962D01*
X56278525Y-46899962D02*
X56278525Y-46846088D01*
X56278525Y-46846088D02*
X56251587Y-46765275D01*
X56251587Y-46765275D02*
X55793651Y-46307340D01*
X56628711Y-46603651D02*
X56063025Y-46037966D01*
X56063025Y-46037966D02*
X56951959Y-46280402D01*
X56951959Y-46280402D02*
X56386274Y-45714717D01*
X28944998Y-54775868D02*
X28864185Y-54802805D01*
X28864185Y-54802805D02*
X28783373Y-54883618D01*
X28783373Y-54883618D02*
X28729498Y-54991367D01*
X28729498Y-54991367D02*
X28729498Y-55099117D01*
X28729498Y-55099117D02*
X28756436Y-55179929D01*
X28756436Y-55179929D02*
X28837248Y-55314616D01*
X28837248Y-55314616D02*
X28918060Y-55395428D01*
X28918060Y-55395428D02*
X29052747Y-55476241D01*
X29052747Y-55476241D02*
X29133560Y-55503178D01*
X29133560Y-55503178D02*
X29241309Y-55503178D01*
X29241309Y-55503178D02*
X29349059Y-55449303D01*
X29349059Y-55449303D02*
X29402934Y-55395428D01*
X29402934Y-55395428D02*
X29456808Y-55287679D01*
X29456808Y-55287679D02*
X29456808Y-55233804D01*
X29456808Y-55233804D02*
X29268247Y-55045242D01*
X29268247Y-55045242D02*
X29160497Y-55152992D01*
X29753120Y-55045242D02*
X29187434Y-54479557D01*
X29187434Y-54479557D02*
X29402934Y-54264057D01*
X29402934Y-54264057D02*
X29483746Y-54237120D01*
X29483746Y-54237120D02*
X29537621Y-54237120D01*
X29537621Y-54237120D02*
X29618433Y-54264057D01*
X29618433Y-54264057D02*
X29699245Y-54344870D01*
X29699245Y-54344870D02*
X29726182Y-54425682D01*
X29726182Y-54425682D02*
X29726182Y-54479557D01*
X29726182Y-54479557D02*
X29699245Y-54560369D01*
X29699245Y-54560369D02*
X29483746Y-54775868D01*
X30615117Y-54183245D02*
X30291868Y-54506494D01*
X30453492Y-54344870D02*
X29887807Y-53779184D01*
X29887807Y-53779184D02*
X29914744Y-53913871D01*
X29914744Y-53913871D02*
X29914744Y-54021621D01*
X29914744Y-54021621D02*
X29887807Y-54102433D01*
X30399618Y-53267373D02*
X30453492Y-53213499D01*
X30453492Y-53213499D02*
X30534305Y-53186561D01*
X30534305Y-53186561D02*
X30588179Y-53186561D01*
X30588179Y-53186561D02*
X30668992Y-53213499D01*
X30668992Y-53213499D02*
X30803679Y-53294311D01*
X30803679Y-53294311D02*
X30938366Y-53428998D01*
X30938366Y-53428998D02*
X31019178Y-53563685D01*
X31019178Y-53563685D02*
X31046115Y-53644497D01*
X31046115Y-53644497D02*
X31046115Y-53698372D01*
X31046115Y-53698372D02*
X31019178Y-53779184D01*
X31019178Y-53779184D02*
X30965303Y-53833059D01*
X30965303Y-53833059D02*
X30884491Y-53859996D01*
X30884491Y-53859996D02*
X30830616Y-53859996D01*
X30830616Y-53859996D02*
X30749804Y-53833059D01*
X30749804Y-53833059D02*
X30615117Y-53752247D01*
X30615117Y-53752247D02*
X30480430Y-53617560D01*
X30480430Y-53617560D02*
X30399618Y-53482873D01*
X30399618Y-53482873D02*
X30372680Y-53402060D01*
X30372680Y-53402060D02*
X30372680Y-53348186D01*
X30372680Y-53348186D02*
X30399618Y-53267373D01*
X29368372Y-24016494D02*
X29287560Y-24043431D01*
X29287560Y-24043431D02*
X29206748Y-24124243D01*
X29206748Y-24124243D02*
X29152873Y-24231993D01*
X29152873Y-24231993D02*
X29152873Y-24339742D01*
X29152873Y-24339742D02*
X29179810Y-24420555D01*
X29179810Y-24420555D02*
X29260623Y-24555242D01*
X29260623Y-24555242D02*
X29341435Y-24636054D01*
X29341435Y-24636054D02*
X29476122Y-24716866D01*
X29476122Y-24716866D02*
X29556934Y-24743803D01*
X29556934Y-24743803D02*
X29664684Y-24743803D01*
X29664684Y-24743803D02*
X29772433Y-24689929D01*
X29772433Y-24689929D02*
X29826308Y-24636054D01*
X29826308Y-24636054D02*
X29880183Y-24528304D01*
X29880183Y-24528304D02*
X29880183Y-24474429D01*
X29880183Y-24474429D02*
X29691621Y-24285868D01*
X29691621Y-24285868D02*
X29583871Y-24393617D01*
X30176494Y-24285868D02*
X29610809Y-23720182D01*
X29610809Y-23720182D02*
X29826308Y-23504683D01*
X29826308Y-23504683D02*
X29907120Y-23477746D01*
X29907120Y-23477746D02*
X29960995Y-23477746D01*
X29960995Y-23477746D02*
X30041807Y-23504683D01*
X30041807Y-23504683D02*
X30122619Y-23585495D01*
X30122619Y-23585495D02*
X30149557Y-23666307D01*
X30149557Y-23666307D02*
X30149557Y-23720182D01*
X30149557Y-23720182D02*
X30122619Y-23800994D01*
X30122619Y-23800994D02*
X29907120Y-24016494D01*
X31038491Y-23423871D02*
X30715242Y-23747120D01*
X30876867Y-23585495D02*
X30311181Y-23019810D01*
X30311181Y-23019810D02*
X30338119Y-23154497D01*
X30338119Y-23154497D02*
X30338119Y-23262246D01*
X30338119Y-23262246D02*
X30311181Y-23343059D01*
X28798998Y-59855868D02*
X28718185Y-59882805D01*
X28718185Y-59882805D02*
X28637373Y-59963618D01*
X28637373Y-59963618D02*
X28583498Y-60071367D01*
X28583498Y-60071367D02*
X28583498Y-60179117D01*
X28583498Y-60179117D02*
X28610436Y-60259929D01*
X28610436Y-60259929D02*
X28691248Y-60394616D01*
X28691248Y-60394616D02*
X28772060Y-60475428D01*
X28772060Y-60475428D02*
X28906747Y-60556241D01*
X28906747Y-60556241D02*
X28987560Y-60583178D01*
X28987560Y-60583178D02*
X29095309Y-60583178D01*
X29095309Y-60583178D02*
X29203059Y-60529303D01*
X29203059Y-60529303D02*
X29256934Y-60475428D01*
X29256934Y-60475428D02*
X29310808Y-60367679D01*
X29310808Y-60367679D02*
X29310808Y-60313804D01*
X29310808Y-60313804D02*
X29122247Y-60125242D01*
X29122247Y-60125242D02*
X29014497Y-60232992D01*
X29607120Y-60125242D02*
X29041434Y-59559557D01*
X29041434Y-59559557D02*
X29256934Y-59344057D01*
X29256934Y-59344057D02*
X29337746Y-59317120D01*
X29337746Y-59317120D02*
X29391621Y-59317120D01*
X29391621Y-59317120D02*
X29472433Y-59344057D01*
X29472433Y-59344057D02*
X29553245Y-59424870D01*
X29553245Y-59424870D02*
X29580182Y-59505682D01*
X29580182Y-59505682D02*
X29580182Y-59559557D01*
X29580182Y-59559557D02*
X29553245Y-59640369D01*
X29553245Y-59640369D02*
X29337746Y-59855868D01*
X30469117Y-59263245D02*
X30145868Y-59586494D01*
X30307492Y-59424870D02*
X29741807Y-58859184D01*
X29741807Y-58859184D02*
X29768744Y-58993871D01*
X29768744Y-58993871D02*
X29768744Y-59101621D01*
X29768744Y-59101621D02*
X29741807Y-59182433D01*
X30172805Y-58535935D02*
X30172805Y-58482060D01*
X30172805Y-58482060D02*
X30199743Y-58401248D01*
X30199743Y-58401248D02*
X30334430Y-58266561D01*
X30334430Y-58266561D02*
X30415242Y-58239624D01*
X30415242Y-58239624D02*
X30469117Y-58239624D01*
X30469117Y-58239624D02*
X30549929Y-58266561D01*
X30549929Y-58266561D02*
X30603804Y-58320436D01*
X30603804Y-58320436D02*
X30657679Y-58428186D01*
X30657679Y-58428186D02*
X30657679Y-59074683D01*
X30657679Y-59074683D02*
X31007865Y-58724497D01*
X28898998Y-67475868D02*
X28818185Y-67502805D01*
X28818185Y-67502805D02*
X28737373Y-67583618D01*
X28737373Y-67583618D02*
X28683498Y-67691367D01*
X28683498Y-67691367D02*
X28683498Y-67799117D01*
X28683498Y-67799117D02*
X28710436Y-67879929D01*
X28710436Y-67879929D02*
X28791248Y-68014616D01*
X28791248Y-68014616D02*
X28872060Y-68095428D01*
X28872060Y-68095428D02*
X29006747Y-68176241D01*
X29006747Y-68176241D02*
X29087560Y-68203178D01*
X29087560Y-68203178D02*
X29195309Y-68203178D01*
X29195309Y-68203178D02*
X29303059Y-68149303D01*
X29303059Y-68149303D02*
X29356934Y-68095428D01*
X29356934Y-68095428D02*
X29410808Y-67987679D01*
X29410808Y-67987679D02*
X29410808Y-67933804D01*
X29410808Y-67933804D02*
X29222247Y-67745242D01*
X29222247Y-67745242D02*
X29114497Y-67852992D01*
X29707120Y-67745242D02*
X29141434Y-67179557D01*
X29141434Y-67179557D02*
X29356934Y-66964057D01*
X29356934Y-66964057D02*
X29437746Y-66937120D01*
X29437746Y-66937120D02*
X29491621Y-66937120D01*
X29491621Y-66937120D02*
X29572433Y-66964057D01*
X29572433Y-66964057D02*
X29653245Y-67044870D01*
X29653245Y-67044870D02*
X29680182Y-67125682D01*
X29680182Y-67125682D02*
X29680182Y-67179557D01*
X29680182Y-67179557D02*
X29653245Y-67260369D01*
X29653245Y-67260369D02*
X29437746Y-67475868D01*
X30569117Y-66883245D02*
X30245868Y-67206494D01*
X30407492Y-67044870D02*
X29841807Y-66479184D01*
X29841807Y-66479184D02*
X29868744Y-66613871D01*
X29868744Y-66613871D02*
X29868744Y-66721621D01*
X29868744Y-66721621D02*
X29841807Y-66802433D01*
X30676866Y-66021248D02*
X31053990Y-66398372D01*
X30326680Y-65940436D02*
X30596054Y-66479184D01*
X30596054Y-66479184D02*
X30946240Y-66128998D01*
X29441435Y-51993431D02*
X29360623Y-52020368D01*
X29360623Y-52020368D02*
X29279811Y-52101180D01*
X29279811Y-52101180D02*
X29225936Y-52208930D01*
X29225936Y-52208930D02*
X29225936Y-52316680D01*
X29225936Y-52316680D02*
X29252873Y-52397492D01*
X29252873Y-52397492D02*
X29333685Y-52532179D01*
X29333685Y-52532179D02*
X29414498Y-52612991D01*
X29414498Y-52612991D02*
X29549185Y-52693803D01*
X29549185Y-52693803D02*
X29629997Y-52720741D01*
X29629997Y-52720741D02*
X29737746Y-52720741D01*
X29737746Y-52720741D02*
X29845496Y-52666866D01*
X29845496Y-52666866D02*
X29899371Y-52612991D01*
X29899371Y-52612991D02*
X29953246Y-52505241D01*
X29953246Y-52505241D02*
X29953246Y-52451367D01*
X29953246Y-52451367D02*
X29764684Y-52262805D01*
X29764684Y-52262805D02*
X29656934Y-52370554D01*
X30249557Y-52262805D02*
X29683872Y-51697119D01*
X29683872Y-51697119D02*
X30572806Y-51939556D01*
X30572806Y-51939556D02*
X30007120Y-51373871D01*
X30842180Y-51670182D02*
X30276494Y-51104497D01*
X30276494Y-51104497D02*
X30411181Y-50969810D01*
X30411181Y-50969810D02*
X30518931Y-50915935D01*
X30518931Y-50915935D02*
X30626680Y-50915935D01*
X30626680Y-50915935D02*
X30707493Y-50942872D01*
X30707493Y-50942872D02*
X30842180Y-51023685D01*
X30842180Y-51023685D02*
X30922992Y-51104497D01*
X30922992Y-51104497D02*
X31003804Y-51239184D01*
X31003804Y-51239184D02*
X31030741Y-51319996D01*
X31030741Y-51319996D02*
X31030741Y-51427746D01*
X31030741Y-51427746D02*
X30976867Y-51535495D01*
X30976867Y-51535495D02*
X30842180Y-51670182D01*
X55052998Y-49695868D02*
X54972185Y-49722805D01*
X54972185Y-49722805D02*
X54891373Y-49803618D01*
X54891373Y-49803618D02*
X54837498Y-49911367D01*
X54837498Y-49911367D02*
X54837498Y-50019117D01*
X54837498Y-50019117D02*
X54864436Y-50099929D01*
X54864436Y-50099929D02*
X54945248Y-50234616D01*
X54945248Y-50234616D02*
X55026060Y-50315428D01*
X55026060Y-50315428D02*
X55160747Y-50396241D01*
X55160747Y-50396241D02*
X55241560Y-50423178D01*
X55241560Y-50423178D02*
X55349309Y-50423178D01*
X55349309Y-50423178D02*
X55457059Y-50369303D01*
X55457059Y-50369303D02*
X55510934Y-50315428D01*
X55510934Y-50315428D02*
X55564808Y-50207679D01*
X55564808Y-50207679D02*
X55564808Y-50153804D01*
X55564808Y-50153804D02*
X55376247Y-49965242D01*
X55376247Y-49965242D02*
X55268497Y-50072992D01*
X55861120Y-49965242D02*
X55295434Y-49399557D01*
X55295434Y-49399557D02*
X55510934Y-49184057D01*
X55510934Y-49184057D02*
X55591746Y-49157120D01*
X55591746Y-49157120D02*
X55645621Y-49157120D01*
X55645621Y-49157120D02*
X55726433Y-49184057D01*
X55726433Y-49184057D02*
X55807245Y-49264870D01*
X55807245Y-49264870D02*
X55834182Y-49345682D01*
X55834182Y-49345682D02*
X55834182Y-49399557D01*
X55834182Y-49399557D02*
X55807245Y-49480369D01*
X55807245Y-49480369D02*
X55591746Y-49695868D01*
X55888057Y-48914683D02*
X55888057Y-48860809D01*
X55888057Y-48860809D02*
X55914995Y-48779996D01*
X55914995Y-48779996D02*
X56049682Y-48645309D01*
X56049682Y-48645309D02*
X56130494Y-48618372D01*
X56130494Y-48618372D02*
X56184369Y-48618372D01*
X56184369Y-48618372D02*
X56265181Y-48645309D01*
X56265181Y-48645309D02*
X56319056Y-48699184D01*
X56319056Y-48699184D02*
X56372930Y-48806934D01*
X56372930Y-48806934D02*
X56372930Y-49453431D01*
X56372930Y-49453431D02*
X56723117Y-49103245D01*
X56426805Y-48375935D02*
X56426805Y-48322060D01*
X56426805Y-48322060D02*
X56453743Y-48241248D01*
X56453743Y-48241248D02*
X56588430Y-48106561D01*
X56588430Y-48106561D02*
X56669242Y-48079624D01*
X56669242Y-48079624D02*
X56723117Y-48079624D01*
X56723117Y-48079624D02*
X56803929Y-48106561D01*
X56803929Y-48106561D02*
X56857804Y-48160436D01*
X56857804Y-48160436D02*
X56911679Y-48268186D01*
X56911679Y-48268186D02*
X56911679Y-48914683D01*
X56911679Y-48914683D02*
X57261865Y-48564497D01*
X55052998Y-54785868D02*
X54972185Y-54812805D01*
X54972185Y-54812805D02*
X54891373Y-54893618D01*
X54891373Y-54893618D02*
X54837498Y-55001367D01*
X54837498Y-55001367D02*
X54837498Y-55109117D01*
X54837498Y-55109117D02*
X54864436Y-55189929D01*
X54864436Y-55189929D02*
X54945248Y-55324616D01*
X54945248Y-55324616D02*
X55026060Y-55405428D01*
X55026060Y-55405428D02*
X55160747Y-55486241D01*
X55160747Y-55486241D02*
X55241560Y-55513178D01*
X55241560Y-55513178D02*
X55349309Y-55513178D01*
X55349309Y-55513178D02*
X55457059Y-55459303D01*
X55457059Y-55459303D02*
X55510934Y-55405428D01*
X55510934Y-55405428D02*
X55564808Y-55297679D01*
X55564808Y-55297679D02*
X55564808Y-55243804D01*
X55564808Y-55243804D02*
X55376247Y-55055242D01*
X55376247Y-55055242D02*
X55268497Y-55162992D01*
X55861120Y-55055242D02*
X55295434Y-54489557D01*
X55295434Y-54489557D02*
X55510934Y-54274057D01*
X55510934Y-54274057D02*
X55591746Y-54247120D01*
X55591746Y-54247120D02*
X55645621Y-54247120D01*
X55645621Y-54247120D02*
X55726433Y-54274057D01*
X55726433Y-54274057D02*
X55807245Y-54354870D01*
X55807245Y-54354870D02*
X55834182Y-54435682D01*
X55834182Y-54435682D02*
X55834182Y-54489557D01*
X55834182Y-54489557D02*
X55807245Y-54570369D01*
X55807245Y-54570369D02*
X55591746Y-54785868D01*
X55888057Y-54004683D02*
X55888057Y-53950809D01*
X55888057Y-53950809D02*
X55914995Y-53869996D01*
X55914995Y-53869996D02*
X56049682Y-53735309D01*
X56049682Y-53735309D02*
X56130494Y-53708372D01*
X56130494Y-53708372D02*
X56184369Y-53708372D01*
X56184369Y-53708372D02*
X56265181Y-53735309D01*
X56265181Y-53735309D02*
X56319056Y-53789184D01*
X56319056Y-53789184D02*
X56372930Y-53896934D01*
X56372930Y-53896934D02*
X56372930Y-54543431D01*
X56372930Y-54543431D02*
X56723117Y-54193245D01*
X57261865Y-53654497D02*
X56938616Y-53977746D01*
X57100240Y-53816121D02*
X56534555Y-53250436D01*
X56534555Y-53250436D02*
X56561492Y-53385123D01*
X56561492Y-53385123D02*
X56561492Y-53492873D01*
X56561492Y-53492873D02*
X56534555Y-53573685D01*
X29468372Y-41806494D02*
X29387560Y-41833431D01*
X29387560Y-41833431D02*
X29306748Y-41914243D01*
X29306748Y-41914243D02*
X29252873Y-42021993D01*
X29252873Y-42021993D02*
X29252873Y-42129742D01*
X29252873Y-42129742D02*
X29279810Y-42210555D01*
X29279810Y-42210555D02*
X29360623Y-42345242D01*
X29360623Y-42345242D02*
X29441435Y-42426054D01*
X29441435Y-42426054D02*
X29576122Y-42506866D01*
X29576122Y-42506866D02*
X29656934Y-42533803D01*
X29656934Y-42533803D02*
X29764684Y-42533803D01*
X29764684Y-42533803D02*
X29872433Y-42479929D01*
X29872433Y-42479929D02*
X29926308Y-42426054D01*
X29926308Y-42426054D02*
X29980183Y-42318304D01*
X29980183Y-42318304D02*
X29980183Y-42264429D01*
X29980183Y-42264429D02*
X29791621Y-42075868D01*
X29791621Y-42075868D02*
X29683871Y-42183617D01*
X30276494Y-42075868D02*
X29710809Y-41510182D01*
X29710809Y-41510182D02*
X29926308Y-41294683D01*
X29926308Y-41294683D02*
X30007120Y-41267746D01*
X30007120Y-41267746D02*
X30060995Y-41267746D01*
X30060995Y-41267746D02*
X30141807Y-41294683D01*
X30141807Y-41294683D02*
X30222619Y-41375495D01*
X30222619Y-41375495D02*
X30249557Y-41456307D01*
X30249557Y-41456307D02*
X30249557Y-41510182D01*
X30249557Y-41510182D02*
X30222619Y-41590994D01*
X30222619Y-41590994D02*
X30007120Y-41806494D01*
X30518931Y-40702060D02*
X30411181Y-40809810D01*
X30411181Y-40809810D02*
X30384244Y-40890622D01*
X30384244Y-40890622D02*
X30384244Y-40944497D01*
X30384244Y-40944497D02*
X30411181Y-41079184D01*
X30411181Y-41079184D02*
X30491993Y-41213871D01*
X30491993Y-41213871D02*
X30707493Y-41429370D01*
X30707493Y-41429370D02*
X30788305Y-41456307D01*
X30788305Y-41456307D02*
X30842180Y-41456307D01*
X30842180Y-41456307D02*
X30922992Y-41429370D01*
X30922992Y-41429370D02*
X31030741Y-41321620D01*
X31030741Y-41321620D02*
X31057679Y-41240808D01*
X31057679Y-41240808D02*
X31057679Y-41186933D01*
X31057679Y-41186933D02*
X31030741Y-41106121D01*
X31030741Y-41106121D02*
X30896054Y-40971434D01*
X30896054Y-40971434D02*
X30815242Y-40944497D01*
X30815242Y-40944497D02*
X30761367Y-40944497D01*
X30761367Y-40944497D02*
X30680555Y-40971434D01*
X30680555Y-40971434D02*
X30572806Y-41079184D01*
X30572806Y-41079184D02*
X30545868Y-41159996D01*
X30545868Y-41159996D02*
X30545868Y-41213871D01*
X30545868Y-41213871D02*
X30572806Y-41294683D01*
X55052998Y-62395868D02*
X54972185Y-62422805D01*
X54972185Y-62422805D02*
X54891373Y-62503618D01*
X54891373Y-62503618D02*
X54837498Y-62611367D01*
X54837498Y-62611367D02*
X54837498Y-62719117D01*
X54837498Y-62719117D02*
X54864436Y-62799929D01*
X54864436Y-62799929D02*
X54945248Y-62934616D01*
X54945248Y-62934616D02*
X55026060Y-63015428D01*
X55026060Y-63015428D02*
X55160747Y-63096241D01*
X55160747Y-63096241D02*
X55241560Y-63123178D01*
X55241560Y-63123178D02*
X55349309Y-63123178D01*
X55349309Y-63123178D02*
X55457059Y-63069303D01*
X55457059Y-63069303D02*
X55510934Y-63015428D01*
X55510934Y-63015428D02*
X55564808Y-62907679D01*
X55564808Y-62907679D02*
X55564808Y-62853804D01*
X55564808Y-62853804D02*
X55376247Y-62665242D01*
X55376247Y-62665242D02*
X55268497Y-62772992D01*
X55861120Y-62665242D02*
X55295434Y-62099557D01*
X55295434Y-62099557D02*
X55510934Y-61884057D01*
X55510934Y-61884057D02*
X55591746Y-61857120D01*
X55591746Y-61857120D02*
X55645621Y-61857120D01*
X55645621Y-61857120D02*
X55726433Y-61884057D01*
X55726433Y-61884057D02*
X55807245Y-61964870D01*
X55807245Y-61964870D02*
X55834182Y-62045682D01*
X55834182Y-62045682D02*
X55834182Y-62099557D01*
X55834182Y-62099557D02*
X55807245Y-62180369D01*
X55807245Y-62180369D02*
X55591746Y-62395868D01*
X56723117Y-61803245D02*
X56399868Y-62126494D01*
X56561492Y-61964870D02*
X55995807Y-61399184D01*
X55995807Y-61399184D02*
X56022744Y-61533871D01*
X56022744Y-61533871D02*
X56022744Y-61641621D01*
X56022744Y-61641621D02*
X55995807Y-61722433D01*
X56723117Y-61156747D02*
X56642305Y-61183685D01*
X56642305Y-61183685D02*
X56588430Y-61183685D01*
X56588430Y-61183685D02*
X56507618Y-61156747D01*
X56507618Y-61156747D02*
X56480680Y-61129810D01*
X56480680Y-61129810D02*
X56453743Y-61048998D01*
X56453743Y-61048998D02*
X56453743Y-60995123D01*
X56453743Y-60995123D02*
X56480680Y-60914311D01*
X56480680Y-60914311D02*
X56588430Y-60806561D01*
X56588430Y-60806561D02*
X56669242Y-60779624D01*
X56669242Y-60779624D02*
X56723117Y-60779624D01*
X56723117Y-60779624D02*
X56803929Y-60806561D01*
X56803929Y-60806561D02*
X56830866Y-60833499D01*
X56830866Y-60833499D02*
X56857804Y-60914311D01*
X56857804Y-60914311D02*
X56857804Y-60968186D01*
X56857804Y-60968186D02*
X56830866Y-61048998D01*
X56830866Y-61048998D02*
X56723117Y-61156747D01*
X56723117Y-61156747D02*
X56696179Y-61237560D01*
X56696179Y-61237560D02*
X56696179Y-61291434D01*
X56696179Y-61291434D02*
X56723117Y-61372247D01*
X56723117Y-61372247D02*
X56830866Y-61479996D01*
X56830866Y-61479996D02*
X56911679Y-61506934D01*
X56911679Y-61506934D02*
X56965553Y-61506934D01*
X56965553Y-61506934D02*
X57046366Y-61479996D01*
X57046366Y-61479996D02*
X57154115Y-61372247D01*
X57154115Y-61372247D02*
X57181053Y-61291434D01*
X57181053Y-61291434D02*
X57181053Y-61237560D01*
X57181053Y-61237560D02*
X57154115Y-61156747D01*
X57154115Y-61156747D02*
X57046366Y-61048998D01*
X57046366Y-61048998D02*
X56965553Y-61022060D01*
X56965553Y-61022060D02*
X56911679Y-61022060D01*
X56911679Y-61022060D02*
X56830866Y-61048998D01*
X29368372Y-29106494D02*
X29287560Y-29133431D01*
X29287560Y-29133431D02*
X29206748Y-29214243D01*
X29206748Y-29214243D02*
X29152873Y-29321993D01*
X29152873Y-29321993D02*
X29152873Y-29429742D01*
X29152873Y-29429742D02*
X29179810Y-29510555D01*
X29179810Y-29510555D02*
X29260623Y-29645242D01*
X29260623Y-29645242D02*
X29341435Y-29726054D01*
X29341435Y-29726054D02*
X29476122Y-29806866D01*
X29476122Y-29806866D02*
X29556934Y-29833803D01*
X29556934Y-29833803D02*
X29664684Y-29833803D01*
X29664684Y-29833803D02*
X29772433Y-29779929D01*
X29772433Y-29779929D02*
X29826308Y-29726054D01*
X29826308Y-29726054D02*
X29880183Y-29618304D01*
X29880183Y-29618304D02*
X29880183Y-29564429D01*
X29880183Y-29564429D02*
X29691621Y-29375868D01*
X29691621Y-29375868D02*
X29583871Y-29483617D01*
X30176494Y-29375868D02*
X29610809Y-28810182D01*
X29610809Y-28810182D02*
X29826308Y-28594683D01*
X29826308Y-28594683D02*
X29907120Y-28567746D01*
X29907120Y-28567746D02*
X29960995Y-28567746D01*
X29960995Y-28567746D02*
X30041807Y-28594683D01*
X30041807Y-28594683D02*
X30122619Y-28675495D01*
X30122619Y-28675495D02*
X30149557Y-28756307D01*
X30149557Y-28756307D02*
X30149557Y-28810182D01*
X30149557Y-28810182D02*
X30122619Y-28890994D01*
X30122619Y-28890994D02*
X29907120Y-29106494D01*
X30203432Y-28325309D02*
X30203432Y-28271434D01*
X30203432Y-28271434D02*
X30230369Y-28190622D01*
X30230369Y-28190622D02*
X30365056Y-28055935D01*
X30365056Y-28055935D02*
X30445868Y-28028998D01*
X30445868Y-28028998D02*
X30499743Y-28028998D01*
X30499743Y-28028998D02*
X30580555Y-28055935D01*
X30580555Y-28055935D02*
X30634430Y-28109810D01*
X30634430Y-28109810D02*
X30688305Y-28217559D01*
X30688305Y-28217559D02*
X30688305Y-28864057D01*
X30688305Y-28864057D02*
X31038491Y-28513871D01*
X55052998Y-59855868D02*
X54972185Y-59882805D01*
X54972185Y-59882805D02*
X54891373Y-59963618D01*
X54891373Y-59963618D02*
X54837498Y-60071367D01*
X54837498Y-60071367D02*
X54837498Y-60179117D01*
X54837498Y-60179117D02*
X54864436Y-60259929D01*
X54864436Y-60259929D02*
X54945248Y-60394616D01*
X54945248Y-60394616D02*
X55026060Y-60475428D01*
X55026060Y-60475428D02*
X55160747Y-60556241D01*
X55160747Y-60556241D02*
X55241560Y-60583178D01*
X55241560Y-60583178D02*
X55349309Y-60583178D01*
X55349309Y-60583178D02*
X55457059Y-60529303D01*
X55457059Y-60529303D02*
X55510934Y-60475428D01*
X55510934Y-60475428D02*
X55564808Y-60367679D01*
X55564808Y-60367679D02*
X55564808Y-60313804D01*
X55564808Y-60313804D02*
X55376247Y-60125242D01*
X55376247Y-60125242D02*
X55268497Y-60232992D01*
X55861120Y-60125242D02*
X55295434Y-59559557D01*
X55295434Y-59559557D02*
X55510934Y-59344057D01*
X55510934Y-59344057D02*
X55591746Y-59317120D01*
X55591746Y-59317120D02*
X55645621Y-59317120D01*
X55645621Y-59317120D02*
X55726433Y-59344057D01*
X55726433Y-59344057D02*
X55807245Y-59424870D01*
X55807245Y-59424870D02*
X55834182Y-59505682D01*
X55834182Y-59505682D02*
X55834182Y-59559557D01*
X55834182Y-59559557D02*
X55807245Y-59640369D01*
X55807245Y-59640369D02*
X55591746Y-59855868D01*
X56723117Y-59263245D02*
X56399868Y-59586494D01*
X56561492Y-59424870D02*
X55995807Y-58859184D01*
X55995807Y-58859184D02*
X56022744Y-58993871D01*
X56022744Y-58993871D02*
X56022744Y-59101621D01*
X56022744Y-59101621D02*
X55995807Y-59182433D01*
X56992491Y-58993871D02*
X57100240Y-58886121D01*
X57100240Y-58886121D02*
X57127178Y-58805309D01*
X57127178Y-58805309D02*
X57127178Y-58751434D01*
X57127178Y-58751434D02*
X57100240Y-58616747D01*
X57100240Y-58616747D02*
X57019428Y-58482060D01*
X57019428Y-58482060D02*
X56803929Y-58266561D01*
X56803929Y-58266561D02*
X56723117Y-58239624D01*
X56723117Y-58239624D02*
X56669242Y-58239624D01*
X56669242Y-58239624D02*
X56588430Y-58266561D01*
X56588430Y-58266561D02*
X56480680Y-58374311D01*
X56480680Y-58374311D02*
X56453743Y-58455123D01*
X56453743Y-58455123D02*
X56453743Y-58508998D01*
X56453743Y-58508998D02*
X56480680Y-58589810D01*
X56480680Y-58589810D02*
X56615367Y-58724497D01*
X56615367Y-58724497D02*
X56696179Y-58751434D01*
X56696179Y-58751434D02*
X56750054Y-58751434D01*
X56750054Y-58751434D02*
X56830866Y-58724497D01*
X56830866Y-58724497D02*
X56938616Y-58616747D01*
X56938616Y-58616747D02*
X56965553Y-58535935D01*
X56965553Y-58535935D02*
X56965553Y-58482060D01*
X56965553Y-58482060D02*
X56938616Y-58401248D01*
X55052998Y-57315868D02*
X54972185Y-57342805D01*
X54972185Y-57342805D02*
X54891373Y-57423618D01*
X54891373Y-57423618D02*
X54837498Y-57531367D01*
X54837498Y-57531367D02*
X54837498Y-57639117D01*
X54837498Y-57639117D02*
X54864436Y-57719929D01*
X54864436Y-57719929D02*
X54945248Y-57854616D01*
X54945248Y-57854616D02*
X55026060Y-57935428D01*
X55026060Y-57935428D02*
X55160747Y-58016241D01*
X55160747Y-58016241D02*
X55241560Y-58043178D01*
X55241560Y-58043178D02*
X55349309Y-58043178D01*
X55349309Y-58043178D02*
X55457059Y-57989303D01*
X55457059Y-57989303D02*
X55510934Y-57935428D01*
X55510934Y-57935428D02*
X55564808Y-57827679D01*
X55564808Y-57827679D02*
X55564808Y-57773804D01*
X55564808Y-57773804D02*
X55376247Y-57585242D01*
X55376247Y-57585242D02*
X55268497Y-57692992D01*
X55861120Y-57585242D02*
X55295434Y-57019557D01*
X55295434Y-57019557D02*
X55510934Y-56804057D01*
X55510934Y-56804057D02*
X55591746Y-56777120D01*
X55591746Y-56777120D02*
X55645621Y-56777120D01*
X55645621Y-56777120D02*
X55726433Y-56804057D01*
X55726433Y-56804057D02*
X55807245Y-56884870D01*
X55807245Y-56884870D02*
X55834182Y-56965682D01*
X55834182Y-56965682D02*
X55834182Y-57019557D01*
X55834182Y-57019557D02*
X55807245Y-57100369D01*
X55807245Y-57100369D02*
X55591746Y-57315868D01*
X55888057Y-56534683D02*
X55888057Y-56480809D01*
X55888057Y-56480809D02*
X55914995Y-56399996D01*
X55914995Y-56399996D02*
X56049682Y-56265309D01*
X56049682Y-56265309D02*
X56130494Y-56238372D01*
X56130494Y-56238372D02*
X56184369Y-56238372D01*
X56184369Y-56238372D02*
X56265181Y-56265309D01*
X56265181Y-56265309D02*
X56319056Y-56319184D01*
X56319056Y-56319184D02*
X56372930Y-56426934D01*
X56372930Y-56426934D02*
X56372930Y-57073431D01*
X56372930Y-57073431D02*
X56723117Y-56723245D01*
X56507618Y-55807373D02*
X56561492Y-55753499D01*
X56561492Y-55753499D02*
X56642305Y-55726561D01*
X56642305Y-55726561D02*
X56696179Y-55726561D01*
X56696179Y-55726561D02*
X56776992Y-55753499D01*
X56776992Y-55753499D02*
X56911679Y-55834311D01*
X56911679Y-55834311D02*
X57046366Y-55968998D01*
X57046366Y-55968998D02*
X57127178Y-56103685D01*
X57127178Y-56103685D02*
X57154115Y-56184497D01*
X57154115Y-56184497D02*
X57154115Y-56238372D01*
X57154115Y-56238372D02*
X57127178Y-56319184D01*
X57127178Y-56319184D02*
X57073303Y-56373059D01*
X57073303Y-56373059D02*
X56992491Y-56399996D01*
X56992491Y-56399996D02*
X56938616Y-56399996D01*
X56938616Y-56399996D02*
X56857804Y-56373059D01*
X56857804Y-56373059D02*
X56723117Y-56292247D01*
X56723117Y-56292247D02*
X56588430Y-56157560D01*
X56588430Y-56157560D02*
X56507618Y-56022873D01*
X56507618Y-56022873D02*
X56480680Y-55942060D01*
X56480680Y-55942060D02*
X56480680Y-55888186D01*
X56480680Y-55888186D02*
X56507618Y-55807373D01*
X29441435Y-26593431D02*
X29360623Y-26620368D01*
X29360623Y-26620368D02*
X29279811Y-26701180D01*
X29279811Y-26701180D02*
X29225936Y-26808930D01*
X29225936Y-26808930D02*
X29225936Y-26916680D01*
X29225936Y-26916680D02*
X29252873Y-26997492D01*
X29252873Y-26997492D02*
X29333685Y-27132179D01*
X29333685Y-27132179D02*
X29414498Y-27212991D01*
X29414498Y-27212991D02*
X29549185Y-27293803D01*
X29549185Y-27293803D02*
X29629997Y-27320741D01*
X29629997Y-27320741D02*
X29737746Y-27320741D01*
X29737746Y-27320741D02*
X29845496Y-27266866D01*
X29845496Y-27266866D02*
X29899371Y-27212991D01*
X29899371Y-27212991D02*
X29953246Y-27105241D01*
X29953246Y-27105241D02*
X29953246Y-27051367D01*
X29953246Y-27051367D02*
X29764684Y-26862805D01*
X29764684Y-26862805D02*
X29656934Y-26970554D01*
X30249557Y-26862805D02*
X29683872Y-26297119D01*
X29683872Y-26297119D02*
X30572806Y-26539556D01*
X30572806Y-26539556D02*
X30007120Y-25973871D01*
X30842180Y-26270182D02*
X30276494Y-25704497D01*
X30276494Y-25704497D02*
X30411181Y-25569810D01*
X30411181Y-25569810D02*
X30518931Y-25515935D01*
X30518931Y-25515935D02*
X30626680Y-25515935D01*
X30626680Y-25515935D02*
X30707493Y-25542872D01*
X30707493Y-25542872D02*
X30842180Y-25623685D01*
X30842180Y-25623685D02*
X30922992Y-25704497D01*
X30922992Y-25704497D02*
X31003804Y-25839184D01*
X31003804Y-25839184D02*
X31030741Y-25919996D01*
X31030741Y-25919996D02*
X31030741Y-26027746D01*
X31030741Y-26027746D02*
X30976867Y-26135495D01*
X30976867Y-26135495D02*
X30842180Y-26270182D01*
X29441435Y-64693431D02*
X29360623Y-64720368D01*
X29360623Y-64720368D02*
X29279811Y-64801180D01*
X29279811Y-64801180D02*
X29225936Y-64908930D01*
X29225936Y-64908930D02*
X29225936Y-65016680D01*
X29225936Y-65016680D02*
X29252873Y-65097492D01*
X29252873Y-65097492D02*
X29333685Y-65232179D01*
X29333685Y-65232179D02*
X29414498Y-65312991D01*
X29414498Y-65312991D02*
X29549185Y-65393803D01*
X29549185Y-65393803D02*
X29629997Y-65420741D01*
X29629997Y-65420741D02*
X29737746Y-65420741D01*
X29737746Y-65420741D02*
X29845496Y-65366866D01*
X29845496Y-65366866D02*
X29899371Y-65312991D01*
X29899371Y-65312991D02*
X29953246Y-65205241D01*
X29953246Y-65205241D02*
X29953246Y-65151367D01*
X29953246Y-65151367D02*
X29764684Y-64962805D01*
X29764684Y-64962805D02*
X29656934Y-65070554D01*
X30249557Y-64962805D02*
X29683872Y-64397119D01*
X29683872Y-64397119D02*
X30572806Y-64639556D01*
X30572806Y-64639556D02*
X30007120Y-64073871D01*
X30842180Y-64370182D02*
X30276494Y-63804497D01*
X30276494Y-63804497D02*
X30411181Y-63669810D01*
X30411181Y-63669810D02*
X30518931Y-63615935D01*
X30518931Y-63615935D02*
X30626680Y-63615935D01*
X30626680Y-63615935D02*
X30707493Y-63642872D01*
X30707493Y-63642872D02*
X30842180Y-63723685D01*
X30842180Y-63723685D02*
X30922992Y-63804497D01*
X30922992Y-63804497D02*
X31003804Y-63939184D01*
X31003804Y-63939184D02*
X31030741Y-64019996D01*
X31030741Y-64019996D02*
X31030741Y-64127746D01*
X31030741Y-64127746D02*
X30976867Y-64235495D01*
X30976867Y-64235495D02*
X30842180Y-64370182D01*
X29468372Y-31646494D02*
X29387560Y-31673431D01*
X29387560Y-31673431D02*
X29306748Y-31754243D01*
X29306748Y-31754243D02*
X29252873Y-31861993D01*
X29252873Y-31861993D02*
X29252873Y-31969742D01*
X29252873Y-31969742D02*
X29279810Y-32050555D01*
X29279810Y-32050555D02*
X29360623Y-32185242D01*
X29360623Y-32185242D02*
X29441435Y-32266054D01*
X29441435Y-32266054D02*
X29576122Y-32346866D01*
X29576122Y-32346866D02*
X29656934Y-32373803D01*
X29656934Y-32373803D02*
X29764684Y-32373803D01*
X29764684Y-32373803D02*
X29872433Y-32319929D01*
X29872433Y-32319929D02*
X29926308Y-32266054D01*
X29926308Y-32266054D02*
X29980183Y-32158304D01*
X29980183Y-32158304D02*
X29980183Y-32104429D01*
X29980183Y-32104429D02*
X29791621Y-31915868D01*
X29791621Y-31915868D02*
X29683871Y-32023617D01*
X30276494Y-31915868D02*
X29710809Y-31350182D01*
X29710809Y-31350182D02*
X29926308Y-31134683D01*
X29926308Y-31134683D02*
X30007120Y-31107746D01*
X30007120Y-31107746D02*
X30060995Y-31107746D01*
X30060995Y-31107746D02*
X30141807Y-31134683D01*
X30141807Y-31134683D02*
X30222619Y-31215495D01*
X30222619Y-31215495D02*
X30249557Y-31296307D01*
X30249557Y-31296307D02*
X30249557Y-31350182D01*
X30249557Y-31350182D02*
X30222619Y-31430994D01*
X30222619Y-31430994D02*
X30007120Y-31646494D01*
X30222619Y-30838372D02*
X30572806Y-30488185D01*
X30572806Y-30488185D02*
X30599743Y-30892246D01*
X30599743Y-30892246D02*
X30680555Y-30811434D01*
X30680555Y-30811434D02*
X30761367Y-30784497D01*
X30761367Y-30784497D02*
X30815242Y-30784497D01*
X30815242Y-30784497D02*
X30896054Y-30811434D01*
X30896054Y-30811434D02*
X31030741Y-30946121D01*
X31030741Y-30946121D02*
X31057679Y-31026933D01*
X31057679Y-31026933D02*
X31057679Y-31080808D01*
X31057679Y-31080808D02*
X31030741Y-31161620D01*
X31030741Y-31161620D02*
X30869117Y-31323245D01*
X30869117Y-31323245D02*
X30788305Y-31350182D01*
X30788305Y-31350182D02*
X30734430Y-31350182D01*
X29468372Y-21486494D02*
X29387560Y-21513431D01*
X29387560Y-21513431D02*
X29306748Y-21594243D01*
X29306748Y-21594243D02*
X29252873Y-21701993D01*
X29252873Y-21701993D02*
X29252873Y-21809742D01*
X29252873Y-21809742D02*
X29279810Y-21890555D01*
X29279810Y-21890555D02*
X29360623Y-22025242D01*
X29360623Y-22025242D02*
X29441435Y-22106054D01*
X29441435Y-22106054D02*
X29576122Y-22186866D01*
X29576122Y-22186866D02*
X29656934Y-22213803D01*
X29656934Y-22213803D02*
X29764684Y-22213803D01*
X29764684Y-22213803D02*
X29872433Y-22159929D01*
X29872433Y-22159929D02*
X29926308Y-22106054D01*
X29926308Y-22106054D02*
X29980183Y-21998304D01*
X29980183Y-21998304D02*
X29980183Y-21944429D01*
X29980183Y-21944429D02*
X29791621Y-21755868D01*
X29791621Y-21755868D02*
X29683871Y-21863617D01*
X30276494Y-21755868D02*
X29710809Y-21190182D01*
X29710809Y-21190182D02*
X29926308Y-20974683D01*
X29926308Y-20974683D02*
X30007120Y-20947746D01*
X30007120Y-20947746D02*
X30060995Y-20947746D01*
X30060995Y-20947746D02*
X30141807Y-20974683D01*
X30141807Y-20974683D02*
X30222619Y-21055495D01*
X30222619Y-21055495D02*
X30249557Y-21136307D01*
X30249557Y-21136307D02*
X30249557Y-21190182D01*
X30249557Y-21190182D02*
X30222619Y-21270994D01*
X30222619Y-21270994D02*
X30007120Y-21486494D01*
X30384244Y-20516747D02*
X30438119Y-20462872D01*
X30438119Y-20462872D02*
X30518931Y-20435935D01*
X30518931Y-20435935D02*
X30572806Y-20435935D01*
X30572806Y-20435935D02*
X30653618Y-20462872D01*
X30653618Y-20462872D02*
X30788305Y-20543685D01*
X30788305Y-20543685D02*
X30922992Y-20678372D01*
X30922992Y-20678372D02*
X31003804Y-20813059D01*
X31003804Y-20813059D02*
X31030741Y-20893871D01*
X31030741Y-20893871D02*
X31030741Y-20947746D01*
X31030741Y-20947746D02*
X31003804Y-21028558D01*
X31003804Y-21028558D02*
X30949929Y-21082433D01*
X30949929Y-21082433D02*
X30869117Y-21109370D01*
X30869117Y-21109370D02*
X30815242Y-21109370D01*
X30815242Y-21109370D02*
X30734430Y-21082433D01*
X30734430Y-21082433D02*
X30599743Y-21001620D01*
X30599743Y-21001620D02*
X30465056Y-20866933D01*
X30465056Y-20866933D02*
X30384244Y-20732246D01*
X30384244Y-20732246D02*
X30357306Y-20651434D01*
X30357306Y-20651434D02*
X30357306Y-20597559D01*
X30357306Y-20597559D02*
X30384244Y-20516747D01*
X29468372Y-36726494D02*
X29387560Y-36753431D01*
X29387560Y-36753431D02*
X29306748Y-36834243D01*
X29306748Y-36834243D02*
X29252873Y-36941993D01*
X29252873Y-36941993D02*
X29252873Y-37049742D01*
X29252873Y-37049742D02*
X29279810Y-37130555D01*
X29279810Y-37130555D02*
X29360623Y-37265242D01*
X29360623Y-37265242D02*
X29441435Y-37346054D01*
X29441435Y-37346054D02*
X29576122Y-37426866D01*
X29576122Y-37426866D02*
X29656934Y-37453803D01*
X29656934Y-37453803D02*
X29764684Y-37453803D01*
X29764684Y-37453803D02*
X29872433Y-37399929D01*
X29872433Y-37399929D02*
X29926308Y-37346054D01*
X29926308Y-37346054D02*
X29980183Y-37238304D01*
X29980183Y-37238304D02*
X29980183Y-37184429D01*
X29980183Y-37184429D02*
X29791621Y-36995868D01*
X29791621Y-36995868D02*
X29683871Y-37103617D01*
X30276494Y-36995868D02*
X29710809Y-36430182D01*
X29710809Y-36430182D02*
X29926308Y-36214683D01*
X29926308Y-36214683D02*
X30007120Y-36187746D01*
X30007120Y-36187746D02*
X30060995Y-36187746D01*
X30060995Y-36187746D02*
X30141807Y-36214683D01*
X30141807Y-36214683D02*
X30222619Y-36295495D01*
X30222619Y-36295495D02*
X30249557Y-36376307D01*
X30249557Y-36376307D02*
X30249557Y-36430182D01*
X30249557Y-36430182D02*
X30222619Y-36510994D01*
X30222619Y-36510994D02*
X30007120Y-36726494D01*
X30545868Y-35595123D02*
X30276494Y-35864497D01*
X30276494Y-35864497D02*
X30518931Y-36160808D01*
X30518931Y-36160808D02*
X30518931Y-36106933D01*
X30518931Y-36106933D02*
X30545868Y-36026121D01*
X30545868Y-36026121D02*
X30680555Y-35891434D01*
X30680555Y-35891434D02*
X30761367Y-35864497D01*
X30761367Y-35864497D02*
X30815242Y-35864497D01*
X30815242Y-35864497D02*
X30896054Y-35891434D01*
X30896054Y-35891434D02*
X31030741Y-36026121D01*
X31030741Y-36026121D02*
X31057679Y-36106933D01*
X31057679Y-36106933D02*
X31057679Y-36160808D01*
X31057679Y-36160808D02*
X31030741Y-36241620D01*
X31030741Y-36241620D02*
X30896054Y-36376307D01*
X30896054Y-36376307D02*
X30815242Y-36403245D01*
X30815242Y-36403245D02*
X30761367Y-36403245D01*
X46859761Y-72019200D02*
X46974047Y-72057295D01*
X46974047Y-72057295D02*
X47164523Y-72057295D01*
X47164523Y-72057295D02*
X47240714Y-72019200D01*
X47240714Y-72019200D02*
X47278809Y-71981104D01*
X47278809Y-71981104D02*
X47316904Y-71904914D01*
X47316904Y-71904914D02*
X47316904Y-71828723D01*
X47316904Y-71828723D02*
X47278809Y-71752533D01*
X47278809Y-71752533D02*
X47240714Y-71714438D01*
X47240714Y-71714438D02*
X47164523Y-71676342D01*
X47164523Y-71676342D02*
X47012142Y-71638247D01*
X47012142Y-71638247D02*
X46935952Y-71600152D01*
X46935952Y-71600152D02*
X46897857Y-71562057D01*
X46897857Y-71562057D02*
X46859761Y-71485866D01*
X46859761Y-71485866D02*
X46859761Y-71409676D01*
X46859761Y-71409676D02*
X46897857Y-71333485D01*
X46897857Y-71333485D02*
X46935952Y-71295390D01*
X46935952Y-71295390D02*
X47012142Y-71257295D01*
X47012142Y-71257295D02*
X47202619Y-71257295D01*
X47202619Y-71257295D02*
X47316904Y-71295390D01*
X47583571Y-71257295D02*
X47774047Y-72057295D01*
X47774047Y-72057295D02*
X47926428Y-71485866D01*
X47926428Y-71485866D02*
X48078809Y-72057295D01*
X48078809Y-72057295D02*
X48269286Y-71257295D01*
X48574048Y-72057295D02*
X48574048Y-71257295D01*
X48574048Y-71257295D02*
X48764524Y-71257295D01*
X48764524Y-71257295D02*
X48878810Y-71295390D01*
X48878810Y-71295390D02*
X48955000Y-71371580D01*
X48955000Y-71371580D02*
X48993095Y-71447771D01*
X48993095Y-71447771D02*
X49031191Y-71600152D01*
X49031191Y-71600152D02*
X49031191Y-71714438D01*
X49031191Y-71714438D02*
X48993095Y-71866819D01*
X48993095Y-71866819D02*
X48955000Y-71943009D01*
X48955000Y-71943009D02*
X48878810Y-72019200D01*
X48878810Y-72019200D02*
X48764524Y-72057295D01*
X48764524Y-72057295D02*
X48574048Y-72057295D01*
X49374048Y-72057295D02*
X49374048Y-71257295D01*
X49907381Y-71257295D02*
X50059762Y-71257295D01*
X50059762Y-71257295D02*
X50135952Y-71295390D01*
X50135952Y-71295390D02*
X50212143Y-71371580D01*
X50212143Y-71371580D02*
X50250238Y-71523961D01*
X50250238Y-71523961D02*
X50250238Y-71790628D01*
X50250238Y-71790628D02*
X50212143Y-71943009D01*
X50212143Y-71943009D02*
X50135952Y-72019200D01*
X50135952Y-72019200D02*
X50059762Y-72057295D01*
X50059762Y-72057295D02*
X49907381Y-72057295D01*
X49907381Y-72057295D02*
X49831190Y-72019200D01*
X49831190Y-72019200D02*
X49755000Y-71943009D01*
X49755000Y-71943009D02*
X49716904Y-71790628D01*
X49716904Y-71790628D02*
X49716904Y-71523961D01*
X49716904Y-71523961D02*
X49755000Y-71371580D01*
X49755000Y-71371580D02*
X49831190Y-71295390D01*
X49831190Y-71295390D02*
X49907381Y-71257295D01*
X29468372Y-49426494D02*
X29387560Y-49453431D01*
X29387560Y-49453431D02*
X29306748Y-49534243D01*
X29306748Y-49534243D02*
X29252873Y-49641993D01*
X29252873Y-49641993D02*
X29252873Y-49749742D01*
X29252873Y-49749742D02*
X29279810Y-49830555D01*
X29279810Y-49830555D02*
X29360623Y-49965242D01*
X29360623Y-49965242D02*
X29441435Y-50046054D01*
X29441435Y-50046054D02*
X29576122Y-50126866D01*
X29576122Y-50126866D02*
X29656934Y-50153803D01*
X29656934Y-50153803D02*
X29764684Y-50153803D01*
X29764684Y-50153803D02*
X29872433Y-50099929D01*
X29872433Y-50099929D02*
X29926308Y-50046054D01*
X29926308Y-50046054D02*
X29980183Y-49938304D01*
X29980183Y-49938304D02*
X29980183Y-49884429D01*
X29980183Y-49884429D02*
X29791621Y-49695868D01*
X29791621Y-49695868D02*
X29683871Y-49803617D01*
X30276494Y-49695868D02*
X29710809Y-49130182D01*
X29710809Y-49130182D02*
X29926308Y-48914683D01*
X29926308Y-48914683D02*
X30007120Y-48887746D01*
X30007120Y-48887746D02*
X30060995Y-48887746D01*
X30060995Y-48887746D02*
X30141807Y-48914683D01*
X30141807Y-48914683D02*
X30222619Y-48995495D01*
X30222619Y-48995495D02*
X30249557Y-49076307D01*
X30249557Y-49076307D02*
X30249557Y-49130182D01*
X30249557Y-49130182D02*
X30222619Y-49210994D01*
X30222619Y-49210994D02*
X30007120Y-49426494D01*
X30869117Y-49103245D02*
X30976867Y-48995495D01*
X30976867Y-48995495D02*
X31003804Y-48914683D01*
X31003804Y-48914683D02*
X31003804Y-48860808D01*
X31003804Y-48860808D02*
X30976867Y-48726121D01*
X30976867Y-48726121D02*
X30896054Y-48591434D01*
X30896054Y-48591434D02*
X30680555Y-48375935D01*
X30680555Y-48375935D02*
X30599743Y-48348998D01*
X30599743Y-48348998D02*
X30545868Y-48348998D01*
X30545868Y-48348998D02*
X30465056Y-48375935D01*
X30465056Y-48375935D02*
X30357306Y-48483685D01*
X30357306Y-48483685D02*
X30330369Y-48564497D01*
X30330369Y-48564497D02*
X30330369Y-48618372D01*
X30330369Y-48618372D02*
X30357306Y-48699184D01*
X30357306Y-48699184D02*
X30491993Y-48833871D01*
X30491993Y-48833871D02*
X30572806Y-48860808D01*
X30572806Y-48860808D02*
X30626680Y-48860808D01*
X30626680Y-48860808D02*
X30707493Y-48833871D01*
X30707493Y-48833871D02*
X30815242Y-48726121D01*
X30815242Y-48726121D02*
X30842180Y-48645309D01*
X30842180Y-48645309D02*
X30842180Y-48591434D01*
X30842180Y-48591434D02*
X30815242Y-48510622D01*
X55052998Y-36741868D02*
X54972185Y-36768805D01*
X54972185Y-36768805D02*
X54891373Y-36849618D01*
X54891373Y-36849618D02*
X54837498Y-36957367D01*
X54837498Y-36957367D02*
X54837498Y-37065117D01*
X54837498Y-37065117D02*
X54864436Y-37145929D01*
X54864436Y-37145929D02*
X54945248Y-37280616D01*
X54945248Y-37280616D02*
X55026060Y-37361428D01*
X55026060Y-37361428D02*
X55160747Y-37442241D01*
X55160747Y-37442241D02*
X55241560Y-37469178D01*
X55241560Y-37469178D02*
X55349309Y-37469178D01*
X55349309Y-37469178D02*
X55457059Y-37415303D01*
X55457059Y-37415303D02*
X55510934Y-37361428D01*
X55510934Y-37361428D02*
X55564808Y-37253679D01*
X55564808Y-37253679D02*
X55564808Y-37199804D01*
X55564808Y-37199804D02*
X55376247Y-37011242D01*
X55376247Y-37011242D02*
X55268497Y-37118992D01*
X55861120Y-37011242D02*
X55295434Y-36445557D01*
X55295434Y-36445557D02*
X55510934Y-36230057D01*
X55510934Y-36230057D02*
X55591746Y-36203120D01*
X55591746Y-36203120D02*
X55645621Y-36203120D01*
X55645621Y-36203120D02*
X55726433Y-36230057D01*
X55726433Y-36230057D02*
X55807245Y-36310870D01*
X55807245Y-36310870D02*
X55834182Y-36391682D01*
X55834182Y-36391682D02*
X55834182Y-36445557D01*
X55834182Y-36445557D02*
X55807245Y-36526369D01*
X55807245Y-36526369D02*
X55591746Y-36741868D01*
X55888057Y-35960683D02*
X55888057Y-35906809D01*
X55888057Y-35906809D02*
X55914995Y-35825996D01*
X55914995Y-35825996D02*
X56049682Y-35691309D01*
X56049682Y-35691309D02*
X56130494Y-35664372D01*
X56130494Y-35664372D02*
X56184369Y-35664372D01*
X56184369Y-35664372D02*
X56265181Y-35691309D01*
X56265181Y-35691309D02*
X56319056Y-35745184D01*
X56319056Y-35745184D02*
X56372930Y-35852934D01*
X56372930Y-35852934D02*
X56372930Y-36499431D01*
X56372930Y-36499431D02*
X56723117Y-36149245D01*
X56723117Y-35502747D02*
X56642305Y-35529685D01*
X56642305Y-35529685D02*
X56588430Y-35529685D01*
X56588430Y-35529685D02*
X56507618Y-35502747D01*
X56507618Y-35502747D02*
X56480680Y-35475810D01*
X56480680Y-35475810D02*
X56453743Y-35394998D01*
X56453743Y-35394998D02*
X56453743Y-35341123D01*
X56453743Y-35341123D02*
X56480680Y-35260311D01*
X56480680Y-35260311D02*
X56588430Y-35152561D01*
X56588430Y-35152561D02*
X56669242Y-35125624D01*
X56669242Y-35125624D02*
X56723117Y-35125624D01*
X56723117Y-35125624D02*
X56803929Y-35152561D01*
X56803929Y-35152561D02*
X56830866Y-35179499D01*
X56830866Y-35179499D02*
X56857804Y-35260311D01*
X56857804Y-35260311D02*
X56857804Y-35314186D01*
X56857804Y-35314186D02*
X56830866Y-35394998D01*
X56830866Y-35394998D02*
X56723117Y-35502747D01*
X56723117Y-35502747D02*
X56696179Y-35583560D01*
X56696179Y-35583560D02*
X56696179Y-35637434D01*
X56696179Y-35637434D02*
X56723117Y-35718247D01*
X56723117Y-35718247D02*
X56830866Y-35825996D01*
X56830866Y-35825996D02*
X56911679Y-35852934D01*
X56911679Y-35852934D02*
X56965553Y-35852934D01*
X56965553Y-35852934D02*
X57046366Y-35825996D01*
X57046366Y-35825996D02*
X57154115Y-35718247D01*
X57154115Y-35718247D02*
X57181053Y-35637434D01*
X57181053Y-35637434D02*
X57181053Y-35583560D01*
X57181053Y-35583560D02*
X57154115Y-35502747D01*
X57154115Y-35502747D02*
X57046366Y-35394998D01*
X57046366Y-35394998D02*
X56965553Y-35368060D01*
X56965553Y-35368060D02*
X56911679Y-35368060D01*
X56911679Y-35368060D02*
X56830866Y-35394998D01*
X29441435Y-39293431D02*
X29360623Y-39320368D01*
X29360623Y-39320368D02*
X29279811Y-39401180D01*
X29279811Y-39401180D02*
X29225936Y-39508930D01*
X29225936Y-39508930D02*
X29225936Y-39616680D01*
X29225936Y-39616680D02*
X29252873Y-39697492D01*
X29252873Y-39697492D02*
X29333685Y-39832179D01*
X29333685Y-39832179D02*
X29414498Y-39912991D01*
X29414498Y-39912991D02*
X29549185Y-39993803D01*
X29549185Y-39993803D02*
X29629997Y-40020741D01*
X29629997Y-40020741D02*
X29737746Y-40020741D01*
X29737746Y-40020741D02*
X29845496Y-39966866D01*
X29845496Y-39966866D02*
X29899371Y-39912991D01*
X29899371Y-39912991D02*
X29953246Y-39805241D01*
X29953246Y-39805241D02*
X29953246Y-39751367D01*
X29953246Y-39751367D02*
X29764684Y-39562805D01*
X29764684Y-39562805D02*
X29656934Y-39670554D01*
X30249557Y-39562805D02*
X29683872Y-38997119D01*
X29683872Y-38997119D02*
X30572806Y-39239556D01*
X30572806Y-39239556D02*
X30007120Y-38673871D01*
X30842180Y-38970182D02*
X30276494Y-38404497D01*
X30276494Y-38404497D02*
X30411181Y-38269810D01*
X30411181Y-38269810D02*
X30518931Y-38215935D01*
X30518931Y-38215935D02*
X30626680Y-38215935D01*
X30626680Y-38215935D02*
X30707493Y-38242872D01*
X30707493Y-38242872D02*
X30842180Y-38323685D01*
X30842180Y-38323685D02*
X30922992Y-38404497D01*
X30922992Y-38404497D02*
X31003804Y-38539184D01*
X31003804Y-38539184D02*
X31030741Y-38619996D01*
X31030741Y-38619996D02*
X31030741Y-38727746D01*
X31030741Y-38727746D02*
X30976867Y-38835495D01*
X30976867Y-38835495D02*
X30842180Y-38970182D01*
X55041435Y-51993431D02*
X54960623Y-52020368D01*
X54960623Y-52020368D02*
X54879811Y-52101180D01*
X54879811Y-52101180D02*
X54825936Y-52208930D01*
X54825936Y-52208930D02*
X54825936Y-52316680D01*
X54825936Y-52316680D02*
X54852873Y-52397492D01*
X54852873Y-52397492D02*
X54933685Y-52532179D01*
X54933685Y-52532179D02*
X55014498Y-52612991D01*
X55014498Y-52612991D02*
X55149185Y-52693803D01*
X55149185Y-52693803D02*
X55229997Y-52720741D01*
X55229997Y-52720741D02*
X55337746Y-52720741D01*
X55337746Y-52720741D02*
X55445496Y-52666866D01*
X55445496Y-52666866D02*
X55499371Y-52612991D01*
X55499371Y-52612991D02*
X55553246Y-52505241D01*
X55553246Y-52505241D02*
X55553246Y-52451367D01*
X55553246Y-52451367D02*
X55364684Y-52262805D01*
X55364684Y-52262805D02*
X55256934Y-52370554D01*
X55849557Y-52262805D02*
X55283872Y-51697119D01*
X55283872Y-51697119D02*
X56172806Y-51939556D01*
X56172806Y-51939556D02*
X55607120Y-51373871D01*
X56442180Y-51670182D02*
X55876494Y-51104497D01*
X55876494Y-51104497D02*
X56011181Y-50969810D01*
X56011181Y-50969810D02*
X56118931Y-50915935D01*
X56118931Y-50915935D02*
X56226680Y-50915935D01*
X56226680Y-50915935D02*
X56307493Y-50942872D01*
X56307493Y-50942872D02*
X56442180Y-51023685D01*
X56442180Y-51023685D02*
X56522992Y-51104497D01*
X56522992Y-51104497D02*
X56603804Y-51239184D01*
X56603804Y-51239184D02*
X56630741Y-51319996D01*
X56630741Y-51319996D02*
X56630741Y-51427746D01*
X56630741Y-51427746D02*
X56576867Y-51535495D01*
X56576867Y-51535495D02*
X56442180Y-51670182D01*
X55052998Y-70015868D02*
X54972185Y-70042805D01*
X54972185Y-70042805D02*
X54891373Y-70123618D01*
X54891373Y-70123618D02*
X54837498Y-70231367D01*
X54837498Y-70231367D02*
X54837498Y-70339117D01*
X54837498Y-70339117D02*
X54864436Y-70419929D01*
X54864436Y-70419929D02*
X54945248Y-70554616D01*
X54945248Y-70554616D02*
X55026060Y-70635428D01*
X55026060Y-70635428D02*
X55160747Y-70716241D01*
X55160747Y-70716241D02*
X55241560Y-70743178D01*
X55241560Y-70743178D02*
X55349309Y-70743178D01*
X55349309Y-70743178D02*
X55457059Y-70689303D01*
X55457059Y-70689303D02*
X55510934Y-70635428D01*
X55510934Y-70635428D02*
X55564808Y-70527679D01*
X55564808Y-70527679D02*
X55564808Y-70473804D01*
X55564808Y-70473804D02*
X55376247Y-70285242D01*
X55376247Y-70285242D02*
X55268497Y-70392992D01*
X55861120Y-70285242D02*
X55295434Y-69719557D01*
X55295434Y-69719557D02*
X55510934Y-69504057D01*
X55510934Y-69504057D02*
X55591746Y-69477120D01*
X55591746Y-69477120D02*
X55645621Y-69477120D01*
X55645621Y-69477120D02*
X55726433Y-69504057D01*
X55726433Y-69504057D02*
X55807245Y-69584870D01*
X55807245Y-69584870D02*
X55834182Y-69665682D01*
X55834182Y-69665682D02*
X55834182Y-69719557D01*
X55834182Y-69719557D02*
X55807245Y-69800369D01*
X55807245Y-69800369D02*
X55591746Y-70015868D01*
X56723117Y-69423245D02*
X56399868Y-69746494D01*
X56561492Y-69584870D02*
X55995807Y-69019184D01*
X55995807Y-69019184D02*
X56022744Y-69153871D01*
X56022744Y-69153871D02*
X56022744Y-69261621D01*
X56022744Y-69261621D02*
X55995807Y-69342433D01*
X56642305Y-68372686D02*
X56534555Y-68480436D01*
X56534555Y-68480436D02*
X56507618Y-68561248D01*
X56507618Y-68561248D02*
X56507618Y-68615123D01*
X56507618Y-68615123D02*
X56534555Y-68749810D01*
X56534555Y-68749810D02*
X56615367Y-68884497D01*
X56615367Y-68884497D02*
X56830866Y-69099996D01*
X56830866Y-69099996D02*
X56911679Y-69126934D01*
X56911679Y-69126934D02*
X56965553Y-69126934D01*
X56965553Y-69126934D02*
X57046366Y-69099996D01*
X57046366Y-69099996D02*
X57154115Y-68992247D01*
X57154115Y-68992247D02*
X57181053Y-68911434D01*
X57181053Y-68911434D02*
X57181053Y-68857560D01*
X57181053Y-68857560D02*
X57154115Y-68776747D01*
X57154115Y-68776747D02*
X57019428Y-68642060D01*
X57019428Y-68642060D02*
X56938616Y-68615123D01*
X56938616Y-68615123D02*
X56884741Y-68615123D01*
X56884741Y-68615123D02*
X56803929Y-68642060D01*
X56803929Y-68642060D02*
X56696179Y-68749810D01*
X56696179Y-68749810D02*
X56669242Y-68830622D01*
X56669242Y-68830622D02*
X56669242Y-68884497D01*
X56669242Y-68884497D02*
X56696179Y-68965309D01*
X29468372Y-46886494D02*
X29387560Y-46913431D01*
X29387560Y-46913431D02*
X29306748Y-46994243D01*
X29306748Y-46994243D02*
X29252873Y-47101993D01*
X29252873Y-47101993D02*
X29252873Y-47209742D01*
X29252873Y-47209742D02*
X29279810Y-47290555D01*
X29279810Y-47290555D02*
X29360623Y-47425242D01*
X29360623Y-47425242D02*
X29441435Y-47506054D01*
X29441435Y-47506054D02*
X29576122Y-47586866D01*
X29576122Y-47586866D02*
X29656934Y-47613803D01*
X29656934Y-47613803D02*
X29764684Y-47613803D01*
X29764684Y-47613803D02*
X29872433Y-47559929D01*
X29872433Y-47559929D02*
X29926308Y-47506054D01*
X29926308Y-47506054D02*
X29980183Y-47398304D01*
X29980183Y-47398304D02*
X29980183Y-47344429D01*
X29980183Y-47344429D02*
X29791621Y-47155868D01*
X29791621Y-47155868D02*
X29683871Y-47263617D01*
X30276494Y-47155868D02*
X29710809Y-46590182D01*
X29710809Y-46590182D02*
X29926308Y-46374683D01*
X29926308Y-46374683D02*
X30007120Y-46347746D01*
X30007120Y-46347746D02*
X30060995Y-46347746D01*
X30060995Y-46347746D02*
X30141807Y-46374683D01*
X30141807Y-46374683D02*
X30222619Y-46455495D01*
X30222619Y-46455495D02*
X30249557Y-46536307D01*
X30249557Y-46536307D02*
X30249557Y-46590182D01*
X30249557Y-46590182D02*
X30222619Y-46670994D01*
X30222619Y-46670994D02*
X30007120Y-46886494D01*
X30599743Y-46186121D02*
X30518931Y-46213059D01*
X30518931Y-46213059D02*
X30465056Y-46213059D01*
X30465056Y-46213059D02*
X30384244Y-46186121D01*
X30384244Y-46186121D02*
X30357306Y-46159184D01*
X30357306Y-46159184D02*
X30330369Y-46078372D01*
X30330369Y-46078372D02*
X30330369Y-46024497D01*
X30330369Y-46024497D02*
X30357306Y-45943685D01*
X30357306Y-45943685D02*
X30465056Y-45835935D01*
X30465056Y-45835935D02*
X30545868Y-45808998D01*
X30545868Y-45808998D02*
X30599743Y-45808998D01*
X30599743Y-45808998D02*
X30680555Y-45835935D01*
X30680555Y-45835935D02*
X30707493Y-45862872D01*
X30707493Y-45862872D02*
X30734430Y-45943685D01*
X30734430Y-45943685D02*
X30734430Y-45997559D01*
X30734430Y-45997559D02*
X30707493Y-46078372D01*
X30707493Y-46078372D02*
X30599743Y-46186121D01*
X30599743Y-46186121D02*
X30572806Y-46266933D01*
X30572806Y-46266933D02*
X30572806Y-46320808D01*
X30572806Y-46320808D02*
X30599743Y-46401620D01*
X30599743Y-46401620D02*
X30707493Y-46509370D01*
X30707493Y-46509370D02*
X30788305Y-46536307D01*
X30788305Y-46536307D02*
X30842180Y-46536307D01*
X30842180Y-46536307D02*
X30922992Y-46509370D01*
X30922992Y-46509370D02*
X31030741Y-46401620D01*
X31030741Y-46401620D02*
X31057679Y-46320808D01*
X31057679Y-46320808D02*
X31057679Y-46266933D01*
X31057679Y-46266933D02*
X31030741Y-46186121D01*
X31030741Y-46186121D02*
X30922992Y-46078372D01*
X30922992Y-46078372D02*
X30842180Y-46051434D01*
X30842180Y-46051434D02*
X30788305Y-46051434D01*
X30788305Y-46051434D02*
X30707493Y-46078372D01*
X54845123Y-31985868D02*
X55195309Y-31635682D01*
X55195309Y-31635682D02*
X55222247Y-32039743D01*
X55222247Y-32039743D02*
X55303059Y-31958931D01*
X55303059Y-31958931D02*
X55383871Y-31931993D01*
X55383871Y-31931993D02*
X55437746Y-31931993D01*
X55437746Y-31931993D02*
X55518558Y-31958931D01*
X55518558Y-31958931D02*
X55653245Y-32093618D01*
X55653245Y-32093618D02*
X55680182Y-32174430D01*
X55680182Y-32174430D02*
X55680182Y-32228305D01*
X55680182Y-32228305D02*
X55653245Y-32309117D01*
X55653245Y-32309117D02*
X55491621Y-32470741D01*
X55491621Y-32470741D02*
X55410808Y-32497679D01*
X55410808Y-32497679D02*
X55356934Y-32497679D01*
X55356934Y-31474057D02*
X56111181Y-31851181D01*
X56111181Y-31851181D02*
X55734057Y-31096934D01*
X55868744Y-30962247D02*
X56218930Y-30612061D01*
X56218930Y-30612061D02*
X56245868Y-31016122D01*
X56245868Y-31016122D02*
X56326680Y-30935309D01*
X56326680Y-30935309D02*
X56407492Y-30908372D01*
X56407492Y-30908372D02*
X56461367Y-30908372D01*
X56461367Y-30908372D02*
X56542179Y-30935309D01*
X56542179Y-30935309D02*
X56676866Y-31069996D01*
X56676866Y-31069996D02*
X56703804Y-31150809D01*
X56703804Y-31150809D02*
X56703804Y-31204683D01*
X56703804Y-31204683D02*
X56676866Y-31285496D01*
X56676866Y-31285496D02*
X56515242Y-31447120D01*
X56515242Y-31447120D02*
X56434430Y-31474057D01*
X56434430Y-31474057D02*
X56380555Y-31474057D01*
X35445475Y-72019200D02*
X35559761Y-72057295D01*
X35559761Y-72057295D02*
X35750237Y-72057295D01*
X35750237Y-72057295D02*
X35826428Y-72019200D01*
X35826428Y-72019200D02*
X35864523Y-71981104D01*
X35864523Y-71981104D02*
X35902618Y-71904914D01*
X35902618Y-71904914D02*
X35902618Y-71828723D01*
X35902618Y-71828723D02*
X35864523Y-71752533D01*
X35864523Y-71752533D02*
X35826428Y-71714438D01*
X35826428Y-71714438D02*
X35750237Y-71676342D01*
X35750237Y-71676342D02*
X35597856Y-71638247D01*
X35597856Y-71638247D02*
X35521666Y-71600152D01*
X35521666Y-71600152D02*
X35483571Y-71562057D01*
X35483571Y-71562057D02*
X35445475Y-71485866D01*
X35445475Y-71485866D02*
X35445475Y-71409676D01*
X35445475Y-71409676D02*
X35483571Y-71333485D01*
X35483571Y-71333485D02*
X35521666Y-71295390D01*
X35521666Y-71295390D02*
X35597856Y-71257295D01*
X35597856Y-71257295D02*
X35788333Y-71257295D01*
X35788333Y-71257295D02*
X35902618Y-71295390D01*
X36169285Y-71257295D02*
X36359761Y-72057295D01*
X36359761Y-72057295D02*
X36512142Y-71485866D01*
X36512142Y-71485866D02*
X36664523Y-72057295D01*
X36664523Y-72057295D02*
X36855000Y-71257295D01*
X37616905Y-71981104D02*
X37578809Y-72019200D01*
X37578809Y-72019200D02*
X37464524Y-72057295D01*
X37464524Y-72057295D02*
X37388333Y-72057295D01*
X37388333Y-72057295D02*
X37274047Y-72019200D01*
X37274047Y-72019200D02*
X37197857Y-71943009D01*
X37197857Y-71943009D02*
X37159762Y-71866819D01*
X37159762Y-71866819D02*
X37121666Y-71714438D01*
X37121666Y-71714438D02*
X37121666Y-71600152D01*
X37121666Y-71600152D02*
X37159762Y-71447771D01*
X37159762Y-71447771D02*
X37197857Y-71371580D01*
X37197857Y-71371580D02*
X37274047Y-71295390D01*
X37274047Y-71295390D02*
X37388333Y-71257295D01*
X37388333Y-71257295D02*
X37464524Y-71257295D01*
X37464524Y-71257295D02*
X37578809Y-71295390D01*
X37578809Y-71295390D02*
X37616905Y-71333485D01*
X38340714Y-72057295D02*
X37959762Y-72057295D01*
X37959762Y-72057295D02*
X37959762Y-71257295D01*
X38607381Y-72057295D02*
X38607381Y-71257295D01*
X39064524Y-72057295D02*
X38721666Y-71600152D01*
X39064524Y-71257295D02*
X38607381Y-71714438D01*
X55052998Y-44615868D02*
X54972185Y-44642805D01*
X54972185Y-44642805D02*
X54891373Y-44723618D01*
X54891373Y-44723618D02*
X54837498Y-44831367D01*
X54837498Y-44831367D02*
X54837498Y-44939117D01*
X54837498Y-44939117D02*
X54864436Y-45019929D01*
X54864436Y-45019929D02*
X54945248Y-45154616D01*
X54945248Y-45154616D02*
X55026060Y-45235428D01*
X55026060Y-45235428D02*
X55160747Y-45316241D01*
X55160747Y-45316241D02*
X55241560Y-45343178D01*
X55241560Y-45343178D02*
X55349309Y-45343178D01*
X55349309Y-45343178D02*
X55457059Y-45289303D01*
X55457059Y-45289303D02*
X55510934Y-45235428D01*
X55510934Y-45235428D02*
X55564808Y-45127679D01*
X55564808Y-45127679D02*
X55564808Y-45073804D01*
X55564808Y-45073804D02*
X55376247Y-44885242D01*
X55376247Y-44885242D02*
X55268497Y-44992992D01*
X55861120Y-44885242D02*
X55295434Y-44319557D01*
X55295434Y-44319557D02*
X55510934Y-44104057D01*
X55510934Y-44104057D02*
X55591746Y-44077120D01*
X55591746Y-44077120D02*
X55645621Y-44077120D01*
X55645621Y-44077120D02*
X55726433Y-44104057D01*
X55726433Y-44104057D02*
X55807245Y-44184870D01*
X55807245Y-44184870D02*
X55834182Y-44265682D01*
X55834182Y-44265682D02*
X55834182Y-44319557D01*
X55834182Y-44319557D02*
X55807245Y-44400369D01*
X55807245Y-44400369D02*
X55591746Y-44615868D01*
X55888057Y-43834683D02*
X55888057Y-43780809D01*
X55888057Y-43780809D02*
X55914995Y-43699996D01*
X55914995Y-43699996D02*
X56049682Y-43565309D01*
X56049682Y-43565309D02*
X56130494Y-43538372D01*
X56130494Y-43538372D02*
X56184369Y-43538372D01*
X56184369Y-43538372D02*
X56265181Y-43565309D01*
X56265181Y-43565309D02*
X56319056Y-43619184D01*
X56319056Y-43619184D02*
X56372930Y-43726934D01*
X56372930Y-43726934D02*
X56372930Y-44373431D01*
X56372930Y-44373431D02*
X56723117Y-44023245D01*
X56642305Y-42972686D02*
X56534555Y-43080436D01*
X56534555Y-43080436D02*
X56507618Y-43161248D01*
X56507618Y-43161248D02*
X56507618Y-43215123D01*
X56507618Y-43215123D02*
X56534555Y-43349810D01*
X56534555Y-43349810D02*
X56615367Y-43484497D01*
X56615367Y-43484497D02*
X56830866Y-43699996D01*
X56830866Y-43699996D02*
X56911679Y-43726934D01*
X56911679Y-43726934D02*
X56965553Y-43726934D01*
X56965553Y-43726934D02*
X57046366Y-43699996D01*
X57046366Y-43699996D02*
X57154115Y-43592247D01*
X57154115Y-43592247D02*
X57181053Y-43511434D01*
X57181053Y-43511434D02*
X57181053Y-43457560D01*
X57181053Y-43457560D02*
X57154115Y-43376747D01*
X57154115Y-43376747D02*
X57019428Y-43242060D01*
X57019428Y-43242060D02*
X56938616Y-43215123D01*
X56938616Y-43215123D02*
X56884741Y-43215123D01*
X56884741Y-43215123D02*
X56803929Y-43242060D01*
X56803929Y-43242060D02*
X56696179Y-43349810D01*
X56696179Y-43349810D02*
X56669242Y-43430622D01*
X56669242Y-43430622D02*
X56669242Y-43484497D01*
X56669242Y-43484497D02*
X56696179Y-43565309D01*
X55052998Y-67475868D02*
X54972185Y-67502805D01*
X54972185Y-67502805D02*
X54891373Y-67583618D01*
X54891373Y-67583618D02*
X54837498Y-67691367D01*
X54837498Y-67691367D02*
X54837498Y-67799117D01*
X54837498Y-67799117D02*
X54864436Y-67879929D01*
X54864436Y-67879929D02*
X54945248Y-68014616D01*
X54945248Y-68014616D02*
X55026060Y-68095428D01*
X55026060Y-68095428D02*
X55160747Y-68176241D01*
X55160747Y-68176241D02*
X55241560Y-68203178D01*
X55241560Y-68203178D02*
X55349309Y-68203178D01*
X55349309Y-68203178D02*
X55457059Y-68149303D01*
X55457059Y-68149303D02*
X55510934Y-68095428D01*
X55510934Y-68095428D02*
X55564808Y-67987679D01*
X55564808Y-67987679D02*
X55564808Y-67933804D01*
X55564808Y-67933804D02*
X55376247Y-67745242D01*
X55376247Y-67745242D02*
X55268497Y-67852992D01*
X55861120Y-67745242D02*
X55295434Y-67179557D01*
X55295434Y-67179557D02*
X55510934Y-66964057D01*
X55510934Y-66964057D02*
X55591746Y-66937120D01*
X55591746Y-66937120D02*
X55645621Y-66937120D01*
X55645621Y-66937120D02*
X55726433Y-66964057D01*
X55726433Y-66964057D02*
X55807245Y-67044870D01*
X55807245Y-67044870D02*
X55834182Y-67125682D01*
X55834182Y-67125682D02*
X55834182Y-67179557D01*
X55834182Y-67179557D02*
X55807245Y-67260369D01*
X55807245Y-67260369D02*
X55591746Y-67475868D01*
X56723117Y-66883245D02*
X56399868Y-67206494D01*
X56561492Y-67044870D02*
X55995807Y-66479184D01*
X55995807Y-66479184D02*
X56022744Y-66613871D01*
X56022744Y-66613871D02*
X56022744Y-66721621D01*
X56022744Y-66721621D02*
X55995807Y-66802433D01*
X56345993Y-66128998D02*
X56723117Y-65751874D01*
X56723117Y-65751874D02*
X57046366Y-66559996D01*
X28944998Y-70015868D02*
X28864185Y-70042805D01*
X28864185Y-70042805D02*
X28783373Y-70123618D01*
X28783373Y-70123618D02*
X28729498Y-70231367D01*
X28729498Y-70231367D02*
X28729498Y-70339117D01*
X28729498Y-70339117D02*
X28756436Y-70419929D01*
X28756436Y-70419929D02*
X28837248Y-70554616D01*
X28837248Y-70554616D02*
X28918060Y-70635428D01*
X28918060Y-70635428D02*
X29052747Y-70716241D01*
X29052747Y-70716241D02*
X29133560Y-70743178D01*
X29133560Y-70743178D02*
X29241309Y-70743178D01*
X29241309Y-70743178D02*
X29349059Y-70689303D01*
X29349059Y-70689303D02*
X29402934Y-70635428D01*
X29402934Y-70635428D02*
X29456808Y-70527679D01*
X29456808Y-70527679D02*
X29456808Y-70473804D01*
X29456808Y-70473804D02*
X29268247Y-70285242D01*
X29268247Y-70285242D02*
X29160497Y-70392992D01*
X29753120Y-70285242D02*
X29187434Y-69719557D01*
X29187434Y-69719557D02*
X29402934Y-69504057D01*
X29402934Y-69504057D02*
X29483746Y-69477120D01*
X29483746Y-69477120D02*
X29537621Y-69477120D01*
X29537621Y-69477120D02*
X29618433Y-69504057D01*
X29618433Y-69504057D02*
X29699245Y-69584870D01*
X29699245Y-69584870D02*
X29726182Y-69665682D01*
X29726182Y-69665682D02*
X29726182Y-69719557D01*
X29726182Y-69719557D02*
X29699245Y-69800369D01*
X29699245Y-69800369D02*
X29483746Y-70015868D01*
X30615117Y-69423245D02*
X30291868Y-69746494D01*
X30453492Y-69584870D02*
X29887807Y-69019184D01*
X29887807Y-69019184D02*
X29914744Y-69153871D01*
X29914744Y-69153871D02*
X29914744Y-69261621D01*
X29914744Y-69261621D02*
X29887807Y-69342433D01*
X30561242Y-68345749D02*
X30291868Y-68615123D01*
X30291868Y-68615123D02*
X30534305Y-68911434D01*
X30534305Y-68911434D02*
X30534305Y-68857560D01*
X30534305Y-68857560D02*
X30561242Y-68776747D01*
X30561242Y-68776747D02*
X30695929Y-68642060D01*
X30695929Y-68642060D02*
X30776741Y-68615123D01*
X30776741Y-68615123D02*
X30830616Y-68615123D01*
X30830616Y-68615123D02*
X30911428Y-68642060D01*
X30911428Y-68642060D02*
X31046115Y-68776747D01*
X31046115Y-68776747D02*
X31073053Y-68857560D01*
X31073053Y-68857560D02*
X31073053Y-68911434D01*
X31073053Y-68911434D02*
X31046115Y-68992247D01*
X31046115Y-68992247D02*
X30911428Y-69126934D01*
X30911428Y-69126934D02*
X30830616Y-69153871D01*
X30830616Y-69153871D02*
X30776741Y-69153871D01*
X29568372Y-44316494D02*
X29487560Y-44343431D01*
X29487560Y-44343431D02*
X29406748Y-44424243D01*
X29406748Y-44424243D02*
X29352873Y-44531993D01*
X29352873Y-44531993D02*
X29352873Y-44639742D01*
X29352873Y-44639742D02*
X29379810Y-44720555D01*
X29379810Y-44720555D02*
X29460623Y-44855242D01*
X29460623Y-44855242D02*
X29541435Y-44936054D01*
X29541435Y-44936054D02*
X29676122Y-45016866D01*
X29676122Y-45016866D02*
X29756934Y-45043803D01*
X29756934Y-45043803D02*
X29864684Y-45043803D01*
X29864684Y-45043803D02*
X29972433Y-44989929D01*
X29972433Y-44989929D02*
X30026308Y-44936054D01*
X30026308Y-44936054D02*
X30080183Y-44828304D01*
X30080183Y-44828304D02*
X30080183Y-44774429D01*
X30080183Y-44774429D02*
X29891621Y-44585868D01*
X29891621Y-44585868D02*
X29783871Y-44693617D01*
X30376494Y-44585868D02*
X29810809Y-44020182D01*
X29810809Y-44020182D02*
X30026308Y-43804683D01*
X30026308Y-43804683D02*
X30107120Y-43777746D01*
X30107120Y-43777746D02*
X30160995Y-43777746D01*
X30160995Y-43777746D02*
X30241807Y-43804683D01*
X30241807Y-43804683D02*
X30322619Y-43885495D01*
X30322619Y-43885495D02*
X30349557Y-43966307D01*
X30349557Y-43966307D02*
X30349557Y-44020182D01*
X30349557Y-44020182D02*
X30322619Y-44100994D01*
X30322619Y-44100994D02*
X30107120Y-44316494D01*
X30322619Y-43508372D02*
X30699743Y-43131248D01*
X30699743Y-43131248D02*
X31022992Y-43939370D01*
X29468372Y-34186494D02*
X29387560Y-34213431D01*
X29387560Y-34213431D02*
X29306748Y-34294243D01*
X29306748Y-34294243D02*
X29252873Y-34401993D01*
X29252873Y-34401993D02*
X29252873Y-34509742D01*
X29252873Y-34509742D02*
X29279810Y-34590555D01*
X29279810Y-34590555D02*
X29360623Y-34725242D01*
X29360623Y-34725242D02*
X29441435Y-34806054D01*
X29441435Y-34806054D02*
X29576122Y-34886866D01*
X29576122Y-34886866D02*
X29656934Y-34913803D01*
X29656934Y-34913803D02*
X29764684Y-34913803D01*
X29764684Y-34913803D02*
X29872433Y-34859929D01*
X29872433Y-34859929D02*
X29926308Y-34806054D01*
X29926308Y-34806054D02*
X29980183Y-34698304D01*
X29980183Y-34698304D02*
X29980183Y-34644429D01*
X29980183Y-34644429D02*
X29791621Y-34455868D01*
X29791621Y-34455868D02*
X29683871Y-34563617D01*
X30276494Y-34455868D02*
X29710809Y-33890182D01*
X29710809Y-33890182D02*
X29926308Y-33674683D01*
X29926308Y-33674683D02*
X30007120Y-33647746D01*
X30007120Y-33647746D02*
X30060995Y-33647746D01*
X30060995Y-33647746D02*
X30141807Y-33674683D01*
X30141807Y-33674683D02*
X30222619Y-33755495D01*
X30222619Y-33755495D02*
X30249557Y-33836307D01*
X30249557Y-33836307D02*
X30249557Y-33890182D01*
X30249557Y-33890182D02*
X30222619Y-33970994D01*
X30222619Y-33970994D02*
X30007120Y-34186494D01*
X30707493Y-33270622D02*
X31084616Y-33647746D01*
X30357306Y-33189810D02*
X30626680Y-33728558D01*
X30626680Y-33728558D02*
X30976867Y-33378372D01*
X28944998Y-62395868D02*
X28864185Y-62422805D01*
X28864185Y-62422805D02*
X28783373Y-62503618D01*
X28783373Y-62503618D02*
X28729498Y-62611367D01*
X28729498Y-62611367D02*
X28729498Y-62719117D01*
X28729498Y-62719117D02*
X28756436Y-62799929D01*
X28756436Y-62799929D02*
X28837248Y-62934616D01*
X28837248Y-62934616D02*
X28918060Y-63015428D01*
X28918060Y-63015428D02*
X29052747Y-63096241D01*
X29052747Y-63096241D02*
X29133560Y-63123178D01*
X29133560Y-63123178D02*
X29241309Y-63123178D01*
X29241309Y-63123178D02*
X29349059Y-63069303D01*
X29349059Y-63069303D02*
X29402934Y-63015428D01*
X29402934Y-63015428D02*
X29456808Y-62907679D01*
X29456808Y-62907679D02*
X29456808Y-62853804D01*
X29456808Y-62853804D02*
X29268247Y-62665242D01*
X29268247Y-62665242D02*
X29160497Y-62772992D01*
X29753120Y-62665242D02*
X29187434Y-62099557D01*
X29187434Y-62099557D02*
X29402934Y-61884057D01*
X29402934Y-61884057D02*
X29483746Y-61857120D01*
X29483746Y-61857120D02*
X29537621Y-61857120D01*
X29537621Y-61857120D02*
X29618433Y-61884057D01*
X29618433Y-61884057D02*
X29699245Y-61964870D01*
X29699245Y-61964870D02*
X29726182Y-62045682D01*
X29726182Y-62045682D02*
X29726182Y-62099557D01*
X29726182Y-62099557D02*
X29699245Y-62180369D01*
X29699245Y-62180369D02*
X29483746Y-62395868D01*
X30615117Y-61803245D02*
X30291868Y-62126494D01*
X30453492Y-61964870D02*
X29887807Y-61399184D01*
X29887807Y-61399184D02*
X29914744Y-61533871D01*
X29914744Y-61533871D02*
X29914744Y-61641621D01*
X29914744Y-61641621D02*
X29887807Y-61722433D01*
X30237993Y-61048998D02*
X30588179Y-60698812D01*
X30588179Y-60698812D02*
X30615117Y-61102873D01*
X30615117Y-61102873D02*
X30695929Y-61022060D01*
X30695929Y-61022060D02*
X30776741Y-60995123D01*
X30776741Y-60995123D02*
X30830616Y-60995123D01*
X30830616Y-60995123D02*
X30911428Y-61022060D01*
X30911428Y-61022060D02*
X31046115Y-61156747D01*
X31046115Y-61156747D02*
X31073053Y-61237560D01*
X31073053Y-61237560D02*
X31073053Y-61291434D01*
X31073053Y-61291434D02*
X31046115Y-61372247D01*
X31046115Y-61372247D02*
X30884491Y-61533871D01*
X30884491Y-61533871D02*
X30803679Y-61560808D01*
X30803679Y-61560808D02*
X30749804Y-61560808D01*
X55041435Y-64693431D02*
X54960623Y-64720368D01*
X54960623Y-64720368D02*
X54879811Y-64801180D01*
X54879811Y-64801180D02*
X54825936Y-64908930D01*
X54825936Y-64908930D02*
X54825936Y-65016680D01*
X54825936Y-65016680D02*
X54852873Y-65097492D01*
X54852873Y-65097492D02*
X54933685Y-65232179D01*
X54933685Y-65232179D02*
X55014498Y-65312991D01*
X55014498Y-65312991D02*
X55149185Y-65393803D01*
X55149185Y-65393803D02*
X55229997Y-65420741D01*
X55229997Y-65420741D02*
X55337746Y-65420741D01*
X55337746Y-65420741D02*
X55445496Y-65366866D01*
X55445496Y-65366866D02*
X55499371Y-65312991D01*
X55499371Y-65312991D02*
X55553246Y-65205241D01*
X55553246Y-65205241D02*
X55553246Y-65151367D01*
X55553246Y-65151367D02*
X55364684Y-64962805D01*
X55364684Y-64962805D02*
X55256934Y-65070554D01*
X55849557Y-64962805D02*
X55283872Y-64397119D01*
X55283872Y-64397119D02*
X56172806Y-64639556D01*
X56172806Y-64639556D02*
X55607120Y-64073871D01*
X56442180Y-64370182D02*
X55876494Y-63804497D01*
X55876494Y-63804497D02*
X56011181Y-63669810D01*
X56011181Y-63669810D02*
X56118931Y-63615935D01*
X56118931Y-63615935D02*
X56226680Y-63615935D01*
X56226680Y-63615935D02*
X56307493Y-63642872D01*
X56307493Y-63642872D02*
X56442180Y-63723685D01*
X56442180Y-63723685D02*
X56522992Y-63804497D01*
X56522992Y-63804497D02*
X56603804Y-63939184D01*
X56603804Y-63939184D02*
X56630741Y-64019996D01*
X56630741Y-64019996D02*
X56630741Y-64127746D01*
X56630741Y-64127746D02*
X56576867Y-64235495D01*
X56576867Y-64235495D02*
X56442180Y-64370182D01*
X55106873Y-40236240D02*
X55376247Y-39966866D01*
X55214623Y-40451739D02*
X54837499Y-39697492D01*
X54837499Y-39697492D02*
X55591746Y-40074615D01*
X55537871Y-39050994D02*
X55457059Y-39077932D01*
X55457059Y-39077932D02*
X55376247Y-39158744D01*
X55376247Y-39158744D02*
X55322372Y-39266494D01*
X55322372Y-39266494D02*
X55322372Y-39374243D01*
X55322372Y-39374243D02*
X55349310Y-39455055D01*
X55349310Y-39455055D02*
X55430122Y-39589742D01*
X55430122Y-39589742D02*
X55510934Y-39670555D01*
X55510934Y-39670555D02*
X55645621Y-39751367D01*
X55645621Y-39751367D02*
X55726433Y-39778304D01*
X55726433Y-39778304D02*
X55834183Y-39778304D01*
X55834183Y-39778304D02*
X55941932Y-39724429D01*
X55941932Y-39724429D02*
X55995807Y-39670555D01*
X55995807Y-39670555D02*
X56049682Y-39562805D01*
X56049682Y-39562805D02*
X56049682Y-39508930D01*
X56049682Y-39508930D02*
X55861120Y-39320368D01*
X55861120Y-39320368D02*
X55753371Y-39428118D01*
X56345993Y-39320368D02*
X55780308Y-38754683D01*
X55780308Y-38754683D02*
X56669242Y-38997120D01*
X56669242Y-38997120D02*
X56103557Y-38431434D01*
X56938616Y-38727746D02*
X56372931Y-38162060D01*
X56372931Y-38162060D02*
X56507618Y-38027373D01*
X56507618Y-38027373D02*
X56615367Y-37973498D01*
X56615367Y-37973498D02*
X56723117Y-37973498D01*
X56723117Y-37973498D02*
X56803929Y-38000436D01*
X56803929Y-38000436D02*
X56938616Y-38081248D01*
X56938616Y-38081248D02*
X57019428Y-38162060D01*
X57019428Y-38162060D02*
X57100241Y-38296747D01*
X57100241Y-38296747D02*
X57127178Y-38377560D01*
X57127178Y-38377560D02*
X57127178Y-38485309D01*
X57127178Y-38485309D02*
X57073303Y-38593059D01*
X57073303Y-38593059D02*
X56938616Y-38727746D01*
X28798998Y-57315868D02*
X28718185Y-57342805D01*
X28718185Y-57342805D02*
X28637373Y-57423618D01*
X28637373Y-57423618D02*
X28583498Y-57531367D01*
X28583498Y-57531367D02*
X28583498Y-57639117D01*
X28583498Y-57639117D02*
X28610436Y-57719929D01*
X28610436Y-57719929D02*
X28691248Y-57854616D01*
X28691248Y-57854616D02*
X28772060Y-57935428D01*
X28772060Y-57935428D02*
X28906747Y-58016241D01*
X28906747Y-58016241D02*
X28987560Y-58043178D01*
X28987560Y-58043178D02*
X29095309Y-58043178D01*
X29095309Y-58043178D02*
X29203059Y-57989303D01*
X29203059Y-57989303D02*
X29256934Y-57935428D01*
X29256934Y-57935428D02*
X29310808Y-57827679D01*
X29310808Y-57827679D02*
X29310808Y-57773804D01*
X29310808Y-57773804D02*
X29122247Y-57585242D01*
X29122247Y-57585242D02*
X29014497Y-57692992D01*
X29607120Y-57585242D02*
X29041434Y-57019557D01*
X29041434Y-57019557D02*
X29256934Y-56804057D01*
X29256934Y-56804057D02*
X29337746Y-56777120D01*
X29337746Y-56777120D02*
X29391621Y-56777120D01*
X29391621Y-56777120D02*
X29472433Y-56804057D01*
X29472433Y-56804057D02*
X29553245Y-56884870D01*
X29553245Y-56884870D02*
X29580182Y-56965682D01*
X29580182Y-56965682D02*
X29580182Y-57019557D01*
X29580182Y-57019557D02*
X29553245Y-57100369D01*
X29553245Y-57100369D02*
X29337746Y-57315868D01*
X30469117Y-56723245D02*
X30145868Y-57046494D01*
X30307492Y-56884870D02*
X29741807Y-56319184D01*
X29741807Y-56319184D02*
X29768744Y-56453871D01*
X29768744Y-56453871D02*
X29768744Y-56561621D01*
X29768744Y-56561621D02*
X29741807Y-56642433D01*
X31007865Y-56184497D02*
X30684616Y-56507746D01*
X30846240Y-56346121D02*
X30280555Y-55780436D01*
X30280555Y-55780436D02*
X30307492Y-55915123D01*
X30307492Y-55915123D02*
X30307492Y-56022873D01*
X30307492Y-56022873D02*
X30280555Y-56103685D01*
D11*
%TO.C,U2*%
X41685000Y-77225000D02*
X43635000Y-77225000D01*
X41685000Y-82345000D02*
X43635000Y-82345000D01*
X41685000Y-77225000D02*
X38235000Y-77225000D01*
X41685000Y-82345000D02*
X39735000Y-82345000D01*
%TO.C,U1*%
X53455000Y-60595000D02*
X53455000Y-60995000D01*
X32455000Y-27495000D02*
X32455000Y-27895000D01*
X53455000Y-19995000D02*
X53455000Y-20295000D01*
X32455000Y-47795000D02*
X32455000Y-48195000D01*
X53455000Y-27495000D02*
X53455000Y-27895000D01*
X53455000Y-57995000D02*
X53455000Y-58395000D01*
X53455000Y-65595000D02*
X53455000Y-65995000D01*
X32455000Y-19995000D02*
X32455000Y-20295000D01*
X53455000Y-37695000D02*
X53455000Y-38095000D01*
X53455000Y-63095000D02*
X53455000Y-63495000D01*
X53455000Y-35095000D02*
X53455000Y-35495000D01*
X53455000Y-52895000D02*
X53455000Y-53295000D01*
X32455000Y-57995000D02*
X32455000Y-58395000D01*
X32455000Y-63095000D02*
X32455000Y-63495000D01*
X32455000Y-45295000D02*
X32455000Y-45695000D01*
X32455000Y-35095000D02*
X32455000Y-35495000D01*
X53455000Y-47795000D02*
X53455000Y-48195000D01*
X32455000Y-55495000D02*
X32455000Y-55895000D01*
X53455000Y-32595000D02*
X53455000Y-32995000D01*
X44055000Y-70995000D02*
X44455000Y-70995000D01*
X32455000Y-60595000D02*
X32455000Y-60995000D01*
X53455000Y-24995000D02*
X53455000Y-25395000D01*
X32455000Y-32595000D02*
X32455000Y-32995000D01*
X41455000Y-70995000D02*
X41855000Y-70995000D01*
X32455000Y-50395000D02*
X32455000Y-50795000D01*
X32455000Y-37695000D02*
X32455000Y-38095000D01*
X32455000Y-22662000D02*
X35462000Y-22662000D01*
X32455000Y-52895000D02*
X32455000Y-53295000D01*
X53455000Y-30095000D02*
X53455000Y-30495000D01*
X53455000Y-70995000D02*
X46655000Y-70995000D01*
X53455000Y-42795000D02*
X53455000Y-43195000D01*
X32455000Y-40195000D02*
X32455000Y-40595000D01*
X32455000Y-30095000D02*
X32455000Y-30495000D01*
X32455000Y-68195000D02*
X32455000Y-68595000D01*
X32455000Y-42795000D02*
X32455000Y-43195000D01*
X32455000Y-65595000D02*
X32455000Y-65995000D01*
X32455000Y-19995000D02*
X53455000Y-19995000D01*
X53455000Y-40195000D02*
X53455000Y-40595000D01*
X35462000Y-22662000D02*
X35462000Y-19995000D01*
X53455000Y-22395000D02*
X53455000Y-22795000D01*
X53455000Y-68195000D02*
X53455000Y-68595000D01*
X53455000Y-45295000D02*
X53455000Y-45695000D01*
X39255000Y-70995000D02*
X32455000Y-70995000D01*
X53455000Y-55495000D02*
X53455000Y-55895000D01*
X32455000Y-24995000D02*
X32455000Y-25395000D01*
X32455000Y-22395000D02*
X32455000Y-22795000D01*
X53455000Y-50395000D02*
X53455000Y-50795000D01*
%TD*%
M02*
