M48
INCH,TZ
T1C0.0118
T2C0.0307
T3C0.0315
T4C0.0343
T5C0.0394
%
G90
G05
T1
X38386Y-25591
X38780Y-26969
X40748Y-25197
X40748Y-25591
X40748Y-28543
X40748Y-31496
X41535Y-19488
X41535Y-20669
X41535Y-28543
X41535Y-31496
X41732Y-25197
X41732Y-25591
X42126Y-19488
X42323Y-23819
X43110Y-20276
X43110Y-23819
X43504Y-31890
X43504Y-33465
X43898Y-31496
X43898Y-33465
X44094Y-22047
X45472Y-27756
X45866Y-29331
X46260Y-34449
X46654Y-28543
X48031Y-14764
X52756Y-22244
X53150Y-23622
T2
X39423Y-26528
X39423Y-27528
X39423Y-28528
X39423Y-29528
X39423Y-30528
X39423Y-31528
X39423Y-32528
X39423Y-33528
X39591Y-16110
X39591Y-17110
X39591Y-18110
X39591Y-19110
X39591Y-20110
X39591Y-21110
X39591Y-22110
X39591Y-23110
X42549Y-26528
X42549Y-27528
X42549Y-28528
X42549Y-29528
X42549Y-30528
X42549Y-31528
X42549Y-32528
X42549Y-33528
X42717Y-16110
X42717Y-17110
X42717Y-18110
X42717Y-19110
X42717Y-20110
X42717Y-21110
X42717Y-22110
X42717Y-23110
T3
X47593Y-30394
X47593Y-33394
X48593Y-30394
X48593Y-33394
X49593Y-30394
X49593Y-33394
X50593Y-30394
X50593Y-33394
X51593Y-30394
X51593Y-33394
X52593Y-30394
X52593Y-33394
X53593Y-30394
X53593Y-33394
T4
X47528Y-15154
X47528Y-16154
X47528Y-17154
X47528Y-18154
X47528Y-19154
X47528Y-20154
X47528Y-21154
X47528Y-22154
X47528Y-23154
X47528Y-24154
X47528Y-25154
X47528Y-26154
X47528Y-27154
X47528Y-28154
X53653Y-15154
X53653Y-16154
X53653Y-17154
X53653Y-18154
X53653Y-19154
X53653Y-20154
X53653Y-21154
X53653Y-22154
X53653Y-23154
X53653Y-24154
X53653Y-25154
X53653Y-26154
X53653Y-27154
X53653Y-28154
T5
X33395Y-20810
X33395Y-21810
X33395Y-22810
X33395Y-23810
X33395Y-24810
X33395Y-25810
X33395Y-26810
X33395Y-27810
X34395Y-20810
X34395Y-21810
X34395Y-22810
X34395Y-23810
X34395Y-24810
X34395Y-25810
X34395Y-26810
X34395Y-27810
X37681Y-15378
X37681Y-16378
X37681Y-17378
X37681Y-18378
X37681Y-19378
X37681Y-20378
X37681Y-21378
X37681Y-22378
X37681Y-23378
X37681Y-24378
X37681Y-25378
X37681Y-26378
X37681Y-27378
X37681Y-28378
X37681Y-29378
X37681Y-31378
X37681Y-32378
X37681Y-33378
X37681Y-34378
X37698Y-30378
X44681Y-15378
X44681Y-16378
X44681Y-17378
X44681Y-18378
X44681Y-19378
X44681Y-20378
X44681Y-21378
X44681Y-22378
X44681Y-23378
X44681Y-24378
X44681Y-25378
X44681Y-26378
X44681Y-27378
X44681Y-28378
X44681Y-29378
X44681Y-30378
X44681Y-31378
X44681Y-32378
X44681Y-33378
X44681Y-34378
M30
