G04 #@! TF.GenerationSoftware,KiCad,Pcbnew,8.0.0*
G04 #@! TF.CreationDate,2024-03-16T14:28:59-05:00*
G04 #@! TF.ProjectId,SensorModuleBase,53656e73-6f72-44d6-9f64-756c65426173,rev?*
G04 #@! TF.SameCoordinates,Original*
G04 #@! TF.FileFunction,Copper,L1,Top*
G04 #@! TF.FilePolarity,Positive*
%FSLAX46Y46*%
G04 Gerber Fmt 4.6, Leading zero omitted, Abs format (unit mm)*
G04 Created by KiCad (PCBNEW 8.0.0) date 2024-03-16 14:28:59*
%MOMM*%
%LPD*%
G01*
G04 APERTURE LIST*
G04 Aperture macros list*
%AMRoundRect*
0 Rectangle with rounded corners*
0 $1 Rounding radius*
0 $2 $3 $4 $5 $6 $7 $8 $9 X,Y pos of 4 corners*
0 Add a 4 corners polygon primitive as box body*
4,1,4,$2,$3,$4,$5,$6,$7,$8,$9,$2,$3,0*
0 Add four circle primitives for the rounded corners*
1,1,$1+$1,$2,$3*
1,1,$1+$1,$4,$5*
1,1,$1+$1,$6,$7*
1,1,$1+$1,$8,$9*
0 Add four rect primitives between the rounded corners*
20,1,$1+$1,$2,$3,$4,$5,0*
20,1,$1+$1,$4,$5,$6,$7,0*
20,1,$1+$1,$6,$7,$8,$9,0*
20,1,$1+$1,$8,$9,$2,$3,0*%
G04 Aperture macros list end*
G04 #@! TA.AperFunction,ComponentPad*
%ADD10R,1.130000X1.130000*%
G04 #@! TD*
G04 #@! TA.AperFunction,ComponentPad*
%ADD11C,1.130000*%
G04 #@! TD*
G04 #@! TA.AperFunction,ComponentPad*
%ADD12R,1.600000X1.600000*%
G04 #@! TD*
G04 #@! TA.AperFunction,ComponentPad*
%ADD13O,1.600000X1.600000*%
G04 #@! TD*
G04 #@! TA.AperFunction,ComponentPad*
%ADD14C,1.378000*%
G04 #@! TD*
G04 #@! TA.AperFunction,ComponentPad*
%ADD15R,1.378000X1.378000*%
G04 #@! TD*
G04 #@! TA.AperFunction,ComponentPad*
%ADD16RoundRect,0.250000X0.600000X0.600000X-0.600000X0.600000X-0.600000X-0.600000X0.600000X-0.600000X0*%
G04 #@! TD*
G04 #@! TA.AperFunction,ComponentPad*
%ADD17C,1.700000*%
G04 #@! TD*
G04 #@! TA.AperFunction,ComponentPad*
%ADD18C,1.600000*%
G04 #@! TD*
G04 #@! TA.AperFunction,ComponentPad*
%ADD19RoundRect,0.200000X-0.600000X-0.600000X0.600000X-0.600000X0.600000X0.600000X-0.600000X0.600000X0*%
G04 #@! TD*
G04 #@! TA.AperFunction,ViaPad*
%ADD20C,0.600000*%
G04 #@! TD*
G04 #@! TA.AperFunction,Conductor*
%ADD21C,0.200000*%
G04 #@! TD*
G04 APERTURE END LIST*
D10*
G04 #@! TO.P,U4,1,QB*
G04 #@! TO.N,Net-(U1-A9)*
X108075000Y-67380000D03*
D11*
G04 #@! TO.P,U4,2,QC*
G04 #@! TO.N,Net-(U1-A10)*
X108075000Y-69920000D03*
G04 #@! TO.P,U4,3,QD*
G04 #@! TO.N,Net-(U1-A11)*
X108075000Y-72460000D03*
G04 #@! TO.P,U4,4,QE*
G04 #@! TO.N,Net-(U1-A12)*
X108075000Y-75000000D03*
G04 #@! TO.P,U4,5,QF*
G04 #@! TO.N,unconnected-(U4-QF-Pad5)*
X108075000Y-77540000D03*
G04 #@! TO.P,U4,6,QG*
G04 #@! TO.N,unconnected-(U4-QG-Pad6)*
X108075000Y-80080000D03*
G04 #@! TO.P,U4,7,QH*
G04 #@! TO.N,unconnected-(U4-QH-Pad7)*
X108075000Y-82620000D03*
G04 #@! TO.P,U4,8,GND*
G04 #@! TO.N,Net-(J1-Pin_15)*
X108075000Y-85160000D03*
G04 #@! TO.P,U4,9,QH'*
G04 #@! TO.N,unconnected-(U4-QH'-Pad9)*
X100135000Y-85160000D03*
G04 #@! TO.P,U4,10,~{SRCLR}*
G04 #@! TO.N,Net-(A1-VSYS)*
X100135000Y-82620000D03*
G04 #@! TO.P,U4,11,SRCLK*
G04 #@! TO.N,Net-(A1-GP9)*
X100135000Y-80080000D03*
G04 #@! TO.P,U4,12,RCLK*
G04 #@! TO.N,Net-(A1-GP8)*
X100135000Y-77540000D03*
G04 #@! TO.P,U4,13,~{OE}*
G04 #@! TO.N,Net-(J1-Pin_15)*
X100135000Y-75000000D03*
G04 #@! TO.P,U4,14,SER*
G04 #@! TO.N,Net-(U3-QH')*
X100135000Y-72460000D03*
G04 #@! TO.P,U4,15,QA*
G04 #@! TO.N,Net-(U1-A8)*
X100135000Y-69920000D03*
G04 #@! TO.P,U4,16,VCC*
G04 #@! TO.N,Net-(A1-VSYS)*
X100135000Y-67380000D03*
G04 #@! TD*
D10*
G04 #@! TO.P,U3,1,QB*
G04 #@! TO.N,Net-(U1-A1)*
X100560000Y-58700000D03*
D11*
G04 #@! TO.P,U3,2,QC*
G04 #@! TO.N,Net-(U1-A2)*
X100560000Y-56160000D03*
G04 #@! TO.P,U3,3,QD*
G04 #@! TO.N,Net-(U1-A3)*
X100560000Y-53620000D03*
G04 #@! TO.P,U3,4,QE*
G04 #@! TO.N,Net-(U1-A4)*
X100560000Y-51080000D03*
G04 #@! TO.P,U3,5,QF*
G04 #@! TO.N,Net-(U1-A5)*
X100560000Y-48540000D03*
G04 #@! TO.P,U3,6,QG*
G04 #@! TO.N,Net-(U1-A6)*
X100560000Y-46000000D03*
G04 #@! TO.P,U3,7,QH*
G04 #@! TO.N,Net-(U1-A7)*
X100560000Y-43460000D03*
G04 #@! TO.P,U3,8,GND*
G04 #@! TO.N,Net-(J1-Pin_15)*
X100560000Y-40920000D03*
G04 #@! TO.P,U3,9,QH'*
G04 #@! TO.N,Net-(U3-QH')*
X108500000Y-40920000D03*
G04 #@! TO.P,U3,10,~{SRCLR}*
G04 #@! TO.N,Net-(A1-VSYS)*
X108500000Y-43460000D03*
G04 #@! TO.P,U3,11,SRCLK*
G04 #@! TO.N,Net-(A1-GP9)*
X108500000Y-46000000D03*
G04 #@! TO.P,U3,12,RCLK*
G04 #@! TO.N,Net-(A1-GP8)*
X108500000Y-48540000D03*
G04 #@! TO.P,U3,13,~{OE}*
G04 #@! TO.N,Net-(J1-Pin_15)*
X108500000Y-51080000D03*
G04 #@! TO.P,U3,14,SER*
G04 #@! TO.N,Net-(A1-GP10)*
X108500000Y-53620000D03*
G04 #@! TO.P,U3,15,QA*
G04 #@! TO.N,Net-(U1-A0)*
X108500000Y-56160000D03*
G04 #@! TO.P,U3,16,VCC*
G04 #@! TO.N,Net-(A1-VSYS)*
X108500000Y-58700000D03*
G04 #@! TD*
D12*
G04 #@! TO.P,U2,1*
G04 #@! TO.N,Net-(A1-GP11)*
X136125000Y-77200000D03*
D13*
G04 #@! TO.P,U2,2*
X133585000Y-77200000D03*
G04 #@! TO.P,U2,3*
G04 #@! TO.N,Net-(U1-~{OE})*
X131045000Y-77200000D03*
G04 #@! TO.P,U2,4*
G04 #@! TO.N,Net-(A1-GP12)*
X128505000Y-77200000D03*
G04 #@! TO.P,U2,5*
X125965000Y-77200000D03*
G04 #@! TO.P,U2,6*
G04 #@! TO.N,Net-(U1-~{WE})*
X123425000Y-77200000D03*
G04 #@! TO.P,U2,7*
G04 #@! TO.N,N/C*
X120885000Y-77200000D03*
G04 #@! TO.P,U2,8*
X120885000Y-84820000D03*
G04 #@! TO.P,U2,9*
X123425000Y-84820000D03*
G04 #@! TO.P,U2,10*
X125965000Y-84820000D03*
G04 #@! TO.P,U2,11*
X128505000Y-84820000D03*
G04 #@! TO.P,U2,12*
X131045000Y-84820000D03*
G04 #@! TO.P,U2,13*
X133585000Y-84820000D03*
G04 #@! TO.P,U2,14*
X136125000Y-84820000D03*
G04 #@! TD*
D14*
G04 #@! TO.P,U1,28,VCC*
G04 #@! TO.N,Net-(A1-VSYS)*
X136278750Y-38490000D03*
G04 #@! TO.P,U1,27,~{WE}*
G04 #@! TO.N,Net-(U1-~{WE})*
X136278750Y-41030000D03*
G04 #@! TO.P,U1,26*
G04 #@! TO.N,N/C*
X136278750Y-43570000D03*
G04 #@! TO.P,U1,25,A8*
G04 #@! TO.N,Net-(U1-A8)*
X136278750Y-46110000D03*
G04 #@! TO.P,U1,24,A9*
G04 #@! TO.N,Net-(U1-A9)*
X136278750Y-48650000D03*
G04 #@! TO.P,U1,23,A11*
G04 #@! TO.N,Net-(U1-A11)*
X136278750Y-51190000D03*
G04 #@! TO.P,U1,22,~{OE}*
G04 #@! TO.N,Net-(U1-~{OE})*
X136278750Y-53730000D03*
G04 #@! TO.P,U1,21,A10*
G04 #@! TO.N,Net-(U1-A10)*
X136278750Y-56270000D03*
G04 #@! TO.P,U1,20,~{CE}*
G04 #@! TO.N,Net-(J1-Pin_15)*
X136278750Y-58810000D03*
G04 #@! TO.P,U1,19,I/O7*
G04 #@! TO.N,unconnected-(U1-I{slash}O7-Pad19)*
X136278750Y-61350000D03*
G04 #@! TO.P,U1,18,I/O6*
G04 #@! TO.N,unconnected-(U1-I{slash}O6-Pad18)*
X136278750Y-63890000D03*
G04 #@! TO.P,U1,17,I/O5*
G04 #@! TO.N,unconnected-(U1-I{slash}O5-Pad17)*
X136278750Y-66430000D03*
G04 #@! TO.P,U1,16,I/O4*
G04 #@! TO.N,unconnected-(U1-I{slash}O4-Pad16)*
X136278750Y-68970000D03*
G04 #@! TO.P,U1,15,I/O3*
G04 #@! TO.N,unconnected-(U1-I{slash}O3-Pad15)*
X136278750Y-71510000D03*
G04 #@! TO.P,U1,14,GND*
G04 #@! TO.N,Net-(J1-Pin_15)*
X120721250Y-71510000D03*
G04 #@! TO.P,U1,13,I/O2*
G04 #@! TO.N,unconnected-(U1-I{slash}O2-Pad13)*
X120721250Y-68970000D03*
G04 #@! TO.P,U1,12,I/O1*
G04 #@! TO.N,unconnected-(U1-I{slash}O1-Pad12)*
X120721250Y-66430000D03*
G04 #@! TO.P,U1,11,I/O0*
G04 #@! TO.N,unconnected-(U1-I{slash}O0-Pad11)*
X120721250Y-63890000D03*
G04 #@! TO.P,U1,10,A0*
G04 #@! TO.N,Net-(U1-A0)*
X120721250Y-61350000D03*
G04 #@! TO.P,U1,9,A1*
G04 #@! TO.N,Net-(U1-A1)*
X120721250Y-58810000D03*
G04 #@! TO.P,U1,8,A2*
G04 #@! TO.N,Net-(U1-A2)*
X120721250Y-56270000D03*
G04 #@! TO.P,U1,7,A3*
G04 #@! TO.N,Net-(U1-A3)*
X120721250Y-53730000D03*
G04 #@! TO.P,U1,6,A4*
G04 #@! TO.N,Net-(U1-A4)*
X120721250Y-51190000D03*
G04 #@! TO.P,U1,5,A5*
G04 #@! TO.N,Net-(U1-A5)*
X120721250Y-48650000D03*
G04 #@! TO.P,U1,4,A6*
G04 #@! TO.N,Net-(U1-A6)*
X120721250Y-46110000D03*
G04 #@! TO.P,U1,3,A7*
G04 #@! TO.N,Net-(U1-A7)*
X120721250Y-43570000D03*
G04 #@! TO.P,U1,2,A12*
G04 #@! TO.N,Net-(U1-A12)*
X120721250Y-41030000D03*
D15*
G04 #@! TO.P,U1,1*
G04 #@! TO.N,N/C*
X120721250Y-38490000D03*
G04 #@! TD*
D16*
G04 #@! TO.P,J1,1,Pin_1*
G04 #@! TO.N,Net-(A1-GP13)*
X87362500Y-70637500D03*
D17*
G04 #@! TO.P,J1,2,Pin_2*
G04 #@! TO.N,Net-(A1-GP14)*
X84822500Y-70637500D03*
G04 #@! TO.P,J1,3,Pin_3*
G04 #@! TO.N,Net-(A1-GP15)*
X87362500Y-68097500D03*
G04 #@! TO.P,J1,4,Pin_4*
G04 #@! TO.N,Net-(A1-GP16)*
X84822500Y-68097500D03*
G04 #@! TO.P,J1,5,Pin_5*
G04 #@! TO.N,Net-(A1-GP17)*
X87362500Y-65557500D03*
G04 #@! TO.P,J1,6,Pin_6*
G04 #@! TO.N,Net-(A1-GP18)*
X84822500Y-65557500D03*
G04 #@! TO.P,J1,7,Pin_7*
G04 #@! TO.N,Net-(A1-GP19)*
X87362500Y-63017500D03*
G04 #@! TO.P,J1,8,Pin_8*
G04 #@! TO.N,Net-(A1-GP20)*
X84822500Y-63017500D03*
G04 #@! TO.P,J1,9,Pin_9*
G04 #@! TO.N,Net-(A1-GP21)*
X87362500Y-60477500D03*
G04 #@! TO.P,J1,10,Pin_10*
G04 #@! TO.N,Net-(A1-GP22)*
X84822500Y-60477500D03*
G04 #@! TO.P,J1,11,Pin_11*
G04 #@! TO.N,Net-(A1-GP26)*
X87362500Y-57937500D03*
G04 #@! TO.P,J1,12,Pin_12*
G04 #@! TO.N,Net-(A1-GP27)*
X84822500Y-57937500D03*
G04 #@! TO.P,J1,13,Pin_13*
G04 #@! TO.N,Net-(A1-GP28)*
X87362500Y-55397500D03*
G04 #@! TO.P,J1,14,Pin_14*
G04 #@! TO.N,Net-(A1-VBUS)*
X84822500Y-55397500D03*
G04 #@! TO.P,J1,15,Pin_15*
G04 #@! TO.N,Net-(J1-Pin_15)*
X87362500Y-52857500D03*
G04 #@! TO.P,J1,16,Pin_16*
G04 #@! TO.N,Net-(A1-VSYS)*
X84822500Y-52857500D03*
G04 #@! TD*
D18*
G04 #@! TO.P,A1,1,GP0*
G04 #@! TO.N,unconnected-(A1-GP0-Pad1)*
X95710000Y-39060000D03*
G04 #@! TO.P,A1,2,GP1*
G04 #@! TO.N,unconnected-(A1-GP1-Pad2)*
X95710000Y-41600000D03*
D19*
G04 #@! TO.P,A1,3,GND*
G04 #@! TO.N,unconnected-(A1-GND-Pad3)*
X95710000Y-44140000D03*
D18*
G04 #@! TO.P,A1,4,GP2*
G04 #@! TO.N,unconnected-(A1-GP2-Pad4)*
X95710000Y-46680000D03*
G04 #@! TO.P,A1,5,GP3*
G04 #@! TO.N,unconnected-(A1-GP3-Pad5)*
X95710000Y-49220000D03*
G04 #@! TO.P,A1,6,GP4*
G04 #@! TO.N,unconnected-(A1-GP4-Pad6)*
X95710000Y-51760000D03*
G04 #@! TO.P,A1,7,GP5*
G04 #@! TO.N,unconnected-(A1-GP5-Pad7)*
X95710000Y-54300000D03*
D19*
G04 #@! TO.P,A1,8,GND*
G04 #@! TO.N,unconnected-(A1-GND-Pad8)*
X95710000Y-56840000D03*
D18*
G04 #@! TO.P,A1,9,GP6*
G04 #@! TO.N,unconnected-(A1-GP6-Pad9)*
X95710000Y-59380000D03*
G04 #@! TO.P,A1,10,GP7*
G04 #@! TO.N,unconnected-(A1-GP7-Pad10)*
X95710000Y-61920000D03*
G04 #@! TO.P,A1,11,GP8*
G04 #@! TO.N,Net-(A1-GP8)*
X95710000Y-64460000D03*
G04 #@! TO.P,A1,12,GP9*
G04 #@! TO.N,Net-(A1-GP9)*
X95710000Y-67000000D03*
D19*
G04 #@! TO.P,A1,13,GND*
G04 #@! TO.N,unconnected-(A1-GND-Pad13)*
X95710000Y-69540000D03*
D18*
G04 #@! TO.P,A1,14,GP10*
G04 #@! TO.N,Net-(A1-GP10)*
X95710000Y-72080000D03*
G04 #@! TO.P,A1,15,GP11*
G04 #@! TO.N,Net-(A1-GP11)*
X95710000Y-74620000D03*
G04 #@! TO.P,A1,16,GP12*
G04 #@! TO.N,Net-(A1-GP12)*
X95751881Y-77160000D03*
G04 #@! TO.P,A1,17,GP13*
G04 #@! TO.N,Net-(A1-GP13)*
X95710000Y-79700000D03*
D19*
G04 #@! TO.P,A1,18,GND*
G04 #@! TO.N,unconnected-(A1-GND-Pad18)*
X95710000Y-82240000D03*
D18*
G04 #@! TO.P,A1,19,GP14*
G04 #@! TO.N,Net-(A1-GP14)*
X95710000Y-84780000D03*
G04 #@! TO.P,A1,20,GP15*
G04 #@! TO.N,Net-(A1-GP15)*
X95710000Y-87320000D03*
G04 #@! TO.P,A1,21,GP16*
G04 #@! TO.N,Net-(A1-GP16)*
X113490000Y-87320000D03*
G04 #@! TO.P,A1,22,GP17*
G04 #@! TO.N,Net-(A1-GP17)*
X113490000Y-84780000D03*
D19*
G04 #@! TO.P,A1,23,GND*
G04 #@! TO.N,unconnected-(A1-GND-Pad23)*
X113490000Y-82240000D03*
D18*
G04 #@! TO.P,A1,24,GP18*
G04 #@! TO.N,Net-(A1-GP18)*
X113490000Y-79700000D03*
G04 #@! TO.P,A1,25,GP19*
G04 #@! TO.N,Net-(A1-GP19)*
X113490000Y-77160000D03*
G04 #@! TO.P,A1,26,GP20*
G04 #@! TO.N,Net-(A1-GP20)*
X113490000Y-74620000D03*
G04 #@! TO.P,A1,27,GP21*
G04 #@! TO.N,Net-(A1-GP21)*
X113490000Y-72080000D03*
D19*
G04 #@! TO.P,A1,28,GND*
G04 #@! TO.N,unconnected-(A1-GND-Pad28)*
X113490000Y-69540000D03*
D18*
G04 #@! TO.P,A1,29,GP22*
G04 #@! TO.N,Net-(A1-GP22)*
X113490000Y-67000000D03*
G04 #@! TO.P,A1,30,RUN*
G04 #@! TO.N,unconnected-(A1-RUN-Pad30)*
X113490000Y-64460000D03*
G04 #@! TO.P,A1,31,GP26*
G04 #@! TO.N,Net-(A1-GP26)*
X113490000Y-61920000D03*
G04 #@! TO.P,A1,32,GP27*
G04 #@! TO.N,Net-(A1-GP27)*
X113490000Y-59380000D03*
D19*
G04 #@! TO.P,A1,33,AGND*
G04 #@! TO.N,unconnected-(A1-AGND-Pad33)*
X113490000Y-56840000D03*
D18*
G04 #@! TO.P,A1,34,GP28*
G04 #@! TO.N,Net-(A1-GP28)*
X113490000Y-54300000D03*
G04 #@! TO.P,A1,35,ADC_VREF*
G04 #@! TO.N,unconnected-(A1-ADC_VREF-Pad35)*
X113490000Y-51760000D03*
G04 #@! TO.P,A1,36,3V3_OUT*
G04 #@! TO.N,unconnected-(A1-3V3_OUT-Pad36)*
X113490000Y-49220000D03*
G04 #@! TO.P,A1,37,3V3_EN*
G04 #@! TO.N,unconnected-(A1-3V3_EN-Pad37)*
X113490000Y-46680000D03*
D19*
G04 #@! TO.P,A1,38,GND*
G04 #@! TO.N,Net-(J1-Pin_15)*
X113490000Y-44140000D03*
D18*
G04 #@! TO.P,A1,39,VSYS*
G04 #@! TO.N,Net-(A1-VSYS)*
X113490000Y-41600000D03*
G04 #@! TO.P,A1,40,VBUS*
G04 #@! TO.N,Net-(A1-VBUS)*
X113490000Y-39060000D03*
G04 #@! TD*
D20*
G04 #@! TO.N,Net-(A1-GP27)*
X117500000Y-87500000D03*
X98500000Y-68500000D03*
G04 #@! TO.N,Net-(A1-GP22)*
X111500000Y-80000000D03*
G04 #@! TO.N,Net-(A1-GP26)*
X110500000Y-81000000D03*
X110500000Y-85000000D03*
G04 #@! TO.N,Net-(A1-GP22)*
X111500000Y-85000000D03*
G04 #@! TO.N,Net-(A1-GP21)*
X118500000Y-72500000D03*
X116500000Y-74500000D03*
G04 #@! TO.N,Net-(A1-GP28)*
X122000000Y-37500000D03*
G04 #@! TO.N,Net-(U1-~{OE})*
X135000000Y-60000000D03*
G04 #@! TO.N,Net-(U1-~{WE})*
X134000000Y-56500000D03*
G04 #@! TO.N,Net-(U1-A8)*
X109500000Y-60500000D03*
X107500000Y-60500000D03*
G04 #@! TO.N,Net-(U1-A10)*
X115500000Y-70500000D03*
G04 #@! TO.N,Net-(U1-A0)*
X112000000Y-56000000D03*
G04 #@! TO.N,Net-(A1-VSYS)*
X107000000Y-49500000D03*
X109500000Y-51500000D03*
G04 #@! TO.N,Net-(U3-QH')*
X105500000Y-49500000D03*
X105500000Y-52500000D03*
X105500000Y-72500000D03*
X103500000Y-72500000D03*
G04 #@! TO.N,Net-(A1-GP10)*
X106000000Y-64000000D03*
X103500000Y-64000000D03*
X97500000Y-65000000D03*
G04 #@! TO.N,Net-(A1-GP9)*
X105500000Y-80000000D03*
X103500000Y-80000000D03*
G04 #@! TO.N,Net-(A1-GP8)*
X106000000Y-65000000D03*
X103500000Y-65000000D03*
G04 #@! TD*
D21*
G04 #@! TO.N,Net-(A1-GP27)*
X116449000Y-62339000D02*
X113490000Y-59380000D01*
X121130908Y-62339000D02*
X116449000Y-62339000D01*
X121710250Y-61759658D02*
X121130908Y-62339000D01*
X135869092Y-40041000D02*
X121710250Y-54199842D01*
X136688408Y-40041000D02*
X135869092Y-40041000D01*
X121710250Y-54199842D02*
X121710250Y-61759658D01*
X137267750Y-59219658D02*
X137267750Y-40620342D01*
X136688408Y-59799000D02*
X137267750Y-59219658D01*
X135869092Y-59799000D02*
X136688408Y-59799000D01*
X135289750Y-59219658D02*
X135869092Y-59799000D01*
X137267750Y-40620342D02*
X136688408Y-40041000D01*
X134410250Y-59219658D02*
X135289750Y-59219658D01*
X117500000Y-76129908D02*
X134410250Y-59219658D01*
X117500000Y-87500000D02*
X117500000Y-76129908D01*
X98500000Y-68234365D02*
X98500000Y-68500000D01*
X96165635Y-65900000D02*
X98500000Y-68234365D01*
X91332843Y-65900000D02*
X96165635Y-65900000D01*
X90932843Y-65500000D02*
X91332843Y-65900000D01*
X90932843Y-59881497D02*
X90932843Y-65500000D01*
X87838846Y-56787500D02*
X90932843Y-59881497D01*
X86886154Y-56787500D02*
X87838846Y-56787500D01*
X85736154Y-57937500D02*
X86886154Y-56787500D01*
X84822500Y-57937500D02*
X85736154Y-57937500D01*
G04 #@! TO.N,Net-(A1-GP26)*
X110500000Y-64910000D02*
X113490000Y-61920000D01*
X110500000Y-81000000D02*
X110500000Y-64910000D01*
G04 #@! TO.N,Net-(A1-GP22)*
X111500000Y-68990000D02*
X113490000Y-67000000D01*
X111500000Y-80000000D02*
X111500000Y-68990000D01*
G04 #@! TO.N,Net-(A1-GP26)*
X110500000Y-87200000D02*
X110500000Y-85000000D01*
X110000000Y-87700000D02*
X110500000Y-87200000D01*
X98315686Y-86815686D02*
X99200000Y-87700000D01*
X91505686Y-68440000D02*
X96522648Y-68440000D01*
X90532843Y-67467157D02*
X91505686Y-68440000D01*
X99200000Y-87700000D02*
X110000000Y-87700000D01*
X90532843Y-61107843D02*
X90532843Y-67467157D01*
X87362500Y-57937500D02*
X90532843Y-61107843D01*
X96522648Y-68440000D02*
X98315686Y-70233038D01*
X98315686Y-70233038D02*
X98315686Y-86815686D01*
G04 #@! TO.N,Net-(U1-A12)*
X109500000Y-73575000D02*
X108075000Y-75000000D01*
X109500000Y-62631372D02*
X109500000Y-73575000D01*
X111400000Y-60731372D02*
X109500000Y-62631372D01*
X113631250Y-48120000D02*
X113034365Y-48120000D01*
X113034365Y-48120000D02*
X111400000Y-49754365D01*
X111400000Y-49754365D02*
X111400000Y-60731372D01*
X120721250Y-41030000D02*
X113631250Y-48120000D01*
G04 #@! TO.N,Net-(A1-GP22)*
X87838846Y-59327500D02*
X85972500Y-59327500D01*
X90000000Y-61488654D02*
X87838846Y-59327500D01*
X90000000Y-67500000D02*
X90000000Y-61488654D01*
X96165635Y-70980000D02*
X93480000Y-70980000D01*
X85972500Y-59327500D02*
X84822500Y-60477500D01*
X97532843Y-72347208D02*
X96165635Y-70980000D01*
X97532843Y-86967157D02*
X97532843Y-72347208D01*
X98665686Y-88100000D02*
X97532843Y-86967157D01*
X93480000Y-70980000D02*
X90000000Y-67500000D01*
X111500000Y-87600000D02*
X111000000Y-88100000D01*
X111500000Y-85000000D02*
X111500000Y-87600000D01*
X111000000Y-88100000D02*
X98665686Y-88100000D01*
G04 #@! TO.N,Net-(A1-GP21)*
X118000000Y-72500000D02*
X117580000Y-72080000D01*
X117580000Y-72080000D02*
X113490000Y-72080000D01*
X118500000Y-72500000D02*
X118000000Y-72500000D01*
X116500000Y-88500000D02*
X116500000Y-74500000D01*
X114200000Y-90800000D02*
X114500000Y-90500000D01*
X94537258Y-90800000D02*
X114200000Y-90800000D01*
X91100000Y-87362744D02*
X94537258Y-90800000D01*
X91100000Y-87000000D02*
X91100000Y-87362744D01*
X90434314Y-75065686D02*
X91100000Y-75731372D01*
X81672500Y-72238186D02*
X84500000Y-75065686D01*
X81672500Y-64541154D02*
X81672500Y-72238186D01*
X84346154Y-61867500D02*
X81672500Y-64541154D01*
X91100000Y-75731372D02*
X91100000Y-87000000D01*
X85972500Y-61867500D02*
X84346154Y-61867500D01*
X87362500Y-60477500D02*
X85972500Y-61867500D01*
X114500000Y-90500000D02*
X116500000Y-88500000D01*
X84500000Y-75065686D02*
X90434314Y-75065686D01*
G04 #@! TO.N,Net-(A1-GP20)*
X115370000Y-76500000D02*
X113490000Y-74620000D01*
X116000000Y-77000000D02*
X115500000Y-76500000D01*
X113731372Y-90400000D02*
X116000000Y-88131372D01*
X94702943Y-90400000D02*
X113731372Y-90400000D01*
X91500000Y-87197058D02*
X94702943Y-90400000D01*
X116000000Y-88131372D02*
X116000000Y-77000000D01*
X91500000Y-75565686D02*
X91500000Y-87197058D01*
X90434314Y-74500000D02*
X91500000Y-75565686D01*
X115500000Y-76500000D02*
X115370000Y-76500000D01*
X84500000Y-74500000D02*
X90434314Y-74500000D01*
X82072500Y-72072500D02*
X84500000Y-74500000D01*
X82072500Y-65767500D02*
X82072500Y-72072500D01*
X84822500Y-63017500D02*
X82072500Y-65767500D01*
G04 #@! TO.N,Net-(A1-GP19)*
X115500000Y-79170000D02*
X113490000Y-77160000D01*
X115500000Y-88065686D02*
X115500000Y-79170000D01*
X113565686Y-90000000D02*
X115500000Y-88065686D01*
X91900000Y-75400000D02*
X91900000Y-87031372D01*
X90500000Y-74000000D02*
X91900000Y-75400000D01*
X91900000Y-87031372D02*
X94868628Y-90000000D01*
X84861597Y-74000000D02*
X90500000Y-74000000D01*
X82472500Y-71610903D02*
X84861597Y-74000000D01*
X94868628Y-90000000D02*
X113565686Y-90000000D01*
X82472500Y-66281154D02*
X82472500Y-71610903D01*
X84586154Y-64167500D02*
X82472500Y-66281154D01*
X86212500Y-64167500D02*
X84586154Y-64167500D01*
X87362500Y-63017500D02*
X86212500Y-64167500D01*
G04 #@! TO.N,Net-(A1-GP18)*
X115000000Y-81210000D02*
X113490000Y-79700000D01*
X113500000Y-89500000D02*
X115000000Y-88000000D01*
X94934314Y-89500000D02*
X113500000Y-89500000D01*
X92300000Y-86865686D02*
X94934314Y-89500000D01*
X92300000Y-74931372D02*
X92300000Y-86865686D01*
X115000000Y-88000000D02*
X115000000Y-81210000D01*
X90868628Y-73500000D02*
X92300000Y-74931372D01*
X84927283Y-73500000D02*
X90868628Y-73500000D01*
X82872500Y-71445217D02*
X84927283Y-73500000D01*
X82872500Y-67507500D02*
X82872500Y-71445217D01*
X84822500Y-65557500D02*
X82872500Y-67507500D01*
G04 #@! TO.N,Net-(A1-GP17)*
X112000000Y-86270000D02*
X113490000Y-84780000D01*
X112000000Y-88000000D02*
X112000000Y-86270000D01*
X111500000Y-88500000D02*
X112000000Y-88000000D01*
X98500000Y-88500000D02*
X111500000Y-88500000D01*
X97000000Y-87000000D02*
X98500000Y-88500000D01*
X96147516Y-76000000D02*
X97000000Y-76852484D01*
X94500000Y-76000000D02*
X96147516Y-76000000D01*
X94500000Y-72934314D02*
X94500000Y-76000000D01*
X91565686Y-70000000D02*
X94500000Y-72934314D01*
X89500000Y-70000000D02*
X91565686Y-70000000D01*
X97000000Y-76852484D02*
X97000000Y-87000000D01*
X89500000Y-67695000D02*
X89500000Y-70000000D01*
X87362500Y-65557500D02*
X89500000Y-67695000D01*
G04 #@! TO.N,Net-(A1-GP16)*
X111810000Y-89000000D02*
X113490000Y-87320000D01*
X95000000Y-89000000D02*
X111810000Y-89000000D01*
X92700000Y-86700000D02*
X95000000Y-89000000D01*
X92700000Y-74765686D02*
X92700000Y-86700000D01*
X90967157Y-73032843D02*
X92700000Y-74765686D01*
X85025812Y-73032843D02*
X90967157Y-73032843D01*
X83272500Y-71279531D02*
X85025812Y-73032843D01*
X83272500Y-69647500D02*
X83272500Y-71279531D01*
X84822500Y-68097500D02*
X83272500Y-69647500D01*
G04 #@! TO.N,Net-(A1-GP15)*
X93100000Y-74600000D02*
X93100000Y-84710000D01*
X93100000Y-84710000D02*
X95710000Y-87320000D01*
X91000000Y-72500000D02*
X93100000Y-74600000D01*
X85058654Y-72500000D02*
X91000000Y-72500000D01*
X83672500Y-71113846D02*
X85058654Y-72500000D01*
X83672500Y-69827500D02*
X83672500Y-71113846D01*
X84012500Y-69487500D02*
X83672500Y-69827500D01*
X85972500Y-69487500D02*
X84012500Y-69487500D01*
X87362500Y-68097500D02*
X85972500Y-69487500D01*
G04 #@! TO.N,Net-(A1-GP14)*
X93500000Y-82570000D02*
X95710000Y-84780000D01*
X91287500Y-71787500D02*
X93500000Y-74000000D01*
X85972500Y-71787500D02*
X91287500Y-71787500D01*
X93500000Y-74000000D02*
X93500000Y-82570000D01*
X84822500Y-70637500D02*
X85972500Y-71787500D01*
G04 #@! TO.N,Net-(A1-GP13)*
X94000000Y-77990000D02*
X95710000Y-79700000D01*
X91637500Y-70637500D02*
X94000000Y-73000000D01*
X94000000Y-73000000D02*
X94000000Y-77990000D01*
X87362500Y-70637500D02*
X91637500Y-70637500D01*
G04 #@! TO.N,Net-(A1-GP28)*
X83272500Y-49727500D02*
X95500000Y-37500000D01*
X83272500Y-55473846D02*
X83272500Y-49727500D01*
X95500000Y-37500000D02*
X122000000Y-37500000D01*
X84346154Y-56547500D02*
X83272500Y-55473846D01*
X86212500Y-56547500D02*
X84346154Y-56547500D01*
X87362500Y-55397500D02*
X86212500Y-56547500D01*
G04 #@! TO.N,Net-(A1-VBUS)*
X83672500Y-52381154D02*
X93013654Y-43040000D01*
X96651020Y-43040000D02*
X100631020Y-39060000D01*
X100631020Y-39060000D02*
X113490000Y-39060000D01*
X83672500Y-54247500D02*
X83672500Y-52381154D01*
X84822500Y-55397500D02*
X83672500Y-54247500D01*
X93013654Y-43040000D02*
X96651020Y-43040000D01*
G04 #@! TO.N,Net-(A1-VSYS)*
X97920000Y-42336705D02*
X100201705Y-40055000D01*
X97920000Y-45580000D02*
X97920000Y-42336705D01*
X111945000Y-40055000D02*
X113490000Y-41600000D01*
X92100000Y-45580000D02*
X97920000Y-45580000D01*
X84822500Y-52857500D02*
X92100000Y-45580000D01*
X100201705Y-40055000D02*
X111945000Y-40055000D01*
G04 #@! TO.N,Net-(J1-Pin_15)*
X99395000Y-53200000D02*
X100595000Y-52000000D01*
X87705000Y-53200000D02*
X99395000Y-53200000D01*
X87362500Y-52857500D02*
X87705000Y-53200000D01*
X100595000Y-52000000D02*
X104500000Y-52000000D01*
G04 #@! TO.N,Net-(U1-~{OE})*
X131045000Y-63955000D02*
X135000000Y-60000000D01*
X131045000Y-77200000D02*
X131045000Y-63955000D01*
G04 #@! TO.N,Net-(U1-~{WE})*
X134000000Y-43308750D02*
X136278750Y-41030000D01*
X134000000Y-56500000D02*
X134000000Y-43308750D01*
G04 #@! TO.N,Net-(U1-A8)*
X107500000Y-60500000D02*
X109500000Y-60500000D01*
G04 #@! TO.N,Net-(U1-A10)*
X121074357Y-70500000D02*
X115500000Y-70500000D01*
X135304357Y-56270000D02*
X121074357Y-70500000D01*
X136278750Y-56270000D02*
X135304357Y-56270000D01*
G04 #@! TO.N,Net-(J1-Pin_15)*
X120721250Y-71510000D02*
X133421250Y-58810000D01*
X133421250Y-58810000D02*
X136278750Y-58810000D01*
X113054365Y-73500000D02*
X118731250Y-73500000D01*
X112390000Y-74164365D02*
X113054365Y-73500000D01*
X112390000Y-80845000D02*
X112390000Y-74164365D01*
X118731250Y-73500000D02*
X120721250Y-71510000D01*
X108075000Y-85160000D02*
X112390000Y-80845000D01*
G04 #@! TO.N,Net-(U1-A0)*
X115111250Y-55740000D02*
X120721250Y-61350000D01*
X112677352Y-55740000D02*
X115111250Y-55740000D01*
X112417352Y-56000000D02*
X112677352Y-55740000D01*
X112000000Y-56000000D02*
X112417352Y-56000000D01*
G04 #@! TO.N,Net-(A1-GP10)*
X106000000Y-56120000D02*
X108500000Y-53620000D01*
X106000000Y-64000000D02*
X106000000Y-56120000D01*
G04 #@! TO.N,Net-(A1-VSYS)*
X108500000Y-58700000D02*
X109500000Y-57700000D01*
X109500000Y-57700000D02*
X109500000Y-51500000D01*
X107000000Y-44960000D02*
X108500000Y-43460000D01*
X107000000Y-49500000D02*
X107000000Y-44960000D01*
G04 #@! TO.N,Net-(A1-GP8)*
X110500000Y-60500000D02*
X110500000Y-50540000D01*
X110500000Y-50540000D02*
X108500000Y-48540000D01*
X106000000Y-65000000D02*
X110500000Y-60500000D01*
G04 #@! TO.N,Net-(A1-GP9)*
X111000000Y-48500000D02*
X108500000Y-46000000D01*
X111000000Y-60565686D02*
X111000000Y-48500000D01*
X106600000Y-78900000D02*
X106600000Y-64965686D01*
X105500000Y-80000000D02*
X106600000Y-78900000D01*
X106600000Y-64965686D02*
X111000000Y-60565686D01*
G04 #@! TO.N,Net-(J1-Pin_15)*
X109136705Y-44140000D02*
X113490000Y-44140000D01*
X107635000Y-50215000D02*
X107635000Y-45641705D01*
X108500000Y-51080000D02*
X107635000Y-50215000D01*
X107635000Y-45641705D02*
X109136705Y-44140000D01*
G04 #@! TO.N,Net-(A1-VSYS)*
X135289750Y-39479000D02*
X136278750Y-38490000D01*
X115611000Y-39479000D02*
X135289750Y-39479000D01*
X113490000Y-41600000D02*
X115611000Y-39479000D01*
G04 #@! TO.N,Net-(U3-QH')*
X105500000Y-43920000D02*
X108500000Y-40920000D01*
X105500000Y-49500000D02*
X105500000Y-43920000D01*
X105400000Y-52600000D02*
X105500000Y-52500000D01*
X105400000Y-72400000D02*
X105400000Y-52600000D01*
X105500000Y-72500000D02*
X105400000Y-72400000D01*
X103500000Y-72500000D02*
X103460000Y-72460000D01*
X100135000Y-72460000D02*
X103460000Y-72460000D01*
G04 #@! TO.N,Net-(A1-VSYS)*
X110360000Y-41600000D02*
X113490000Y-41600000D01*
X108500000Y-43460000D02*
X110360000Y-41600000D01*
G04 #@! TO.N,Net-(A1-GP10)*
X98500000Y-64000000D02*
X103500000Y-64000000D01*
X97500000Y-65000000D02*
X98500000Y-64000000D01*
G04 #@! TO.N,Net-(A1-GP9)*
X103420000Y-80080000D02*
X103500000Y-80000000D01*
X100135000Y-80080000D02*
X103420000Y-80080000D01*
X98870000Y-78815000D02*
X100135000Y-80080000D01*
X98870000Y-70160000D02*
X98870000Y-78815000D01*
X95710000Y-67000000D02*
X98870000Y-70160000D01*
G04 #@! TO.N,Net-(A1-GP8)*
X101291705Y-65000000D02*
X103500000Y-65000000D01*
X99270000Y-67021705D02*
X101291705Y-65000000D01*
X99270000Y-67831705D02*
X99270000Y-67021705D01*
X99270000Y-67831705D02*
X99270000Y-76675000D01*
X99270000Y-76675000D02*
X100135000Y-77540000D01*
X95898295Y-64460000D02*
X99270000Y-67831705D01*
X95710000Y-64460000D02*
X95898295Y-64460000D01*
G04 #@! TO.N,Net-(J1-Pin_15)*
X104500000Y-79500000D02*
X104500000Y-79365000D01*
X104500000Y-79500000D02*
X104500000Y-81585000D01*
X104500000Y-52000000D02*
X104500000Y-79500000D01*
X104500000Y-79365000D02*
X100135000Y-75000000D01*
X108500000Y-51080000D02*
X105420000Y-51080000D01*
X105420000Y-51080000D02*
X104500000Y-52000000D01*
X104500000Y-44860000D02*
X104500000Y-52000000D01*
X104500000Y-81585000D02*
X108075000Y-85160000D01*
X100560000Y-40920000D02*
X104500000Y-44860000D01*
G04 #@! TD*
M02*
