G04 #@! TF.GenerationSoftware,KiCad,Pcbnew,8.0.0*
G04 #@! TF.CreationDate,2024-03-16T14:29:00-05:00*
G04 #@! TF.ProjectId,SensorModuleBase,53656e73-6f72-44d6-9f64-756c65426173,rev?*
G04 #@! TF.SameCoordinates,Original*
G04 #@! TF.FileFunction,Soldermask,Top*
G04 #@! TF.FilePolarity,Negative*
%FSLAX46Y46*%
G04 Gerber Fmt 4.6, Leading zero omitted, Abs format (unit mm)*
G04 Created by KiCad (PCBNEW 8.0.0) date 2024-03-16 14:29:00*
%MOMM*%
%LPD*%
G01*
G04 APERTURE LIST*
G04 Aperture macros list*
%AMRoundRect*
0 Rectangle with rounded corners*
0 $1 Rounding radius*
0 $2 $3 $4 $5 $6 $7 $8 $9 X,Y pos of 4 corners*
0 Add a 4 corners polygon primitive as box body*
4,1,4,$2,$3,$4,$5,$6,$7,$8,$9,$2,$3,0*
0 Add four circle primitives for the rounded corners*
1,1,$1+$1,$2,$3*
1,1,$1+$1,$4,$5*
1,1,$1+$1,$6,$7*
1,1,$1+$1,$8,$9*
0 Add four rect primitives between the rounded corners*
20,1,$1+$1,$2,$3,$4,$5,0*
20,1,$1+$1,$4,$5,$6,$7,0*
20,1,$1+$1,$6,$7,$8,$9,0*
20,1,$1+$1,$8,$9,$2,$3,0*%
G04 Aperture macros list end*
%ADD10RoundRect,0.102000X0.565000X0.565000X-0.565000X0.565000X-0.565000X-0.565000X0.565000X-0.565000X0*%
%ADD11C,1.334000*%
%ADD12RoundRect,0.102000X-0.565000X-0.565000X0.565000X-0.565000X0.565000X0.565000X-0.565000X0.565000X0*%
%ADD13R,1.600000X1.600000*%
%ADD14O,1.600000X1.600000*%
%ADD15C,1.582000*%
%ADD16RoundRect,0.102000X-0.689000X-0.689000X0.689000X-0.689000X0.689000X0.689000X-0.689000X0.689000X0*%
%ADD17RoundRect,0.250000X0.600000X0.600000X-0.600000X0.600000X-0.600000X-0.600000X0.600000X-0.600000X0*%
%ADD18C,1.700000*%
%ADD19C,1.600000*%
%ADD20RoundRect,0.200000X-0.600000X-0.600000X0.600000X-0.600000X0.600000X0.600000X-0.600000X0.600000X0*%
G04 APERTURE END LIST*
D10*
G04 #@! TO.C,U4*
X108075000Y-67380000D03*
D11*
X108075000Y-69920000D03*
X108075000Y-72460000D03*
X108075000Y-75000000D03*
X108075000Y-77540000D03*
X108075000Y-80080000D03*
X108075000Y-82620000D03*
X108075000Y-85160000D03*
X100135000Y-85160000D03*
X100135000Y-82620000D03*
X100135000Y-80080000D03*
X100135000Y-77540000D03*
X100135000Y-75000000D03*
X100135000Y-72460000D03*
X100135000Y-69920000D03*
X100135000Y-67380000D03*
G04 #@! TD*
D12*
G04 #@! TO.C,U3*
X100560000Y-58700000D03*
D11*
X100560000Y-56160000D03*
X100560000Y-53620000D03*
X100560000Y-51080000D03*
X100560000Y-48540000D03*
X100560000Y-46000000D03*
X100560000Y-43460000D03*
X100560000Y-40920000D03*
X108500000Y-40920000D03*
X108500000Y-43460000D03*
X108500000Y-46000000D03*
X108500000Y-48540000D03*
X108500000Y-51080000D03*
X108500000Y-53620000D03*
X108500000Y-56160000D03*
X108500000Y-58700000D03*
G04 #@! TD*
D13*
G04 #@! TO.C,U2*
X136125000Y-77200000D03*
D14*
X133585000Y-77200000D03*
X131045000Y-77200000D03*
X128505000Y-77200000D03*
X125965000Y-77200000D03*
X123425000Y-77200000D03*
X120885000Y-77200000D03*
X120885000Y-84820000D03*
X123425000Y-84820000D03*
X125965000Y-84820000D03*
X128505000Y-84820000D03*
X131045000Y-84820000D03*
X133585000Y-84820000D03*
X136125000Y-84820000D03*
G04 #@! TD*
D15*
G04 #@! TO.C,U1*
X136278750Y-38490000D03*
X136278750Y-41030000D03*
X136278750Y-43570000D03*
X136278750Y-46110000D03*
X136278750Y-48650000D03*
X136278750Y-51190000D03*
X136278750Y-53730000D03*
X136278750Y-56270000D03*
X136278750Y-58810000D03*
X136278750Y-61350000D03*
X136278750Y-63890000D03*
X136278750Y-66430000D03*
X136278750Y-68970000D03*
X136278750Y-71510000D03*
X120721250Y-71510000D03*
X120721250Y-68970000D03*
X120721250Y-66430000D03*
X120721250Y-63890000D03*
X120721250Y-61350000D03*
X120721250Y-58810000D03*
X120721250Y-56270000D03*
X120721250Y-53730000D03*
X120721250Y-51190000D03*
X120721250Y-48650000D03*
X120721250Y-46110000D03*
X120721250Y-43570000D03*
X120721250Y-41030000D03*
D16*
X120721250Y-38490000D03*
G04 #@! TD*
D17*
G04 #@! TO.C,J1*
X87362500Y-70637500D03*
D18*
X84822500Y-70637500D03*
X87362500Y-68097500D03*
X84822500Y-68097500D03*
X87362500Y-65557500D03*
X84822500Y-65557500D03*
X87362500Y-63017500D03*
X84822500Y-63017500D03*
X87362500Y-60477500D03*
X84822500Y-60477500D03*
X87362500Y-57937500D03*
X84822500Y-57937500D03*
X87362500Y-55397500D03*
X84822500Y-55397500D03*
X87362500Y-52857500D03*
X84822500Y-52857500D03*
G04 #@! TD*
D19*
G04 #@! TO.C,A1*
X95710000Y-39060000D03*
X95710000Y-41600000D03*
D20*
X95710000Y-44140000D03*
D19*
X95710000Y-46680000D03*
X95710000Y-49220000D03*
X95710000Y-51760000D03*
X95710000Y-54300000D03*
D20*
X95710000Y-56840000D03*
D19*
X95710000Y-59380000D03*
X95710000Y-61920000D03*
X95710000Y-64460000D03*
X95710000Y-67000000D03*
D20*
X95710000Y-69540000D03*
D19*
X95710000Y-72080000D03*
X95710000Y-74620000D03*
X95751881Y-77160000D03*
X95710000Y-79700000D03*
D20*
X95710000Y-82240000D03*
D19*
X95710000Y-84780000D03*
X95710000Y-87320000D03*
X113490000Y-87320000D03*
X113490000Y-84780000D03*
D20*
X113490000Y-82240000D03*
D19*
X113490000Y-79700000D03*
X113490000Y-77160000D03*
X113490000Y-74620000D03*
X113490000Y-72080000D03*
D20*
X113490000Y-69540000D03*
D19*
X113490000Y-67000000D03*
X113490000Y-64460000D03*
X113490000Y-61920000D03*
X113490000Y-59380000D03*
D20*
X113490000Y-56840000D03*
D19*
X113490000Y-54300000D03*
X113490000Y-51760000D03*
X113490000Y-49220000D03*
X113490000Y-46680000D03*
D20*
X113490000Y-44140000D03*
D19*
X113490000Y-41600000D03*
X113490000Y-39060000D03*
G04 #@! TD*
M02*
