G04 #@! TF.GenerationSoftware,KiCad,Pcbnew,8.0.0*
G04 #@! TF.CreationDate,2024-03-25T14:53:35-05:00*
G04 #@! TF.ProjectId,SensorModuleBase,53656e73-6f72-44d6-9f64-756c65426173,rev?*
G04 #@! TF.SameCoordinates,Original*
G04 #@! TF.FileFunction,Legend,Top*
G04 #@! TF.FilePolarity,Positive*
%FSLAX46Y46*%
G04 Gerber Fmt 4.6, Leading zero omitted, Abs format (unit mm)*
G04 Created by KiCad (PCBNEW 8.0.0) date 2024-03-25 14:53:35*
%MOMM*%
%LPD*%
G01*
G04 APERTURE LIST*
%ADD10C,0.150000*%
%ADD11C,0.120000*%
%ADD12C,0.127000*%
%ADD13C,0.200000*%
%ADD14C,0.300000*%
G04 APERTURE END LIST*
D10*
X20881666Y-54254819D02*
X20881666Y-54969104D01*
X20881666Y-54969104D02*
X20834047Y-55111961D01*
X20834047Y-55111961D02*
X20738809Y-55207200D01*
X20738809Y-55207200D02*
X20595952Y-55254819D01*
X20595952Y-55254819D02*
X20500714Y-55254819D01*
X21881666Y-55254819D02*
X21310238Y-55254819D01*
X21595952Y-55254819D02*
X21595952Y-54254819D01*
X21595952Y-54254819D02*
X21500714Y-54397676D01*
X21500714Y-54397676D02*
X21405476Y-54492914D01*
X21405476Y-54492914D02*
X21310238Y-54540533D01*
X53223095Y-16654819D02*
X53223095Y-17464342D01*
X53223095Y-17464342D02*
X53270714Y-17559580D01*
X53270714Y-17559580D02*
X53318333Y-17607200D01*
X53318333Y-17607200D02*
X53413571Y-17654819D01*
X53413571Y-17654819D02*
X53604047Y-17654819D01*
X53604047Y-17654819D02*
X53699285Y-17607200D01*
X53699285Y-17607200D02*
X53746904Y-17559580D01*
X53746904Y-17559580D02*
X53794523Y-17464342D01*
X53794523Y-17464342D02*
X53794523Y-16654819D01*
X54794523Y-17654819D02*
X54223095Y-17654819D01*
X54508809Y-17654819D02*
X54508809Y-16654819D01*
X54508809Y-16654819D02*
X54413571Y-16797676D01*
X54413571Y-16797676D02*
X54318333Y-16892914D01*
X54318333Y-16892914D02*
X54223095Y-16940533D01*
X53439819Y-64461904D02*
X54249342Y-64461904D01*
X54249342Y-64461904D02*
X54344580Y-64414285D01*
X54344580Y-64414285D02*
X54392200Y-64366666D01*
X54392200Y-64366666D02*
X54439819Y-64271428D01*
X54439819Y-64271428D02*
X54439819Y-64080952D01*
X54439819Y-64080952D02*
X54392200Y-63985714D01*
X54392200Y-63985714D02*
X54344580Y-63938095D01*
X54344580Y-63938095D02*
X54249342Y-63890476D01*
X54249342Y-63890476D02*
X53439819Y-63890476D01*
X53535057Y-63461904D02*
X53487438Y-63414285D01*
X53487438Y-63414285D02*
X53439819Y-63319047D01*
X53439819Y-63319047D02*
X53439819Y-63080952D01*
X53439819Y-63080952D02*
X53487438Y-62985714D01*
X53487438Y-62985714D02*
X53535057Y-62938095D01*
X53535057Y-62938095D02*
X53630295Y-62890476D01*
X53630295Y-62890476D02*
X53725533Y-62890476D01*
X53725533Y-62890476D02*
X53868390Y-62938095D01*
X53868390Y-62938095D02*
X54439819Y-63509523D01*
X54439819Y-63509523D02*
X54439819Y-62890476D01*
X31770714Y-17869104D02*
X32246904Y-17869104D01*
X31675476Y-18154819D02*
X32008809Y-17154819D01*
X32008809Y-17154819D02*
X32342142Y-18154819D01*
X33199285Y-18154819D02*
X32627857Y-18154819D01*
X32913571Y-18154819D02*
X32913571Y-17154819D01*
X32913571Y-17154819D02*
X32818333Y-17297676D01*
X32818333Y-17297676D02*
X32723095Y-17392914D01*
X32723095Y-17392914D02*
X32627857Y-17440533D01*
D11*
G04 #@! TO.C,J1*
X16655000Y-25710000D02*
X25775000Y-25710000D01*
X16655000Y-53910000D02*
X16655000Y-25710000D01*
X17965000Y-27010000D02*
X24465000Y-27010000D01*
X17965000Y-52610000D02*
X17965000Y-27010000D01*
X24465000Y-27010000D02*
X24465000Y-37760000D01*
X24465000Y-37760000D02*
X24465000Y-37760000D01*
X24465000Y-37760000D02*
X25775000Y-37760000D01*
X24465000Y-41860000D02*
X24465000Y-52610000D01*
X24465000Y-52610000D02*
X17965000Y-52610000D01*
X25775000Y-25710000D02*
X25775000Y-53910000D01*
X25775000Y-41860000D02*
X24465000Y-41860000D01*
X25775000Y-53910000D02*
X16655000Y-53910000D01*
X26165000Y-48700000D02*
X27165000Y-49200000D01*
X27165000Y-48200000D02*
X26165000Y-48700000D01*
X27165000Y-49200000D02*
X27165000Y-48200000D01*
D12*
G04 #@! TO.C,U1*
X52848250Y-15190000D02*
X66564250Y-15190000D01*
X52848250Y-52210000D02*
X66564250Y-52210000D01*
D13*
X50917500Y-17190000D02*
G75*
G02*
X50717500Y-17190000I-100000J0D01*
G01*
X50717500Y-17190000D02*
G75*
G02*
X50917500Y-17190000I100000J0D01*
G01*
D11*
G04 #@! TO.C,U2*
X51530000Y-61040000D02*
X51530000Y-62690000D01*
X51530000Y-64690000D02*
X51530000Y-66340000D01*
X51530000Y-66340000D02*
X69430000Y-66340000D01*
X69430000Y-61040000D02*
X51530000Y-61040000D01*
X69430000Y-66340000D02*
X69430000Y-61040000D01*
X51530000Y-62690000D02*
G75*
G02*
X51530000Y-64690000I0J-1000000D01*
G01*
D12*
G04 #@! TO.C,A1*
X28290000Y-16370000D02*
X34790000Y-16370000D01*
X28290000Y-16620000D02*
X28290000Y-16370000D01*
X28290000Y-67370000D02*
X28290000Y-67120000D01*
X34790000Y-15070000D02*
X42790000Y-15070000D01*
X34790000Y-16370000D02*
X34790000Y-15070000D01*
X35130000Y-67370000D02*
X28290000Y-67370000D01*
X42790000Y-15070000D02*
X42790000Y-16370000D01*
X42790000Y-16370000D02*
X49290000Y-16370000D01*
X49290000Y-16370000D02*
X49290000Y-16620000D01*
X49290000Y-67370000D02*
X42450000Y-67370000D01*
X49290000Y-67370000D02*
X49290000Y-67120000D01*
D14*
X26750000Y-17740000D02*
G75*
G02*
X26450000Y-17740000I-150000J0D01*
G01*
X26450000Y-17740000D02*
G75*
G02*
X26750000Y-17740000I150000J0D01*
G01*
G04 #@! TD*
M02*
