M48
INCH,TZ
T1C0.0118
T2C0.0307
T3C0.0315
T4C0.0343
T5C0.0394
%
G90
G05
T1
X22632Y-15039
X22829Y-13465
X22829Y-14646
X23026Y-16024
X23222Y-13661
X23419Y-13268
X23419Y-14449
X24010Y-15039
X24010Y-17598
X24404Y-17205
X24600Y-10118
X26569Y-21732
T2
X22053Y-6618
X22053Y-7618
X22053Y-8618
X22053Y-9618
X22053Y-10618
X22053Y-11618
X22053Y-12618
X22053Y-13618
X22053Y-14689
X22053Y-15689
X22053Y-16689
X22053Y-17689
X22053Y-18689
X22053Y-19689
X22053Y-20689
X22053Y-21689
X25179Y-6618
X25179Y-7618
X25179Y-8618
X25179Y-9618
X25179Y-10618
X25179Y-11618
X25179Y-12618
X25179Y-13618
X25179Y-14689
X25179Y-15689
X25179Y-16689
X25179Y-17689
X25179Y-18689
X25179Y-19689
X25179Y-20689
X25179Y-21689
T3
X20811Y-23575
X20811Y-26575
X21811Y-23575
X21811Y-26575
X22811Y-23575
X22811Y-26575
X23811Y-23575
X23811Y-26575
X24811Y-23575
X24811Y-26575
X25811Y-23575
X25811Y-26575
X26811Y-23575
X26811Y-26575
T4
X20444Y-6768
X20444Y-7768
X20444Y-8768
X20444Y-9768
X20444Y-10768
X20444Y-11768
X20444Y-12768
X20444Y-13768
X20444Y-14768
X20444Y-15768
X20444Y-16768
X20444Y-17768
X20444Y-18768
X20444Y-19768
X26569Y-6768
X26569Y-7768
X26569Y-8768
X26569Y-9768
X26569Y-10768
X26569Y-11768
X26569Y-12768
X26569Y-13768
X26569Y-14768
X26569Y-15768
X26569Y-16768
X26569Y-17768
X26569Y-18768
X26569Y-19768
T5
X7852Y-12173
X7852Y-13173
X7852Y-14173
X7852Y-15173
X7852Y-16173
X7852Y-17173
X7852Y-18173
X7852Y-19173
X8852Y-12173
X8852Y-13173
X8852Y-14173
X8852Y-15173
X8852Y-16173
X8852Y-17173
X8852Y-18173
X8852Y-19173
X11772Y-6984
X11772Y-7984
X11772Y-8984
X11772Y-9984
X11772Y-10984
X11772Y-11984
X11772Y-12984
X11772Y-13984
X11772Y-14984
X11772Y-15984
X11772Y-16984
X11772Y-17984
X11772Y-18984
X11772Y-19984
X11772Y-20984
X11772Y-22984
X11772Y-23984
X11772Y-24984
X11772Y-25984
X11788Y-21984
X18772Y-6984
X18772Y-7984
X18772Y-8984
X18772Y-9984
X18772Y-10984
X18772Y-11984
X18772Y-12984
X18772Y-13984
X18772Y-14984
X18772Y-15984
X18772Y-16984
X18772Y-17984
X18772Y-18984
X18772Y-19984
X18772Y-20984
X18772Y-21984
X18772Y-22984
X18772Y-23984
X18772Y-24984
X18772Y-25984
M30
