G04 #@! TF.GenerationSoftware,KiCad,Pcbnew,8.0.0*
G04 #@! TF.CreationDate,2024-03-20T17:58:27-05:00*
G04 #@! TF.ProjectId,SensorModuleBase,53656e73-6f72-44d6-9f64-756c65426173,rev?*
G04 #@! TF.SameCoordinates,Original*
G04 #@! TF.FileFunction,Soldermask,Top*
G04 #@! TF.FilePolarity,Negative*
%FSLAX46Y46*%
G04 Gerber Fmt 4.6, Leading zero omitted, Abs format (unit mm)*
G04 Created by KiCad (PCBNEW 8.0.0) date 2024-03-20 17:58:27*
%MOMM*%
%LPD*%
G01*
G04 APERTURE LIST*
G04 Aperture macros list*
%AMRoundRect*
0 Rectangle with rounded corners*
0 $1 Rounding radius*
0 $2 $3 $4 $5 $6 $7 $8 $9 X,Y pos of 4 corners*
0 Add a 4 corners polygon primitive as box body*
4,1,4,$2,$3,$4,$5,$6,$7,$8,$9,$2,$3,0*
0 Add four circle primitives for the rounded corners*
1,1,$1+$1,$2,$3*
1,1,$1+$1,$4,$5*
1,1,$1+$1,$6,$7*
1,1,$1+$1,$8,$9*
0 Add four rect primitives between the rounded corners*
20,1,$1+$1,$2,$3,$4,$5,0*
20,1,$1+$1,$4,$5,$6,$7,0*
20,1,$1+$1,$6,$7,$8,$9,0*
20,1,$1+$1,$8,$9,$2,$3,0*%
G04 Aperture macros list end*
%ADD10RoundRect,0.102000X-0.565000X-0.565000X0.565000X-0.565000X0.565000X0.565000X-0.565000X0.565000X0*%
%ADD11C,1.334000*%
%ADD12R,1.600000X1.600000*%
%ADD13O,1.600000X1.600000*%
%ADD14RoundRect,0.102000X-0.689000X-0.689000X0.689000X-0.689000X0.689000X0.689000X-0.689000X0.689000X0*%
%ADD15C,1.582000*%
%ADD16RoundRect,0.250000X0.600000X0.600000X-0.600000X0.600000X-0.600000X-0.600000X0.600000X-0.600000X0*%
%ADD17C,1.700000*%
%ADD18C,1.600000*%
%ADD19RoundRect,0.200000X-0.600000X-0.600000X0.600000X-0.600000X0.600000X0.600000X-0.600000X0.600000X0*%
G04 APERTURE END LIST*
D10*
G04 #@! TO.C,U3*
X56015000Y-34590000D03*
D11*
X56015000Y-32050000D03*
X56015000Y-29510000D03*
X56015000Y-26970000D03*
X56015000Y-24430000D03*
X56015000Y-21890000D03*
X56015000Y-19350000D03*
X56015000Y-16810000D03*
X63955000Y-16810000D03*
X63955000Y-19350000D03*
X63955000Y-21890000D03*
X63955000Y-24430000D03*
X63955000Y-26970000D03*
X63955000Y-29510000D03*
X63955000Y-32050000D03*
X63955000Y-34590000D03*
G04 #@! TD*
G04 #@! TO.C,U4*
X63955000Y-55090000D03*
X63955000Y-52550000D03*
X63955000Y-50010000D03*
X63955000Y-47470000D03*
X63955000Y-44930000D03*
X63955000Y-42390000D03*
X63955000Y-39850000D03*
X63955000Y-37310000D03*
X56015000Y-37310000D03*
X56015000Y-39850000D03*
X56015000Y-42390000D03*
X56015000Y-44930000D03*
X56015000Y-47470000D03*
X56015000Y-50010000D03*
X56015000Y-52550000D03*
D10*
X56015000Y-55090000D03*
G04 #@! TD*
D12*
G04 #@! TO.C,U2*
X52860000Y-67500000D03*
D13*
X55400000Y-67500000D03*
X57940000Y-67500000D03*
X60480000Y-67500000D03*
X63020000Y-67500000D03*
X65560000Y-67500000D03*
X68100000Y-67500000D03*
X68100000Y-59880000D03*
X65560000Y-59880000D03*
X63020000Y-59880000D03*
X60480000Y-59880000D03*
X57940000Y-59880000D03*
X55400000Y-59880000D03*
X52860000Y-59880000D03*
G04 #@! TD*
D14*
G04 #@! TO.C,U1*
X51927500Y-17190000D03*
D15*
X51927500Y-19730000D03*
X51927500Y-22270000D03*
X51927500Y-24810000D03*
X51927500Y-27350000D03*
X51927500Y-29890000D03*
X51927500Y-32430000D03*
X51927500Y-34970000D03*
X51927500Y-37510000D03*
X51927500Y-40050000D03*
X51927500Y-42590000D03*
X51927500Y-45130000D03*
X51927500Y-47670000D03*
X51927500Y-50210000D03*
X67485000Y-50210000D03*
X67485000Y-47670000D03*
X67485000Y-45130000D03*
X67485000Y-42590000D03*
X67485000Y-40050000D03*
X67485000Y-37510000D03*
X67485000Y-34970000D03*
X67485000Y-32430000D03*
X67485000Y-29890000D03*
X67485000Y-27350000D03*
X67485000Y-24810000D03*
X67485000Y-22270000D03*
X67485000Y-19730000D03*
X67485000Y-17190000D03*
G04 #@! TD*
D16*
G04 #@! TO.C,J1*
X22485000Y-48700000D03*
D17*
X19945000Y-48700000D03*
X22485000Y-46160000D03*
X19945000Y-46160000D03*
X22485000Y-43620000D03*
X19945000Y-43620000D03*
X22485000Y-41080000D03*
X19945000Y-41080000D03*
X22485000Y-38540000D03*
X19945000Y-38540000D03*
X22485000Y-36000000D03*
X19945000Y-36000000D03*
X22485000Y-33460000D03*
X19945000Y-33460000D03*
X22485000Y-30920000D03*
X19945000Y-30920000D03*
G04 #@! TD*
D18*
G04 #@! TO.C,A1*
X29900000Y-17740000D03*
X29900000Y-20280000D03*
D19*
X29900000Y-22820000D03*
D18*
X29900000Y-25360000D03*
X29900000Y-27900000D03*
X29900000Y-30440000D03*
X29900000Y-32980000D03*
D19*
X29900000Y-35520000D03*
D18*
X29900000Y-38060000D03*
X29900000Y-40600000D03*
X29900000Y-43140000D03*
X29900000Y-45680000D03*
D19*
X29900000Y-48220000D03*
D18*
X29900000Y-50760000D03*
X29900000Y-53300000D03*
X29941881Y-55840000D03*
X29900000Y-58380000D03*
D19*
X29900000Y-60920000D03*
D18*
X29900000Y-63460000D03*
X29900000Y-66000000D03*
X47680000Y-66000000D03*
X47680000Y-63460000D03*
D19*
X47680000Y-60920000D03*
D18*
X47680000Y-58380000D03*
X47680000Y-55840000D03*
X47680000Y-53300000D03*
X47680000Y-50760000D03*
D19*
X47680000Y-48220000D03*
D18*
X47680000Y-45680000D03*
X47680000Y-43140000D03*
X47680000Y-40600000D03*
X47680000Y-38060000D03*
D19*
X47680000Y-35520000D03*
D18*
X47680000Y-32980000D03*
X47680000Y-30440000D03*
X47680000Y-27900000D03*
X47680000Y-25360000D03*
D19*
X47680000Y-22820000D03*
D18*
X47680000Y-20280000D03*
X47680000Y-17740000D03*
G04 #@! TD*
M02*
