G04 #@! TF.GenerationSoftware,KiCad,Pcbnew,8.0.0*
G04 #@! TF.CreationDate,2024-03-20T17:58:27-05:00*
G04 #@! TF.ProjectId,SensorModuleBase,53656e73-6f72-44d6-9f64-756c65426173,rev?*
G04 #@! TF.SameCoordinates,Original*
G04 #@! TF.FileFunction,Legend,Bot*
G04 #@! TF.FilePolarity,Positive*
%FSLAX46Y46*%
G04 Gerber Fmt 4.6, Leading zero omitted, Abs format (unit mm)*
G04 Created by KiCad (PCBNEW 8.0.0) date 2024-03-20 17:58:27*
%MOMM*%
%LPD*%
G01*
G04 APERTURE LIST*
%ADD10C,0.150000*%
%ADD11C,0.200000*%
%ADD12C,0.127000*%
G04 APERTURE END LIST*
D10*
X62746904Y-36654819D02*
X62746904Y-37464342D01*
X62746904Y-37464342D02*
X62699285Y-37559580D01*
X62699285Y-37559580D02*
X62651666Y-37607200D01*
X62651666Y-37607200D02*
X62556428Y-37654819D01*
X62556428Y-37654819D02*
X62365952Y-37654819D01*
X62365952Y-37654819D02*
X62270714Y-37607200D01*
X62270714Y-37607200D02*
X62223095Y-37559580D01*
X62223095Y-37559580D02*
X62175476Y-37464342D01*
X62175476Y-37464342D02*
X62175476Y-36654819D01*
X61794523Y-36654819D02*
X61175476Y-36654819D01*
X61175476Y-36654819D02*
X61508809Y-37035771D01*
X61508809Y-37035771D02*
X61365952Y-37035771D01*
X61365952Y-37035771D02*
X61270714Y-37083390D01*
X61270714Y-37083390D02*
X61223095Y-37131009D01*
X61223095Y-37131009D02*
X61175476Y-37226247D01*
X61175476Y-37226247D02*
X61175476Y-37464342D01*
X61175476Y-37464342D02*
X61223095Y-37559580D01*
X61223095Y-37559580D02*
X61270714Y-37607200D01*
X61270714Y-37607200D02*
X61365952Y-37654819D01*
X61365952Y-37654819D02*
X61651666Y-37654819D01*
X61651666Y-37654819D02*
X61746904Y-37607200D01*
X61746904Y-37607200D02*
X61794523Y-37559580D01*
X59321904Y-56489819D02*
X59321904Y-57299342D01*
X59321904Y-57299342D02*
X59274285Y-57394580D01*
X59274285Y-57394580D02*
X59226666Y-57442200D01*
X59226666Y-57442200D02*
X59131428Y-57489819D01*
X59131428Y-57489819D02*
X58940952Y-57489819D01*
X58940952Y-57489819D02*
X58845714Y-57442200D01*
X58845714Y-57442200D02*
X58798095Y-57394580D01*
X58798095Y-57394580D02*
X58750476Y-57299342D01*
X58750476Y-57299342D02*
X58750476Y-56489819D01*
X57845714Y-56823152D02*
X57845714Y-57489819D01*
X58083809Y-56442200D02*
X58321904Y-57156485D01*
X58321904Y-57156485D02*
X57702857Y-57156485D01*
D11*
G04 #@! TO.C,U3*
X55050000Y-34590000D02*
G75*
G02*
X54850000Y-34590000I-100000J0D01*
G01*
X54850000Y-34590000D02*
G75*
G02*
X55050000Y-34590000I100000J0D01*
G01*
D12*
X63160000Y-35475000D02*
X56810000Y-35475000D01*
X63160000Y-15925000D02*
X56810000Y-15925000D01*
G04 #@! TO.C,U4*
X63160000Y-36425000D02*
X56810000Y-36425000D01*
X63160000Y-55975000D02*
X56810000Y-55975000D01*
D11*
X55050000Y-55090000D02*
G75*
G02*
X54850000Y-55090000I-100000J0D01*
G01*
X54850000Y-55090000D02*
G75*
G02*
X55050000Y-55090000I100000J0D01*
G01*
G04 #@! TD*
M02*
