G04 #@! TF.GenerationSoftware,KiCad,Pcbnew,8.0.0*
G04 #@! TF.CreationDate,2024-03-20T17:58:27-05:00*
G04 #@! TF.ProjectId,SensorModuleBase,53656e73-6f72-44d6-9f64-756c65426173,rev?*
G04 #@! TF.SameCoordinates,Original*
G04 #@! TF.FileFunction,Copper,L2,Bot*
G04 #@! TF.FilePolarity,Positive*
%FSLAX46Y46*%
G04 Gerber Fmt 4.6, Leading zero omitted, Abs format (unit mm)*
G04 Created by KiCad (PCBNEW 8.0.0) date 2024-03-20 17:58:27*
%MOMM*%
%LPD*%
G01*
G04 APERTURE LIST*
G04 Aperture macros list*
%AMRoundRect*
0 Rectangle with rounded corners*
0 $1 Rounding radius*
0 $2 $3 $4 $5 $6 $7 $8 $9 X,Y pos of 4 corners*
0 Add a 4 corners polygon primitive as box body*
4,1,4,$2,$3,$4,$5,$6,$7,$8,$9,$2,$3,0*
0 Add four circle primitives for the rounded corners*
1,1,$1+$1,$2,$3*
1,1,$1+$1,$4,$5*
1,1,$1+$1,$6,$7*
1,1,$1+$1,$8,$9*
0 Add four rect primitives between the rounded corners*
20,1,$1+$1,$2,$3,$4,$5,0*
20,1,$1+$1,$4,$5,$6,$7,0*
20,1,$1+$1,$6,$7,$8,$9,0*
20,1,$1+$1,$8,$9,$2,$3,0*%
G04 Aperture macros list end*
G04 #@! TA.AperFunction,ComponentPad*
%ADD10R,1.130000X1.130000*%
G04 #@! TD*
G04 #@! TA.AperFunction,ComponentPad*
%ADD11C,1.130000*%
G04 #@! TD*
G04 #@! TA.AperFunction,ComponentPad*
%ADD12R,1.600000X1.600000*%
G04 #@! TD*
G04 #@! TA.AperFunction,ComponentPad*
%ADD13O,1.600000X1.600000*%
G04 #@! TD*
G04 #@! TA.AperFunction,ComponentPad*
%ADD14R,1.378000X1.378000*%
G04 #@! TD*
G04 #@! TA.AperFunction,ComponentPad*
%ADD15C,1.378000*%
G04 #@! TD*
G04 #@! TA.AperFunction,ComponentPad*
%ADD16RoundRect,0.250000X0.600000X0.600000X-0.600000X0.600000X-0.600000X-0.600000X0.600000X-0.600000X0*%
G04 #@! TD*
G04 #@! TA.AperFunction,ComponentPad*
%ADD17C,1.700000*%
G04 #@! TD*
G04 #@! TA.AperFunction,ComponentPad*
%ADD18C,1.600000*%
G04 #@! TD*
G04 #@! TA.AperFunction,ComponentPad*
%ADD19RoundRect,0.200000X-0.600000X-0.600000X0.600000X-0.600000X0.600000X0.600000X-0.600000X0.600000X0*%
G04 #@! TD*
G04 #@! TA.AperFunction,ViaPad*
%ADD20C,0.600000*%
G04 #@! TD*
G04 #@! TA.AperFunction,Conductor*
%ADD21C,0.200000*%
G04 #@! TD*
G04 APERTURE END LIST*
D10*
G04 #@! TO.P,U3,1,QB*
G04 #@! TO.N,Net-(U1-A1)*
X56015000Y-34590000D03*
D11*
G04 #@! TO.P,U3,2,QC*
G04 #@! TO.N,Net-(U1-A2)*
X56015000Y-32050000D03*
G04 #@! TO.P,U3,3,QD*
G04 #@! TO.N,Net-(U1-A3)*
X56015000Y-29510000D03*
G04 #@! TO.P,U3,4,QE*
G04 #@! TO.N,Net-(U1-A4)*
X56015000Y-26970000D03*
G04 #@! TO.P,U3,5,QF*
G04 #@! TO.N,Net-(U1-A5)*
X56015000Y-24430000D03*
G04 #@! TO.P,U3,6,QG*
G04 #@! TO.N,Net-(U1-A6)*
X56015000Y-21890000D03*
G04 #@! TO.P,U3,7,QH*
G04 #@! TO.N,Net-(U1-A7)*
X56015000Y-19350000D03*
G04 #@! TO.P,U3,8,GND*
G04 #@! TO.N,Net-(J1-Pin_15)*
X56015000Y-16810000D03*
G04 #@! TO.P,U3,9,QH'*
G04 #@! TO.N,Net-(U3-QH')*
X63955000Y-16810000D03*
G04 #@! TO.P,U3,10,~{SRCLR}*
G04 #@! TO.N,Net-(A1-VSYS)*
X63955000Y-19350000D03*
G04 #@! TO.P,U3,11,SRCLK*
G04 #@! TO.N,Net-(A1-GP9)*
X63955000Y-21890000D03*
G04 #@! TO.P,U3,12,RCLK*
G04 #@! TO.N,Net-(A1-GP8)*
X63955000Y-24430000D03*
G04 #@! TO.P,U3,13,~{OE}*
G04 #@! TO.N,Net-(J1-Pin_15)*
X63955000Y-26970000D03*
G04 #@! TO.P,U3,14,SER*
G04 #@! TO.N,Net-(A1-GP10)*
X63955000Y-29510000D03*
G04 #@! TO.P,U3,15,QA*
G04 #@! TO.N,Net-(U1-A0)*
X63955000Y-32050000D03*
G04 #@! TO.P,U3,16,VCC*
G04 #@! TO.N,Net-(A1-VSYS)*
X63955000Y-34590000D03*
G04 #@! TD*
G04 #@! TO.P,U4,16,VCC*
G04 #@! TO.N,Net-(A1-VSYS)*
X63955000Y-55090000D03*
G04 #@! TO.P,U4,15,QA*
G04 #@! TO.N,Net-(U1-A8)*
X63955000Y-52550000D03*
G04 #@! TO.P,U4,14,SER*
G04 #@! TO.N,Net-(U3-QH')*
X63955000Y-50010000D03*
G04 #@! TO.P,U4,13,~{OE}*
G04 #@! TO.N,Net-(J1-Pin_15)*
X63955000Y-47470000D03*
G04 #@! TO.P,U4,12,RCLK*
G04 #@! TO.N,Net-(A1-GP8)*
X63955000Y-44930000D03*
G04 #@! TO.P,U4,11,SRCLK*
G04 #@! TO.N,Net-(A1-GP9)*
X63955000Y-42390000D03*
G04 #@! TO.P,U4,10,~{SRCLR}*
G04 #@! TO.N,Net-(A1-VSYS)*
X63955000Y-39850000D03*
G04 #@! TO.P,U4,9,QH'*
G04 #@! TO.N,unconnected-(U4-QH'-Pad9)*
X63955000Y-37310000D03*
G04 #@! TO.P,U4,8,GND*
G04 #@! TO.N,Net-(J1-Pin_15)*
X56015000Y-37310000D03*
G04 #@! TO.P,U4,7,QH*
G04 #@! TO.N,unconnected-(U4-QH-Pad7)*
X56015000Y-39850000D03*
G04 #@! TO.P,U4,6,QG*
G04 #@! TO.N,unconnected-(U4-QG-Pad6)*
X56015000Y-42390000D03*
G04 #@! TO.P,U4,5,QF*
G04 #@! TO.N,unconnected-(U4-QF-Pad5)*
X56015000Y-44930000D03*
G04 #@! TO.P,U4,4,QE*
G04 #@! TO.N,Net-(U1-A12)*
X56015000Y-47470000D03*
G04 #@! TO.P,U4,3,QD*
G04 #@! TO.N,Net-(U1-A11)*
X56015000Y-50010000D03*
G04 #@! TO.P,U4,2,QC*
G04 #@! TO.N,Net-(U1-A10)*
X56015000Y-52550000D03*
D10*
G04 #@! TO.P,U4,1,QB*
G04 #@! TO.N,Net-(U1-A9)*
X56015000Y-55090000D03*
G04 #@! TD*
D12*
G04 #@! TO.P,U2,1*
G04 #@! TO.N,Net-(A1-GP11)*
X52860000Y-67500000D03*
D13*
G04 #@! TO.P,U2,2*
X55400000Y-67500000D03*
G04 #@! TO.P,U2,3*
G04 #@! TO.N,Net-(U1-~{OE})*
X57940000Y-67500000D03*
G04 #@! TO.P,U2,4*
G04 #@! TO.N,Net-(A1-GP12)*
X60480000Y-67500000D03*
G04 #@! TO.P,U2,5*
X63020000Y-67500000D03*
G04 #@! TO.P,U2,6*
G04 #@! TO.N,Net-(U1-~{WE})*
X65560000Y-67500000D03*
G04 #@! TO.P,U2,7,GND*
G04 #@! TO.N,Net-(J1-Pin_15)*
X68100000Y-67500000D03*
G04 #@! TO.P,U2,8*
G04 #@! TO.N,N/C*
X68100000Y-59880000D03*
G04 #@! TO.P,U2,9*
X65560000Y-59880000D03*
G04 #@! TO.P,U2,10*
X63020000Y-59880000D03*
G04 #@! TO.P,U2,11*
X60480000Y-59880000D03*
G04 #@! TO.P,U2,12*
X57940000Y-59880000D03*
G04 #@! TO.P,U2,13*
X55400000Y-59880000D03*
G04 #@! TO.P,U2,14,VCC*
G04 #@! TO.N,Net-(A1-VSYS)*
X52860000Y-59880000D03*
G04 #@! TD*
D14*
G04 #@! TO.P,U1,1*
G04 #@! TO.N,N/C*
X51927500Y-17190000D03*
D15*
G04 #@! TO.P,U1,2,A12*
G04 #@! TO.N,Net-(U1-A12)*
X51927500Y-19730000D03*
G04 #@! TO.P,U1,3,A7*
G04 #@! TO.N,Net-(U1-A7)*
X51927500Y-22270000D03*
G04 #@! TO.P,U1,4,A6*
G04 #@! TO.N,Net-(U1-A6)*
X51927500Y-24810000D03*
G04 #@! TO.P,U1,5,A5*
G04 #@! TO.N,Net-(U1-A5)*
X51927500Y-27350000D03*
G04 #@! TO.P,U1,6,A4*
G04 #@! TO.N,Net-(U1-A4)*
X51927500Y-29890000D03*
G04 #@! TO.P,U1,7,A3*
G04 #@! TO.N,Net-(U1-A3)*
X51927500Y-32430000D03*
G04 #@! TO.P,U1,8,A2*
G04 #@! TO.N,Net-(U1-A2)*
X51927500Y-34970000D03*
G04 #@! TO.P,U1,9,A1*
G04 #@! TO.N,Net-(U1-A1)*
X51927500Y-37510000D03*
G04 #@! TO.P,U1,10,A0*
G04 #@! TO.N,Net-(U1-A0)*
X51927500Y-40050000D03*
G04 #@! TO.P,U1,11,I/O0*
G04 #@! TO.N,unconnected-(U1-I{slash}O0-Pad11)*
X51927500Y-42590000D03*
G04 #@! TO.P,U1,12,I/O1*
G04 #@! TO.N,unconnected-(U1-I{slash}O1-Pad12)*
X51927500Y-45130000D03*
G04 #@! TO.P,U1,13,I/O2*
G04 #@! TO.N,unconnected-(U1-I{slash}O2-Pad13)*
X51927500Y-47670000D03*
G04 #@! TO.P,U1,14,GND*
G04 #@! TO.N,Net-(J1-Pin_15)*
X51927500Y-50210000D03*
G04 #@! TO.P,U1,15,I/O3*
G04 #@! TO.N,unconnected-(U1-I{slash}O3-Pad15)*
X67485000Y-50210000D03*
G04 #@! TO.P,U1,16,I/O4*
G04 #@! TO.N,unconnected-(U1-I{slash}O4-Pad16)*
X67485000Y-47670000D03*
G04 #@! TO.P,U1,17,I/O5*
G04 #@! TO.N,unconnected-(U1-I{slash}O5-Pad17)*
X67485000Y-45130000D03*
G04 #@! TO.P,U1,18,I/O6*
G04 #@! TO.N,unconnected-(U1-I{slash}O6-Pad18)*
X67485000Y-42590000D03*
G04 #@! TO.P,U1,19,I/O7*
G04 #@! TO.N,unconnected-(U1-I{slash}O7-Pad19)*
X67485000Y-40050000D03*
G04 #@! TO.P,U1,20,~{CE}*
G04 #@! TO.N,Net-(J1-Pin_15)*
X67485000Y-37510000D03*
G04 #@! TO.P,U1,21,A10*
G04 #@! TO.N,Net-(U1-A10)*
X67485000Y-34970000D03*
G04 #@! TO.P,U1,22,~{OE}*
G04 #@! TO.N,Net-(U1-~{OE})*
X67485000Y-32430000D03*
G04 #@! TO.P,U1,23,A11*
G04 #@! TO.N,Net-(U1-A11)*
X67485000Y-29890000D03*
G04 #@! TO.P,U1,24,A9*
G04 #@! TO.N,Net-(U1-A9)*
X67485000Y-27350000D03*
G04 #@! TO.P,U1,25,A8*
G04 #@! TO.N,Net-(U1-A8)*
X67485000Y-24810000D03*
G04 #@! TO.P,U1,26*
G04 #@! TO.N,N/C*
X67485000Y-22270000D03*
G04 #@! TO.P,U1,27,~{WE}*
G04 #@! TO.N,Net-(U1-~{WE})*
X67485000Y-19730000D03*
G04 #@! TO.P,U1,28,VCC*
G04 #@! TO.N,Net-(A1-VSYS)*
X67485000Y-17190000D03*
G04 #@! TD*
D16*
G04 #@! TO.P,J1,1,Pin_1*
G04 #@! TO.N,Net-(A1-GP13)*
X22485000Y-48700000D03*
D17*
G04 #@! TO.P,J1,2,Pin_2*
G04 #@! TO.N,Net-(A1-GP14)*
X19945000Y-48700000D03*
G04 #@! TO.P,J1,3,Pin_3*
G04 #@! TO.N,Net-(A1-GP15)*
X22485000Y-46160000D03*
G04 #@! TO.P,J1,4,Pin_4*
G04 #@! TO.N,Net-(A1-GP16)*
X19945000Y-46160000D03*
G04 #@! TO.P,J1,5,Pin_5*
G04 #@! TO.N,Net-(A1-GP17)*
X22485000Y-43620000D03*
G04 #@! TO.P,J1,6,Pin_6*
G04 #@! TO.N,Net-(A1-GP18)*
X19945000Y-43620000D03*
G04 #@! TO.P,J1,7,Pin_7*
G04 #@! TO.N,Net-(A1-GP19)*
X22485000Y-41080000D03*
G04 #@! TO.P,J1,8,Pin_8*
G04 #@! TO.N,Net-(A1-GP20)*
X19945000Y-41080000D03*
G04 #@! TO.P,J1,9,Pin_9*
G04 #@! TO.N,Net-(A1-GP21)*
X22485000Y-38540000D03*
G04 #@! TO.P,J1,10,Pin_10*
G04 #@! TO.N,Net-(A1-GP22)*
X19945000Y-38540000D03*
G04 #@! TO.P,J1,11,Pin_11*
G04 #@! TO.N,Net-(A1-GP26)*
X22485000Y-36000000D03*
G04 #@! TO.P,J1,12,Pin_12*
G04 #@! TO.N,Net-(A1-GP27)*
X19945000Y-36000000D03*
G04 #@! TO.P,J1,13,Pin_13*
G04 #@! TO.N,Net-(A1-GP28)*
X22485000Y-33460000D03*
G04 #@! TO.P,J1,14,Pin_14*
G04 #@! TO.N,Net-(A1-VBUS)*
X19945000Y-33460000D03*
G04 #@! TO.P,J1,15,Pin_15*
G04 #@! TO.N,Net-(J1-Pin_15)*
X22485000Y-30920000D03*
G04 #@! TO.P,J1,16,Pin_16*
G04 #@! TO.N,Net-(A1-VSYS)*
X19945000Y-30920000D03*
G04 #@! TD*
D18*
G04 #@! TO.P,A1,1,GP0*
G04 #@! TO.N,unconnected-(A1-GP0-Pad1)*
X29900000Y-17740000D03*
G04 #@! TO.P,A1,2,GP1*
G04 #@! TO.N,unconnected-(A1-GP1-Pad2)*
X29900000Y-20280000D03*
D19*
G04 #@! TO.P,A1,3,GND*
G04 #@! TO.N,unconnected-(A1-GND-Pad3)*
X29900000Y-22820000D03*
D18*
G04 #@! TO.P,A1,4,GP2*
G04 #@! TO.N,unconnected-(A1-GP2-Pad4)*
X29900000Y-25360000D03*
G04 #@! TO.P,A1,5,GP3*
G04 #@! TO.N,unconnected-(A1-GP3-Pad5)*
X29900000Y-27900000D03*
G04 #@! TO.P,A1,6,GP4*
G04 #@! TO.N,unconnected-(A1-GP4-Pad6)*
X29900000Y-30440000D03*
G04 #@! TO.P,A1,7,GP5*
G04 #@! TO.N,unconnected-(A1-GP5-Pad7)*
X29900000Y-32980000D03*
D19*
G04 #@! TO.P,A1,8,GND*
G04 #@! TO.N,unconnected-(A1-GND-Pad8)*
X29900000Y-35520000D03*
D18*
G04 #@! TO.P,A1,9,GP6*
G04 #@! TO.N,unconnected-(A1-GP6-Pad9)*
X29900000Y-38060000D03*
G04 #@! TO.P,A1,10,GP7*
G04 #@! TO.N,unconnected-(A1-GP7-Pad10)*
X29900000Y-40600000D03*
G04 #@! TO.P,A1,11,GP8*
G04 #@! TO.N,Net-(A1-GP8)*
X29900000Y-43140000D03*
G04 #@! TO.P,A1,12,GP9*
G04 #@! TO.N,Net-(A1-GP9)*
X29900000Y-45680000D03*
D19*
G04 #@! TO.P,A1,13,GND*
G04 #@! TO.N,unconnected-(A1-GND-Pad13)*
X29900000Y-48220000D03*
D18*
G04 #@! TO.P,A1,14,GP10*
G04 #@! TO.N,Net-(A1-GP10)*
X29900000Y-50760000D03*
G04 #@! TO.P,A1,15,GP11*
G04 #@! TO.N,Net-(A1-GP11)*
X29900000Y-53300000D03*
G04 #@! TO.P,A1,16,GP12*
G04 #@! TO.N,Net-(A1-GP12)*
X29941881Y-55840000D03*
G04 #@! TO.P,A1,17,GP13*
G04 #@! TO.N,Net-(A1-GP13)*
X29900000Y-58380000D03*
D19*
G04 #@! TO.P,A1,18,GND*
G04 #@! TO.N,unconnected-(A1-GND-Pad18)*
X29900000Y-60920000D03*
D18*
G04 #@! TO.P,A1,19,GP14*
G04 #@! TO.N,Net-(A1-GP14)*
X29900000Y-63460000D03*
G04 #@! TO.P,A1,20,GP15*
G04 #@! TO.N,Net-(A1-GP15)*
X29900000Y-66000000D03*
G04 #@! TO.P,A1,21,GP16*
G04 #@! TO.N,Net-(A1-GP16)*
X47680000Y-66000000D03*
G04 #@! TO.P,A1,22,GP17*
G04 #@! TO.N,Net-(A1-GP17)*
X47680000Y-63460000D03*
D19*
G04 #@! TO.P,A1,23,GND*
G04 #@! TO.N,unconnected-(A1-GND-Pad23)*
X47680000Y-60920000D03*
D18*
G04 #@! TO.P,A1,24,GP18*
G04 #@! TO.N,Net-(A1-GP18)*
X47680000Y-58380000D03*
G04 #@! TO.P,A1,25,GP19*
G04 #@! TO.N,Net-(A1-GP19)*
X47680000Y-55840000D03*
G04 #@! TO.P,A1,26,GP20*
G04 #@! TO.N,Net-(A1-GP20)*
X47680000Y-53300000D03*
G04 #@! TO.P,A1,27,GP21*
G04 #@! TO.N,Net-(A1-GP21)*
X47680000Y-50760000D03*
D19*
G04 #@! TO.P,A1,28,GND*
G04 #@! TO.N,unconnected-(A1-GND-Pad28)*
X47680000Y-48220000D03*
D18*
G04 #@! TO.P,A1,29,GP22*
G04 #@! TO.N,Net-(A1-GP22)*
X47680000Y-45680000D03*
G04 #@! TO.P,A1,30,RUN*
G04 #@! TO.N,unconnected-(A1-RUN-Pad30)*
X47680000Y-43140000D03*
G04 #@! TO.P,A1,31,GP26*
G04 #@! TO.N,Net-(A1-GP26)*
X47680000Y-40600000D03*
G04 #@! TO.P,A1,32,GP27*
G04 #@! TO.N,Net-(A1-GP27)*
X47680000Y-38060000D03*
D19*
G04 #@! TO.P,A1,33,AGND*
G04 #@! TO.N,unconnected-(A1-AGND-Pad33)*
X47680000Y-35520000D03*
D18*
G04 #@! TO.P,A1,34,GP28*
G04 #@! TO.N,Net-(A1-GP28)*
X47680000Y-32980000D03*
G04 #@! TO.P,A1,35,ADC_VREF*
G04 #@! TO.N,unconnected-(A1-ADC_VREF-Pad35)*
X47680000Y-30440000D03*
G04 #@! TO.P,A1,36,3V3_OUT*
G04 #@! TO.N,unconnected-(A1-3V3_OUT-Pad36)*
X47680000Y-27900000D03*
G04 #@! TO.P,A1,37,3V3_EN*
G04 #@! TO.N,unconnected-(A1-3V3_EN-Pad37)*
X47680000Y-25360000D03*
D19*
G04 #@! TO.P,A1,38,GND*
G04 #@! TO.N,Net-(J1-Pin_15)*
X47680000Y-22820000D03*
D18*
G04 #@! TO.P,A1,39,VSYS*
G04 #@! TO.N,Net-(A1-VSYS)*
X47680000Y-20280000D03*
G04 #@! TO.P,A1,40,VBUS*
G04 #@! TO.N,Net-(A1-VBUS)*
X47680000Y-17740000D03*
G04 #@! TD*
D20*
G04 #@! TO.N,Net-(A1-GP8)*
X60985000Y-44700000D03*
X58485000Y-40700000D03*
X60985000Y-38200000D03*
X59485000Y-36700000D03*
X59485000Y-33700000D03*
G04 #@! TO.N,Net-(A1-GP9)*
X61985000Y-43700000D03*
X57485000Y-38200000D03*
X57985000Y-34200000D03*
G04 #@! TO.N,Net-(A1-VSYS)*
X57985000Y-37200000D03*
X58985000Y-34700000D03*
X62485000Y-25700000D03*
G04 #@! TO.N,Net-(U3-QH')*
X67485000Y-55200000D03*
G04 #@! TD*
D21*
G04 #@! TO.N,Net-(J1-Pin_15)*
X22485000Y-29700000D02*
X22485000Y-30920000D01*
X28800000Y-23385000D02*
X22485000Y-29700000D01*
X29087352Y-21720000D02*
X28800000Y-22007352D01*
X30465000Y-21720000D02*
X29087352Y-21720000D01*
X28800000Y-22007352D02*
X28800000Y-23385000D01*
X32485000Y-19700000D02*
X30465000Y-21720000D01*
X48319365Y-15545000D02*
X44164365Y-19700000D01*
X66828000Y-15545000D02*
X48319365Y-15545000D01*
X67484000Y-16201000D02*
X66828000Y-15545000D01*
X44164365Y-19700000D02*
X32485000Y-19700000D01*
X68386000Y-25799000D02*
X68485000Y-25700000D01*
X65126000Y-25799000D02*
X68386000Y-25799000D01*
X67986000Y-16201000D02*
X67484000Y-16201000D01*
X63955000Y-26970000D02*
X65126000Y-25799000D01*
X68485000Y-16700000D02*
X67986000Y-16201000D01*
X68485000Y-25700000D02*
X68485000Y-16700000D01*
G04 #@! TO.N,Net-(A1-GP8)*
X60985000Y-43200000D02*
X60985000Y-44700000D01*
X58485000Y-40700000D02*
X60985000Y-43200000D01*
X59485000Y-36700000D02*
X60985000Y-38200000D01*
X59485000Y-27851471D02*
X59485000Y-33700000D01*
X62906471Y-24430000D02*
X59485000Y-27851471D01*
X63955000Y-24430000D02*
X62906471Y-24430000D01*
G04 #@! TO.N,Net-(A1-VSYS)*
X62485000Y-33700000D02*
X62485000Y-33120000D01*
X61485000Y-34700000D02*
X62485000Y-33700000D01*
X58985000Y-34700000D02*
X61485000Y-34700000D01*
G04 #@! TO.N,Net-(A1-GP9)*
X61985000Y-42700000D02*
X61985000Y-43700000D01*
X57485000Y-38200000D02*
X61985000Y-42700000D01*
X58385000Y-33800000D02*
X57985000Y-34200000D01*
X58385000Y-27460000D02*
X58385000Y-33800000D01*
X63955000Y-21890000D02*
X58385000Y-27460000D01*
G04 #@! TO.N,Net-(A1-VSYS)*
X61900000Y-41115000D02*
X62690000Y-41115000D01*
X57985000Y-37200000D02*
X61900000Y-41115000D01*
X62485000Y-33120000D02*
X63955000Y-34590000D01*
X62485000Y-25700000D02*
X62485000Y-33120000D01*
G04 #@! TO.N,Net-(U1-~{WE})*
X55962705Y-20719000D02*
X66496000Y-20719000D01*
X66496000Y-20719000D02*
X67485000Y-19730000D01*
X54985000Y-21696705D02*
X55962705Y-20719000D01*
X54750000Y-36786705D02*
X54985000Y-36551705D01*
X54750000Y-39808295D02*
X54750000Y-36786705D01*
X56840000Y-66965686D02*
X54300000Y-64425686D01*
X56840000Y-67955635D02*
X56840000Y-66965686D01*
X54985000Y-36551705D02*
X54985000Y-21696705D01*
X56985000Y-56200000D02*
X56985000Y-42043295D01*
X56985000Y-42043295D02*
X54750000Y-39808295D01*
X57484365Y-68600000D02*
X56840000Y-67955635D01*
X64460000Y-68600000D02*
X57484365Y-68600000D01*
X65560000Y-67500000D02*
X64460000Y-68600000D01*
X54300000Y-64425686D02*
X54300000Y-58885000D01*
X54300000Y-58885000D02*
X56985000Y-56200000D01*
G04 #@! TO.N,Net-(U3-QH')*
X67485000Y-53540000D02*
X63955000Y-50010000D01*
X67485000Y-55200000D02*
X67485000Y-53540000D01*
G04 #@! TO.N,Net-(U1-A9)*
X68985000Y-58331019D02*
X68985000Y-28850000D01*
X69600000Y-68585000D02*
X69600000Y-58946019D01*
X69600000Y-58946019D02*
X68985000Y-58331019D01*
X67985000Y-70200000D02*
X69600000Y-68585000D01*
X49985000Y-70200000D02*
X67985000Y-70200000D01*
X29826246Y-57280000D02*
X37065000Y-57280000D01*
X28800000Y-56253754D02*
X29826246Y-57280000D01*
X29444365Y-42040000D02*
X28800000Y-42684365D01*
X37065000Y-57280000D02*
X49985000Y-70200000D01*
X30355635Y-42040000D02*
X29444365Y-42040000D01*
X32895635Y-44580000D02*
X30355635Y-42040000D01*
X49166003Y-45610368D02*
X48135635Y-44580000D01*
X48135635Y-44580000D02*
X32895635Y-44580000D01*
X28800000Y-42684365D02*
X28800000Y-56253754D01*
X49166003Y-46315317D02*
X49166003Y-45610368D01*
X51944000Y-48659000D02*
X51509686Y-48659000D01*
X52916500Y-51991500D02*
X52916500Y-49631500D01*
X68985000Y-28850000D02*
X67485000Y-27350000D01*
X51509686Y-48659000D02*
X49166003Y-46315317D01*
X52916500Y-49631500D02*
X51944000Y-48659000D01*
X56015000Y-55090000D02*
X52916500Y-51991500D01*
G04 #@! TO.N,Net-(J1-Pin_15)*
X66726000Y-31441000D02*
X68226000Y-31441000D01*
X64820000Y-29535000D02*
X66726000Y-31441000D01*
X68485000Y-31700000D02*
X68485000Y-35700000D01*
X63955000Y-26970000D02*
X64820000Y-27835000D01*
X68226000Y-31441000D02*
X68485000Y-31700000D01*
X64820000Y-27835000D02*
X64820000Y-29535000D01*
X68226000Y-35959000D02*
X68485000Y-35700000D01*
X68226000Y-35959000D02*
X68226000Y-36769000D01*
X68226000Y-36769000D02*
X67485000Y-37510000D01*
G04 #@! TO.N,Net-(A1-VSYS)*
X62690000Y-41115000D02*
X63955000Y-39850000D01*
X62690000Y-53825000D02*
X62690000Y-41115000D01*
X63955000Y-55090000D02*
X62690000Y-53825000D01*
G04 #@! TO.N,Net-(A1-GP8)*
X33540000Y-46780000D02*
X29900000Y-43140000D01*
X49065000Y-46780000D02*
X33540000Y-46780000D01*
X50985000Y-48700000D02*
X49065000Y-46780000D01*
X50938500Y-68344186D02*
X50938500Y-48746500D01*
X52394314Y-69800000D02*
X50938500Y-68344186D01*
X67355635Y-69800000D02*
X52394314Y-69800000D01*
X69200000Y-67955635D02*
X67355635Y-69800000D01*
X64288295Y-54200000D02*
X69200000Y-59111705D01*
X50938500Y-48746500D02*
X50985000Y-48700000D01*
X63985000Y-54200000D02*
X64288295Y-54200000D01*
X69200000Y-59111705D02*
X69200000Y-67955635D01*
X63090000Y-53305000D02*
X63985000Y-54200000D01*
X63090000Y-45795000D02*
X63090000Y-53305000D01*
X63955000Y-44930000D02*
X63090000Y-45795000D01*
G04 #@! TO.N,Net-(J1-Pin_15)*
X51485000Y-50652500D02*
X51927500Y-50210000D01*
X51485000Y-68325000D02*
X51485000Y-50652500D01*
X52560000Y-69400000D02*
X51485000Y-68325000D01*
X66200000Y-69400000D02*
X52560000Y-69400000D01*
X68100000Y-67500000D02*
X66200000Y-69400000D01*
G04 #@! TO.N,Net-(A1-VSYS)*
X53960000Y-67615635D02*
X53960000Y-64675000D01*
X55344365Y-69000000D02*
X53960000Y-67615635D01*
X53960000Y-64675000D02*
X52860000Y-63575000D01*
X65615635Y-69000000D02*
X55344365Y-69000000D01*
X66660000Y-67955635D02*
X65615635Y-69000000D01*
X66660000Y-57795000D02*
X66660000Y-67955635D01*
X63955000Y-55090000D02*
X66660000Y-57795000D01*
X52860000Y-63575000D02*
X52860000Y-59880000D01*
G04 #@! TO.N,Net-(J1-Pin_15)*
X54646000Y-18179000D02*
X56015000Y-16810000D01*
X51521000Y-18179000D02*
X54646000Y-18179000D01*
X47680000Y-22820000D02*
X47680000Y-22020000D01*
X47680000Y-22020000D02*
X51521000Y-18179000D01*
G04 #@! TO.N,Net-(A1-VSYS)*
X65325000Y-19350000D02*
X67485000Y-17190000D01*
X63955000Y-19350000D02*
X65325000Y-19350000D01*
X66240000Y-15945000D02*
X67485000Y-17190000D01*
X51241000Y-15945000D02*
X66240000Y-15945000D01*
X47680000Y-19506000D02*
X51241000Y-15945000D01*
X47680000Y-20280000D02*
X47680000Y-19506000D01*
G04 #@! TO.N,Net-(J1-Pin_15)*
X41500000Y-29000000D02*
X47680000Y-22820000D01*
X29685000Y-29000000D02*
X41500000Y-29000000D01*
X24075000Y-34610000D02*
X29685000Y-29000000D01*
X19395000Y-34610000D02*
X24075000Y-34610000D01*
X18795000Y-34010000D02*
X19395000Y-34610000D01*
X18795000Y-30390000D02*
X18795000Y-34010000D01*
X19415000Y-29770000D02*
X18795000Y-30390000D01*
X21335000Y-29770000D02*
X19415000Y-29770000D01*
X22485000Y-30920000D02*
X21335000Y-29770000D01*
G04 #@! TO.N,Net-(A1-VSYS)*
X22961346Y-32070000D02*
X21095000Y-32070000D01*
X21095000Y-32070000D02*
X19945000Y-30920000D01*
X23635000Y-31396346D02*
X22961346Y-32070000D01*
X23635000Y-29550000D02*
X23635000Y-31396346D01*
X29265000Y-23920000D02*
X23635000Y-29550000D01*
X44040000Y-23920000D02*
X29265000Y-23920000D01*
X47680000Y-20280000D02*
X44040000Y-23920000D01*
G04 #@! TO.N,Net-(U1-~{OE})*
X56542705Y-35559000D02*
X64356000Y-35559000D01*
X57485000Y-40003295D02*
X55150000Y-37668295D01*
X64356000Y-35559000D02*
X67485000Y-32430000D01*
X57485000Y-58439365D02*
X57485000Y-40003295D01*
X56500000Y-59424365D02*
X57485000Y-58439365D01*
X56500000Y-66060000D02*
X56500000Y-59424365D01*
X57940000Y-67500000D02*
X56500000Y-66060000D01*
X55150000Y-37668295D02*
X55150000Y-36951705D01*
X55150000Y-36951705D02*
X56542705Y-35559000D01*
G04 #@! TO.N,Net-(J1-Pin_15)*
X64985000Y-46440000D02*
X63955000Y-47470000D01*
X64985000Y-35959000D02*
X68226000Y-35959000D01*
X64985000Y-35959000D02*
X64985000Y-46440000D01*
X57366000Y-35959000D02*
X64985000Y-35959000D01*
G04 #@! TO.N,Net-(U1-A12)*
X50966000Y-46681000D02*
X49485000Y-45200000D01*
X55226000Y-46681000D02*
X50966000Y-46681000D01*
X56015000Y-47470000D02*
X55226000Y-46681000D01*
G04 #@! TO.N,Net-(J1-Pin_15)*
X56015000Y-37310000D02*
X57366000Y-35959000D01*
X67675000Y-37700000D02*
X67485000Y-37510000D01*
G04 #@! TO.N,Net-(U1-A12)*
X49485000Y-45200000D02*
X49485000Y-22172500D01*
X49485000Y-22172500D02*
X51927500Y-19730000D01*
G04 #@! TD*
M02*
