G04 #@! TF.GenerationSoftware,KiCad,Pcbnew,8.0.0*
G04 #@! TF.CreationDate,2024-04-22T20:14:39-05:00*
G04 #@! TF.ProjectId,SensorModuleBase,53656e73-6f72-44d6-9f64-756c65426173,rev?*
G04 #@! TF.SameCoordinates,Original*
G04 #@! TF.FileFunction,Copper,L2,Bot*
G04 #@! TF.FilePolarity,Positive*
%FSLAX46Y46*%
G04 Gerber Fmt 4.6, Leading zero omitted, Abs format (unit mm)*
G04 Created by KiCad (PCBNEW 8.0.0) date 2024-04-22 20:14:39*
%MOMM*%
%LPD*%
G01*
G04 APERTURE LIST*
G04 Aperture macros list*
%AMRoundRect*
0 Rectangle with rounded corners*
0 $1 Rounding radius*
0 $2 $3 $4 $5 $6 $7 $8 $9 X,Y pos of 4 corners*
0 Add a 4 corners polygon primitive as box body*
4,1,4,$2,$3,$4,$5,$6,$7,$8,$9,$2,$3,0*
0 Add four circle primitives for the rounded corners*
1,1,$1+$1,$2,$3*
1,1,$1+$1,$4,$5*
1,1,$1+$1,$6,$7*
1,1,$1+$1,$8,$9*
0 Add four rect primitives between the rounded corners*
20,1,$1+$1,$2,$3,$4,$5,0*
20,1,$1+$1,$4,$5,$6,$7,0*
20,1,$1+$1,$6,$7,$8,$9,0*
20,1,$1+$1,$8,$9,$2,$3,0*%
G04 Aperture macros list end*
G04 #@! TA.AperFunction,ComponentPad*
%ADD10R,1.600000X1.600000*%
G04 #@! TD*
G04 #@! TA.AperFunction,ComponentPad*
%ADD11O,1.600000X1.600000*%
G04 #@! TD*
G04 #@! TA.AperFunction,ComponentPad*
%ADD12C,1.600000*%
G04 #@! TD*
G04 #@! TA.AperFunction,ComponentPad*
%ADD13RoundRect,0.200000X-0.600000X-0.600000X0.600000X-0.600000X0.600000X0.600000X-0.600000X0.600000X0*%
G04 #@! TD*
G04 #@! TA.AperFunction,ComponentPad*
%ADD14R,1.378000X1.378000*%
G04 #@! TD*
G04 #@! TA.AperFunction,ComponentPad*
%ADD15C,1.378000*%
G04 #@! TD*
G04 #@! TA.AperFunction,ComponentPad*
%ADD16R,1.130000X1.130000*%
G04 #@! TD*
G04 #@! TA.AperFunction,ComponentPad*
%ADD17C,1.130000*%
G04 #@! TD*
G04 #@! TA.AperFunction,ComponentPad*
%ADD18RoundRect,0.250000X-0.600000X0.600000X-0.600000X-0.600000X0.600000X-0.600000X0.600000X0.600000X0*%
G04 #@! TD*
G04 #@! TA.AperFunction,ComponentPad*
%ADD19C,1.700000*%
G04 #@! TD*
G04 #@! TA.AperFunction,ViaPad*
%ADD20C,0.600000*%
G04 #@! TD*
G04 #@! TA.AperFunction,Conductor*
%ADD21C,0.200000*%
G04 #@! TD*
G04 APERTURE END LIST*
D10*
G04 #@! TO.P,U2,1*
G04 #@! TO.N,Net-(A1-GP11)*
X153282916Y-97154934D03*
D11*
G04 #@! TO.P,U2,2*
X150742916Y-97154934D03*
G04 #@! TO.P,U2,3*
G04 #@! TO.N,Net-(U1-~{OE})*
X148202916Y-97154934D03*
G04 #@! TO.P,U2,4*
G04 #@! TO.N,Net-(A1-GP12)*
X145662916Y-97154934D03*
G04 #@! TO.P,U2,5*
X143122916Y-97154934D03*
G04 #@! TO.P,U2,6*
G04 #@! TO.N,Net-(U1-~{WE})*
X140582916Y-97154934D03*
G04 #@! TO.P,U2,7,GND*
G04 #@! TO.N,Net-(J1-Pin_15)*
X138042916Y-97154934D03*
G04 #@! TO.P,U2,8*
G04 #@! TO.N,N/C*
X138042916Y-104774934D03*
G04 #@! TO.P,U2,9*
X140582916Y-104774934D03*
G04 #@! TO.P,U2,10*
X143122916Y-104774934D03*
G04 #@! TO.P,U2,11*
X145662916Y-104774934D03*
G04 #@! TO.P,U2,12*
X148202916Y-104774934D03*
G04 #@! TO.P,U2,13*
X150742916Y-104774934D03*
G04 #@! TO.P,U2,14,VCC*
G04 #@! TO.N,Net-(A1-VSYS)*
X153282916Y-104774934D03*
G04 #@! TD*
D12*
G04 #@! TO.P,A1,1,GP0*
G04 #@! TO.N,Net-(A1-GP0)*
X114610000Y-62720000D03*
G04 #@! TO.P,A1,2,GP1*
G04 #@! TO.N,Net-(A1-GP1)*
X114610000Y-65260000D03*
D13*
G04 #@! TO.P,A1,3,GND*
G04 #@! TO.N,unconnected-(A1-GND-Pad3)*
X114610000Y-67800000D03*
D12*
G04 #@! TO.P,A1,4,GP2*
G04 #@! TO.N,Net-(A1-GP2)*
X114610000Y-70340000D03*
G04 #@! TO.P,A1,5,GP3*
G04 #@! TO.N,Net-(A1-GP3)*
X114610000Y-72880000D03*
G04 #@! TO.P,A1,6,GP4*
G04 #@! TO.N,Net-(A1-GP4)*
X114610000Y-75420000D03*
G04 #@! TO.P,A1,7,GP5*
G04 #@! TO.N,Net-(A1-GP5)*
X114610000Y-77960000D03*
D13*
G04 #@! TO.P,A1,8,GND*
G04 #@! TO.N,unconnected-(A1-GND-Pad8)*
X114610000Y-80500000D03*
D12*
G04 #@! TO.P,A1,9,GP6*
G04 #@! TO.N,Net-(A1-GP6)*
X114610000Y-83040000D03*
G04 #@! TO.P,A1,10,GP7*
G04 #@! TO.N,Net-(A1-GP7)*
X114610000Y-85580000D03*
G04 #@! TO.P,A1,11,GP8*
G04 #@! TO.N,Net-(A1-GP8)*
X114610000Y-88120000D03*
G04 #@! TO.P,A1,12,GP9*
G04 #@! TO.N,Net-(A1-GP9)*
X114610000Y-90660000D03*
D13*
G04 #@! TO.P,A1,13,GND*
G04 #@! TO.N,unconnected-(A1-GND-Pad13)*
X114610000Y-93200000D03*
D12*
G04 #@! TO.P,A1,14,GP10*
G04 #@! TO.N,Net-(A1-GP10)*
X114610000Y-95740000D03*
G04 #@! TO.P,A1,15,GP11*
G04 #@! TO.N,Net-(A1-GP11)*
X114610000Y-98280000D03*
G04 #@! TO.P,A1,16,GP12*
G04 #@! TO.N,Net-(A1-GP12)*
X114651881Y-100820000D03*
G04 #@! TO.P,A1,17,GP13*
G04 #@! TO.N,Net-(A1-GP13)*
X114610000Y-103360000D03*
D13*
G04 #@! TO.P,A1,18,GND*
G04 #@! TO.N,unconnected-(A1-GND-Pad18)*
X114610000Y-105900000D03*
D12*
G04 #@! TO.P,A1,19,GP14*
G04 #@! TO.N,Net-(A1-GP14)*
X114610000Y-108440000D03*
G04 #@! TO.P,A1,20,GP15*
G04 #@! TO.N,Net-(A1-GP15)*
X114610000Y-110980000D03*
G04 #@! TO.P,A1,21,GP16*
G04 #@! TO.N,Net-(A1-GP16)*
X132390000Y-110980000D03*
G04 #@! TO.P,A1,22,GP17*
G04 #@! TO.N,Net-(A1-GP17)*
X132390000Y-108440000D03*
D13*
G04 #@! TO.P,A1,23,GND*
G04 #@! TO.N,unconnected-(A1-GND-Pad23)*
X132390000Y-105900000D03*
D12*
G04 #@! TO.P,A1,24,GP18*
G04 #@! TO.N,Net-(A1-GP18)*
X132390000Y-103360000D03*
G04 #@! TO.P,A1,25,GP19*
G04 #@! TO.N,Net-(A1-GP19)*
X132390000Y-100820000D03*
G04 #@! TO.P,A1,26,GP20*
G04 #@! TO.N,Net-(A1-GP20)*
X132390000Y-98280000D03*
G04 #@! TO.P,A1,27,GP21*
G04 #@! TO.N,Net-(A1-GP21)*
X132390000Y-95740000D03*
D13*
G04 #@! TO.P,A1,28,GND*
G04 #@! TO.N,unconnected-(A1-GND-Pad28)*
X132390000Y-93200000D03*
D12*
G04 #@! TO.P,A1,29,GP22*
G04 #@! TO.N,Net-(A1-GP22)*
X132390000Y-90660000D03*
G04 #@! TO.P,A1,30,RUN*
G04 #@! TO.N,unconnected-(A1-RUN-Pad30)*
X132390000Y-88120000D03*
G04 #@! TO.P,A1,31,GP26*
G04 #@! TO.N,Net-(A1-GP26)*
X132390000Y-85580000D03*
G04 #@! TO.P,A1,32,GP27*
G04 #@! TO.N,Net-(A1-GP27)*
X132390000Y-83040000D03*
D13*
G04 #@! TO.P,A1,33,AGND*
G04 #@! TO.N,unconnected-(A1-AGND-Pad33)*
X132390000Y-80500000D03*
D12*
G04 #@! TO.P,A1,34,GP28*
G04 #@! TO.N,Net-(A1-GP28)*
X132390000Y-77960000D03*
G04 #@! TO.P,A1,35,ADC_VREF*
G04 #@! TO.N,unconnected-(A1-ADC_VREF-Pad35)*
X132390000Y-75420000D03*
G04 #@! TO.P,A1,36,3V3_OUT*
G04 #@! TO.N,unconnected-(A1-3V3_OUT-Pad36)*
X132390000Y-72880000D03*
G04 #@! TO.P,A1,37,3V3_EN*
G04 #@! TO.N,Net-(A1-3V3_EN)*
X132390000Y-70340000D03*
D13*
G04 #@! TO.P,A1,38,GND*
G04 #@! TO.N,Net-(J1-Pin_15)*
X132390000Y-67800000D03*
D12*
G04 #@! TO.P,A1,39,VSYS*
G04 #@! TO.N,Net-(A1-VSYS)*
X132390000Y-65260000D03*
G04 #@! TO.P,A1,40,VBUS*
G04 #@! TO.N,unconnected-(A1-VBUS-Pad40)*
X132390000Y-62720000D03*
G04 #@! TD*
D14*
G04 #@! TO.P,U1,1*
G04 #@! TO.N,N/C*
X153000000Y-92860000D03*
D15*
G04 #@! TO.P,U1,2,A12*
G04 #@! TO.N,Net-(U1-A12)*
X153000000Y-90320000D03*
G04 #@! TO.P,U1,3,A7*
G04 #@! TO.N,Net-(U1-A7)*
X153000000Y-87780000D03*
G04 #@! TO.P,U1,4,A6*
G04 #@! TO.N,Net-(U1-A6)*
X153000000Y-85240000D03*
G04 #@! TO.P,U1,5,A5*
G04 #@! TO.N,Net-(U1-A5)*
X153000000Y-82700000D03*
G04 #@! TO.P,U1,6,A4*
G04 #@! TO.N,Net-(U1-A4)*
X153000000Y-80160000D03*
G04 #@! TO.P,U1,7,A3*
G04 #@! TO.N,Net-(U1-A3)*
X153000000Y-77620000D03*
G04 #@! TO.P,U1,8,A2*
G04 #@! TO.N,Net-(U1-A2)*
X153000000Y-75080000D03*
G04 #@! TO.P,U1,9,A1*
G04 #@! TO.N,Net-(U1-A1)*
X153000000Y-72540000D03*
G04 #@! TO.P,U1,10,A0*
G04 #@! TO.N,Net-(U1-A0)*
X153000000Y-70000000D03*
G04 #@! TO.P,U1,11,I/O0*
G04 #@! TO.N,Net-(A1-GP0)*
X153000000Y-67460000D03*
G04 #@! TO.P,U1,12,I/O1*
G04 #@! TO.N,Net-(A1-GP1)*
X153000000Y-64920000D03*
G04 #@! TO.P,U1,13,I/O2*
G04 #@! TO.N,Net-(A1-GP2)*
X153000000Y-62380000D03*
G04 #@! TO.P,U1,14,GND*
G04 #@! TO.N,Net-(J1-Pin_15)*
X153000000Y-59840000D03*
G04 #@! TO.P,U1,15,I/O3*
G04 #@! TO.N,Net-(A1-GP3)*
X137442500Y-59840000D03*
G04 #@! TO.P,U1,16,I/O4*
G04 #@! TO.N,Net-(A1-GP4)*
X137442500Y-62380000D03*
G04 #@! TO.P,U1,17,I/O5*
G04 #@! TO.N,Net-(A1-GP5)*
X137442500Y-64920000D03*
G04 #@! TO.P,U1,18,I/O6*
G04 #@! TO.N,Net-(A1-GP6)*
X137442500Y-67460000D03*
G04 #@! TO.P,U1,19,I/O7*
G04 #@! TO.N,Net-(A1-GP7)*
X137442500Y-70000000D03*
G04 #@! TO.P,U1,20,~{CE}*
G04 #@! TO.N,Net-(J1-Pin_15)*
X137442500Y-72540000D03*
G04 #@! TO.P,U1,21,A10*
G04 #@! TO.N,Net-(U1-A10)*
X137442500Y-75080000D03*
G04 #@! TO.P,U1,22,~{OE}*
G04 #@! TO.N,Net-(U1-~{OE})*
X137442500Y-77620000D03*
G04 #@! TO.P,U1,23,A11*
G04 #@! TO.N,Net-(U1-A11)*
X137442500Y-80160000D03*
G04 #@! TO.P,U1,24,A9*
G04 #@! TO.N,Net-(U1-A9)*
X137442500Y-82700000D03*
G04 #@! TO.P,U1,25,A8*
G04 #@! TO.N,Net-(U1-A8)*
X137442500Y-85240000D03*
G04 #@! TO.P,U1,26*
G04 #@! TO.N,N/C*
X137442500Y-87780000D03*
G04 #@! TO.P,U1,27,~{WE}*
G04 #@! TO.N,Net-(U1-~{WE})*
X137442500Y-90320000D03*
G04 #@! TO.P,U1,28,VCC*
G04 #@! TO.N,Net-(A1-VSYS)*
X137442500Y-92860000D03*
G04 #@! TD*
D16*
G04 #@! TO.P,U3,1,QB*
G04 #@! TO.N,Net-(U1-A1)*
X157030000Y-58760000D03*
D17*
G04 #@! TO.P,U3,2,QC*
G04 #@! TO.N,Net-(U1-A2)*
X157030000Y-61300000D03*
G04 #@! TO.P,U3,3,QD*
G04 #@! TO.N,Net-(U1-A3)*
X157030000Y-63840000D03*
G04 #@! TO.P,U3,4,QE*
G04 #@! TO.N,Net-(U1-A4)*
X157030000Y-66380000D03*
G04 #@! TO.P,U3,5,QF*
G04 #@! TO.N,Net-(U1-A5)*
X157030000Y-68920000D03*
G04 #@! TO.P,U3,6,QG*
G04 #@! TO.N,Net-(U1-A6)*
X157030000Y-71460000D03*
G04 #@! TO.P,U3,7,QH*
G04 #@! TO.N,Net-(U1-A7)*
X157030000Y-74000000D03*
G04 #@! TO.P,U3,8,GND*
G04 #@! TO.N,Net-(J1-Pin_15)*
X157030000Y-76540000D03*
G04 #@! TO.P,U3,9,QH'*
G04 #@! TO.N,Net-(U3-QH')*
X164970000Y-76540000D03*
G04 #@! TO.P,U3,10,~{SRCLR}*
G04 #@! TO.N,Net-(A1-VSYS)*
X164970000Y-74000000D03*
G04 #@! TO.P,U3,11,SRCLK*
G04 #@! TO.N,Net-(A1-GP9)*
X164970000Y-71460000D03*
G04 #@! TO.P,U3,12,RCLK*
G04 #@! TO.N,Net-(A1-GP8)*
X164970000Y-68920000D03*
G04 #@! TO.P,U3,13,~{OE}*
G04 #@! TO.N,Net-(J1-Pin_15)*
X164970000Y-66380000D03*
G04 #@! TO.P,U3,14,SER*
G04 #@! TO.N,Net-(A1-GP10)*
X164970000Y-63840000D03*
G04 #@! TO.P,U3,15,QA*
G04 #@! TO.N,Net-(U1-A0)*
X164970000Y-61300000D03*
G04 #@! TO.P,U3,16,VCC*
G04 #@! TO.N,Net-(A1-VSYS)*
X164970000Y-58760000D03*
G04 #@! TD*
D16*
G04 #@! TO.P,U4,1,QB*
G04 #@! TO.N,Net-(U1-A9)*
X156985000Y-80760000D03*
D17*
G04 #@! TO.P,U4,2,QC*
G04 #@! TO.N,Net-(U1-A10)*
X156985000Y-83300000D03*
G04 #@! TO.P,U4,3,QD*
G04 #@! TO.N,Net-(U1-A11)*
X156985000Y-85840000D03*
G04 #@! TO.P,U4,4,QE*
G04 #@! TO.N,Net-(U1-A12)*
X156985000Y-88380000D03*
G04 #@! TO.P,U4,5,QF*
G04 #@! TO.N,unconnected-(U4-QF-Pad5)*
X156985000Y-90920000D03*
G04 #@! TO.P,U4,6,QG*
G04 #@! TO.N,unconnected-(U4-QG-Pad6)*
X156985000Y-93460000D03*
G04 #@! TO.P,U4,7,QH*
G04 #@! TO.N,unconnected-(U4-QH-Pad7)*
X156985000Y-96000000D03*
G04 #@! TO.P,U4,8,GND*
G04 #@! TO.N,Net-(J1-Pin_15)*
X156985000Y-98540000D03*
G04 #@! TO.P,U4,9,QH'*
G04 #@! TO.N,unconnected-(U4-QH'-Pad9)*
X164925000Y-98540000D03*
G04 #@! TO.P,U4,10,~{SRCLR}*
G04 #@! TO.N,Net-(A1-VSYS)*
X164925000Y-96000000D03*
G04 #@! TO.P,U4,11,SRCLK*
G04 #@! TO.N,Net-(A1-GP9)*
X164925000Y-93460000D03*
G04 #@! TO.P,U4,12,RCLK*
G04 #@! TO.N,Net-(A1-GP8)*
X164925000Y-90920000D03*
G04 #@! TO.P,U4,13,~{OE}*
G04 #@! TO.N,Net-(J1-Pin_15)*
X164925000Y-88380000D03*
G04 #@! TO.P,U4,14,SER*
G04 #@! TO.N,Net-(U3-QH')*
X164925000Y-85840000D03*
G04 #@! TO.P,U4,15,QA*
G04 #@! TO.N,Net-(U1-A8)*
X164925000Y-83300000D03*
G04 #@! TO.P,U4,16,VCC*
G04 #@! TO.N,Net-(A1-VSYS)*
X164925000Y-80760000D03*
G04 #@! TD*
D18*
G04 #@! TO.P,J1,1,Pin_1*
G04 #@! TO.N,Net-(A1-GP13)*
X159780000Y-110000000D03*
D19*
G04 #@! TO.P,J1,2,Pin_2*
G04 #@! TO.N,Net-(A1-GP14)*
X159780000Y-112540000D03*
G04 #@! TO.P,J1,3,Pin_3*
G04 #@! TO.N,Net-(A1-GP15)*
X157240000Y-110000000D03*
G04 #@! TO.P,J1,4,Pin_4*
G04 #@! TO.N,Net-(A1-GP16)*
X157240000Y-112540000D03*
G04 #@! TO.P,J1,5,Pin_5*
G04 #@! TO.N,Net-(A1-GP17)*
X154700000Y-110000000D03*
G04 #@! TO.P,J1,6,Pin_6*
G04 #@! TO.N,Net-(A1-GP18)*
X154700000Y-112540000D03*
G04 #@! TO.P,J1,7,Pin_7*
G04 #@! TO.N,Net-(A1-GP19)*
X152160000Y-110000000D03*
G04 #@! TO.P,J1,8,Pin_8*
G04 #@! TO.N,Net-(A1-GP20)*
X152160000Y-112540000D03*
G04 #@! TO.P,J1,9,Pin_9*
G04 #@! TO.N,Net-(A1-GP21)*
X149620000Y-110000000D03*
G04 #@! TO.P,J1,10,Pin_10*
G04 #@! TO.N,Net-(A1-GP22)*
X149620000Y-112540000D03*
G04 #@! TO.P,J1,11,Pin_11*
G04 #@! TO.N,Net-(A1-GP26)*
X147080000Y-110000000D03*
G04 #@! TO.P,J1,12,Pin_12*
G04 #@! TO.N,Net-(A1-GP27)*
X147080000Y-112540000D03*
G04 #@! TO.P,J1,13,Pin_13*
G04 #@! TO.N,Net-(A1-GP28)*
X144540000Y-110000000D03*
G04 #@! TO.P,J1,14,Pin_14*
G04 #@! TO.N,Net-(A1-3V3_EN)*
X144540000Y-112540000D03*
G04 #@! TO.P,J1,15,Pin_15*
G04 #@! TO.N,Net-(J1-Pin_15)*
X142000000Y-110000000D03*
G04 #@! TO.P,J1,16,Pin_16*
G04 #@! TO.N,Net-(A1-VSYS)*
X142000000Y-112540000D03*
G04 #@! TD*
D20*
G04 #@! TO.N,Net-(A1-GP4)*
X136250000Y-61000000D03*
G04 #@! TO.N,Net-(J1-Pin_15)*
X164000000Y-62000000D03*
X148600000Y-86829000D03*
X156000000Y-78000000D03*
X155500000Y-61500000D03*
X139031500Y-93016048D03*
X151411000Y-78500000D03*
X151500000Y-80500000D03*
X163500000Y-60500000D03*
X136000000Y-98750000D03*
G04 #@! TO.N,Net-(A1-GP0)*
X129930049Y-64090049D03*
X134249265Y-64249265D03*
G04 #@! TO.N,Net-(A1-GP7)*
X132000000Y-69100000D03*
G04 #@! TO.N,Net-(A1-GP18)*
X130500000Y-107750000D03*
G04 #@! TO.N,Net-(A1-GP21)*
X135000000Y-104000000D03*
G04 #@! TO.N,Net-(A1-GP19)*
X134000000Y-103000000D03*
G04 #@! TO.N,Net-(A1-GP6)*
X131000000Y-67000000D03*
G04 #@! TO.N,Net-(A1-GP9)*
X162900000Y-88924265D03*
X135500000Y-89480873D03*
X154700000Y-89000000D03*
X156000000Y-89000000D03*
X140141421Y-88272795D03*
X164000000Y-91500000D03*
G04 #@! TO.N,Net-(A1-GP20)*
X130000000Y-102500000D03*
G04 #@! TO.N,Net-(A1-GP10)*
X156299360Y-68032076D03*
X147400000Y-87000000D03*
X162900000Y-62774435D03*
G04 #@! TO.N,Net-(A1-GP8)*
X140707108Y-87707108D03*
X154700000Y-87005000D03*
X162500000Y-87750000D03*
X138750000Y-87250000D03*
X155900000Y-87005000D03*
G04 #@! TO.N,Net-(A1-GP22)*
X130750000Y-98250000D03*
X130750000Y-103250000D03*
X130750000Y-92000000D03*
G04 #@! TO.N,Net-(A1-GP1)*
X123440000Y-67760000D03*
X137508138Y-71352811D03*
X120877893Y-65197893D03*
X135500000Y-71500000D03*
X149361617Y-64670146D03*
G04 #@! TO.N,Net-(A1-GP17)*
X139750000Y-110250000D03*
G04 #@! TO.N,Net-(A1-GP2)*
X135500000Y-62931000D03*
X133500000Y-60750000D03*
X149395198Y-62756272D03*
G04 #@! TO.N,Net-(A1-GP16)*
X138144033Y-112855967D03*
G04 #@! TO.N,Net-(A1-GP12)*
X140898777Y-100247306D03*
X142636212Y-100287682D03*
G04 #@! TO.N,Net-(A1-GP11)*
X140325735Y-99674265D03*
X142750000Y-99250000D03*
G04 #@! TO.N,Net-(A1-VSYS)*
X154500000Y-60000000D03*
X142000000Y-106750000D03*
X163250000Y-90250000D03*
X163500000Y-72500000D03*
X162934313Y-59835000D03*
X158250000Y-59835000D03*
X163199997Y-62000000D03*
X163500000Y-67500000D03*
G04 #@! TO.N,Net-(U1-A4)*
X155500000Y-68000000D03*
X152820671Y-71320671D03*
G04 #@! TO.N,Net-(U1-A11)*
X149500000Y-83345735D03*
G04 #@! TO.N,Net-(U1-A8)*
X154300000Y-85465735D03*
G04 #@! TO.N,Net-(U1-~{OE})*
X148000000Y-82900000D03*
X148202916Y-89000000D03*
G04 #@! TO.N,Net-(U1-A0)*
X155500000Y-66500000D03*
G04 #@! TO.N,Net-(U1-A10)*
X156000000Y-79000000D03*
X151750000Y-81750000D03*
G04 #@! TO.N,Net-(U1-A9)*
X153445735Y-83945735D03*
G04 #@! TO.N,Net-(U3-QH')*
X162500000Y-76540000D03*
X162500000Y-85840000D03*
G04 #@! TD*
D21*
G04 #@! TO.N,Net-(A1-3V3_EN)*
X134400000Y-114650000D02*
X142430000Y-114650000D01*
X112350000Y-80847352D02*
X112350000Y-112165685D01*
X133000000Y-113250000D02*
X134400000Y-114650000D01*
X142430000Y-114650000D02*
X144540000Y-112540000D01*
X123670000Y-79060000D02*
X114137352Y-79060000D01*
X112350000Y-112165685D02*
X113434314Y-113250000D01*
X114137352Y-79060000D02*
X112350000Y-80847352D01*
X113434314Y-113250000D02*
X133000000Y-113250000D01*
X123670000Y-79060000D02*
X132390000Y-70340000D01*
G04 #@! TO.N,Net-(A1-GP4)*
X136250000Y-61187500D02*
X137442500Y-62380000D01*
X136250000Y-61000000D02*
X136250000Y-61187500D01*
G04 #@! TO.N,Net-(J1-Pin_15)*
X154660000Y-61500000D02*
X155500000Y-61500000D01*
X136000000Y-98750000D02*
X136000000Y-103000000D01*
X148600000Y-83397206D02*
X151497206Y-80500000D01*
X139031500Y-93016048D02*
X139031500Y-96166350D01*
X139031500Y-96166350D02*
X138042916Y-97154934D01*
X152481342Y-78500000D02*
X152590342Y-78609000D01*
X144222916Y-103722916D02*
X144222916Y-107777084D01*
X136000000Y-103000000D02*
X143500000Y-103000000D01*
X151497206Y-80500000D02*
X151500000Y-80500000D01*
X152590342Y-78609000D02*
X155391000Y-78609000D01*
X164000000Y-62000000D02*
X164000000Y-61000000D01*
X155391000Y-78609000D02*
X156000000Y-78000000D01*
X143500000Y-103000000D02*
X144222916Y-103722916D01*
X148600000Y-86829000D02*
X148600000Y-83397206D01*
X164000000Y-61000000D02*
X163500000Y-60500000D01*
X144222916Y-107777084D02*
X142000000Y-110000000D01*
X153000000Y-59840000D02*
X154660000Y-61500000D01*
X151411000Y-78500000D02*
X152481342Y-78500000D01*
G04 #@! TO.N,Net-(A1-GP0)*
X130000000Y-64160000D02*
X134160000Y-64160000D01*
X134160000Y-64160000D02*
X134249265Y-64249265D01*
X129930049Y-64090049D02*
X130000000Y-64160000D01*
G04 #@! TO.N,Net-(A1-GP7)*
X136542500Y-69100000D02*
X137442500Y-70000000D01*
X132000000Y-69100000D02*
X136542500Y-69100000D01*
G04 #@! TO.N,Net-(A1-GP18)*
X130500000Y-105250000D02*
X132390000Y-103360000D01*
X130500000Y-107750000D02*
X130500000Y-105250000D01*
G04 #@! TO.N,Net-(A1-GP21)*
X135000000Y-104000000D02*
X135000000Y-98350000D01*
X135000000Y-98350000D02*
X132390000Y-95740000D01*
G04 #@! TO.N,Net-(A1-GP19)*
X134000000Y-103000000D02*
X134000000Y-102430000D01*
X134000000Y-102430000D02*
X132390000Y-100820000D01*
G04 #@! TO.N,Net-(A1-GP28)*
X144540000Y-110000000D02*
X143150000Y-111390000D01*
X133250000Y-112750000D02*
X113500000Y-112750000D01*
X113810000Y-81940000D02*
X128410000Y-81940000D01*
X143150000Y-113350000D02*
X142250000Y-114250000D01*
X113500000Y-112750000D02*
X112750000Y-112000000D01*
X128410000Y-81940000D02*
X132390000Y-77960000D01*
X112750000Y-112000000D02*
X112750000Y-83000000D01*
X112750000Y-83000000D02*
X113810000Y-81940000D01*
X134750000Y-114250000D02*
X133250000Y-112750000D01*
X143150000Y-111390000D02*
X143150000Y-113350000D01*
X142250000Y-114250000D02*
X134750000Y-114250000D01*
G04 #@! TO.N,Net-(A1-GP6)*
X136682500Y-66700000D02*
X137442500Y-67460000D01*
X131000000Y-67000000D02*
X131300000Y-66700000D01*
X131300000Y-66700000D02*
X136682500Y-66700000D01*
G04 #@! TO.N,Net-(A1-GP9)*
X135500000Y-89480873D02*
X135980873Y-89000000D01*
X164000000Y-90024265D02*
X162900000Y-88924265D01*
X135980873Y-89000000D02*
X139414216Y-89000000D01*
X156000000Y-89000000D02*
X154700000Y-89000000D01*
X164000000Y-91500000D02*
X164000000Y-90024265D01*
X139414216Y-89000000D02*
X140141421Y-88272795D01*
G04 #@! TO.N,Net-(A1-GP20)*
X130000000Y-102500000D02*
X130000000Y-98151471D01*
X131760000Y-97650000D02*
X132390000Y-98280000D01*
X130000000Y-98151471D02*
X130501471Y-97650000D01*
X130501471Y-97650000D02*
X131760000Y-97650000D01*
G04 #@! TO.N,Net-(A1-GP10)*
X153644295Y-73529000D02*
X155000000Y-72173295D01*
X156100000Y-68965686D02*
X156100000Y-68231436D01*
X148648529Y-82300000D02*
X150000000Y-80948529D01*
X147600000Y-83348529D02*
X147400000Y-83148529D01*
X163965565Y-63840000D02*
X164970000Y-63840000D01*
X147400000Y-82651471D02*
X147751471Y-82300000D01*
X147400000Y-83148529D02*
X147400000Y-82651471D01*
X155000000Y-72173295D02*
X155000000Y-70065686D01*
X155000000Y-70065686D02*
X156100000Y-68965686D01*
X147400000Y-87000000D02*
X147600000Y-86800000D01*
X150000000Y-75651471D02*
X152122471Y-73529000D01*
X150000000Y-80948529D02*
X150000000Y-75651471D01*
X147751471Y-82300000D02*
X148648529Y-82300000D01*
X147600000Y-86800000D02*
X147600000Y-83348529D01*
X162900000Y-62774435D02*
X163965565Y-63840000D01*
X152122471Y-73529000D02*
X153644295Y-73529000D01*
X156100000Y-68231436D02*
X156299360Y-68032076D01*
G04 #@! TO.N,Net-(A1-GP8)*
X139791000Y-86791000D02*
X140707108Y-87707108D01*
X139209000Y-86791000D02*
X139791000Y-86791000D01*
X138750000Y-87250000D02*
X139209000Y-86791000D01*
X162500000Y-87750000D02*
X162750000Y-87750000D01*
X162750000Y-87750000D02*
X164925000Y-89925000D01*
X164925000Y-89925000D02*
X164925000Y-90920000D01*
X155900000Y-87005000D02*
X154700000Y-87005000D01*
G04 #@! TO.N,Net-(A1-GP22)*
X130750000Y-92000000D02*
X131050000Y-92000000D01*
X131050000Y-92000000D02*
X132390000Y-90660000D01*
X130750000Y-103250000D02*
X130750000Y-98250000D01*
G04 #@! TO.N,Net-(A1-GP1)*
X137360949Y-71500000D02*
X137508138Y-71352811D01*
X149361617Y-64670146D02*
X149611471Y-64920000D01*
X135500000Y-71500000D02*
X137360949Y-71500000D01*
X120877893Y-65197893D02*
X123440000Y-67760000D01*
X149611471Y-64920000D02*
X153000000Y-64920000D01*
G04 #@! TO.N,Net-(A1-GP26)*
X140084314Y-101400000D02*
X134500000Y-95815685D01*
X134500000Y-95815685D02*
X134500000Y-87690000D01*
X147080000Y-104636383D02*
X143843617Y-101400000D01*
X147080000Y-110000000D02*
X147080000Y-104636383D01*
X143843617Y-101400000D02*
X140084314Y-101400000D01*
X134500000Y-87690000D02*
X132390000Y-85580000D01*
G04 #@! TO.N,Net-(A1-GP17)*
X139750000Y-110250000D02*
X139500000Y-110250000D01*
X139500000Y-110250000D02*
X137690000Y-108440000D01*
X137690000Y-108440000D02*
X132390000Y-108440000D01*
G04 #@! TO.N,Net-(A1-GP2)*
X133500000Y-60750000D02*
X133500000Y-60931000D01*
X133500000Y-60931000D02*
X135500000Y-62931000D01*
X149771470Y-62380000D02*
X153000000Y-62380000D01*
X149395198Y-62756272D02*
X149771470Y-62380000D01*
G04 #@! TO.N,Net-(A1-GP16)*
X138144033Y-112855967D02*
X136268066Y-110980000D01*
X136268066Y-110980000D02*
X132390000Y-110980000D01*
G04 #@! TO.N,Net-(A1-GP27)*
X149500000Y-105033485D02*
X149500000Y-102750000D01*
X148250000Y-106283485D02*
X149500000Y-105033485D01*
X148250000Y-111370000D02*
X148250000Y-106283485D01*
X147750000Y-101000000D02*
X140250000Y-101000000D01*
X134900000Y-85550000D02*
X132390000Y-83040000D01*
X134900000Y-95650000D02*
X134900000Y-85550000D01*
X149500000Y-102750000D02*
X147750000Y-101000000D01*
X140250000Y-101000000D02*
X134900000Y-95650000D01*
X147080000Y-112540000D02*
X148250000Y-111370000D01*
G04 #@! TO.N,Net-(A1-GP12)*
X142595836Y-100247306D02*
X142636212Y-100287682D01*
X140898777Y-100247306D02*
X142595836Y-100247306D01*
G04 #@! TO.N,Net-(A1-GP11)*
X140750000Y-99250000D02*
X140325735Y-99674265D01*
X142750000Y-99250000D02*
X140750000Y-99250000D01*
G04 #@! TO.N,Net-(A1-VSYS)*
X158085000Y-60000000D02*
X154500000Y-60000000D01*
X163250000Y-90250000D02*
X163250000Y-93008295D01*
X158250000Y-59835000D02*
X158085000Y-60000000D01*
X162900000Y-60251471D02*
X162900000Y-61700003D01*
X142000000Y-112540000D02*
X140850000Y-111390000D01*
X162900000Y-61700003D02*
X163199997Y-62000000D01*
X163500000Y-67500000D02*
X163500000Y-72500000D01*
X163250000Y-93008295D02*
X164925000Y-94683295D01*
X140850000Y-111390000D02*
X140850000Y-107900000D01*
X162934313Y-59835000D02*
X162934313Y-60217158D01*
X164925000Y-94683295D02*
X164925000Y-96000000D01*
X162934313Y-60217158D02*
X162900000Y-60251471D01*
X140850000Y-107900000D02*
X142000000Y-106750000D01*
G04 #@! TO.N,Net-(U1-A4)*
X152820671Y-71320671D02*
X153179329Y-71320671D01*
X153179329Y-71320671D02*
X155500000Y-69000000D01*
X155500000Y-69000000D02*
X155500000Y-68000000D01*
G04 #@! TO.N,Net-(U1-A11)*
X149500000Y-83345735D02*
X149500000Y-83500000D01*
X156420000Y-86405000D02*
X156985000Y-85840000D01*
X149500000Y-83500000D02*
X152405000Y-86405000D01*
X152405000Y-86405000D02*
X156420000Y-86405000D01*
G04 #@! TO.N,Net-(U1-A8)*
X163974000Y-84251000D02*
X164925000Y-83300000D01*
X155514735Y-84251000D02*
X163974000Y-84251000D01*
X154300000Y-85465735D02*
X155514735Y-84251000D01*
G04 #@! TO.N,Net-(U1-A12)*
X156985000Y-89265000D02*
X156985000Y-88380000D01*
X155930000Y-90320000D02*
X156985000Y-89265000D01*
X153000000Y-90320000D02*
X155930000Y-90320000D01*
G04 #@! TO.N,Net-(U1-~{OE})*
X148202916Y-89000000D02*
X148000000Y-88797084D01*
X148000000Y-88797084D02*
X148000000Y-82900000D01*
G04 #@! TO.N,Net-(U1-A0)*
X153000000Y-69000000D02*
X153000000Y-70000000D01*
X155500000Y-66500000D02*
X153000000Y-69000000D01*
G04 #@! TO.N,Net-(U1-A10)*
X151750000Y-81750000D02*
X152000000Y-81500000D01*
X152000000Y-81500000D02*
X153500000Y-81500000D01*
X153500000Y-81500000D02*
X156000000Y-79000000D01*
G04 #@! TO.N,Net-(U1-A9)*
X156034000Y-81711000D02*
X156985000Y-80760000D01*
X155680470Y-81711000D02*
X156034000Y-81711000D01*
X153445735Y-83945735D02*
X155680470Y-81711000D01*
G04 #@! TO.N,Net-(U3-QH')*
X162500000Y-76540000D02*
X164970000Y-76540000D01*
X162500000Y-85840000D02*
X164925000Y-85840000D01*
G04 #@! TD*
M02*
