M48
INCH,TZ
T1C0.0118
T2C0.0307
T3C0.0315
T4C0.0343
T5C0.0394
%
G90
G05
T1
X47590Y-25668
X48598Y-26677
X51154Y-25232
X51181Y-40354
X51378Y-42421
X51476Y-36220
X51476Y-38681
X51476Y-40650
X51575Y-26378
X51969Y-27205
X52559Y-23917
X52756Y-40551
X52854Y-25295
X53150Y-40945
X53346Y-24776
X53346Y-28150
X53346Y-35229
X53543Y-38878
X53642Y-24016
X54137Y-28092
X54387Y-44431
X54626Y-34350
X54737Y-36620
X55020Y-43406
X55174Y-34753
X55246Y-39242
X55396Y-34530
X55472Y-39467
X55906Y-42028
X56156Y-39483
X56201Y-39075
X58031Y-34252
X58268Y-32638
X58348Y-35039
X58504Y-34185
X58804Y-25461
X58817Y-24707
X58858Y-32813
X59611Y-30906
X59646Y-31693
X59744Y-32185
X60166Y-28079
X60412Y-33050
X60748Y-33648
X60827Y-23622
X60906Y-34254
X60906Y-35039
X61220Y-24213
X61220Y-26181
X61220Y-26772
X61378Y-34254
X61417Y-30709
X61417Y-31102
X61417Y-35039
X61535Y-26784
X62303Y-23557
X63976Y-30134
X63976Y-33795
X63976Y-34547
X64134Y-24714
X64134Y-35010
X64147Y-23557
X64252Y-24409
X64272Y-35531
X64370Y-23819
X64370Y-26575
X64370Y-28543
X64567Y-24409
X64567Y-36024
T2
X61805Y-31795
X61805Y-32795
X61805Y-33795
X61805Y-34795
X61805Y-35795
X61805Y-36795
X61805Y-37795
X61805Y-38795
X61823Y-23134
X61823Y-24134
X61823Y-25134
X61823Y-26134
X61823Y-27134
X61823Y-28134
X61823Y-29134
X61823Y-30134
X64931Y-31795
X64931Y-32795
X64931Y-33795
X64931Y-34795
X64931Y-35795
X64931Y-36795
X64931Y-37795
X64931Y-38795
X64949Y-23134
X64949Y-24134
X64949Y-25134
X64949Y-26134
X64949Y-27134
X64949Y-28134
X64949Y-29134
X64949Y-30134
T3
X54348Y-38250
X54348Y-41250
X55348Y-38250
X55348Y-41250
X56348Y-38250
X56348Y-41250
X57348Y-38250
X57348Y-41250
X58348Y-38250
X58348Y-41250
X59348Y-38250
X59348Y-41250
X60348Y-38250
X60348Y-41250
T4
X54111Y-23559
X54111Y-24559
X54111Y-25559
X54111Y-26559
X54111Y-27559
X54111Y-28559
X54111Y-29559
X54111Y-30559
X54111Y-31559
X54111Y-32559
X54111Y-33559
X54111Y-34559
X54111Y-35559
X54111Y-36559
X60236Y-23559
X60236Y-24559
X60236Y-25559
X60236Y-26559
X60236Y-27559
X60236Y-28559
X60236Y-29559
X60236Y-30559
X60236Y-31559
X60236Y-32559
X60236Y-33559
X60236Y-34559
X60236Y-35559
X60236Y-36559
T5
X45122Y-24693
X45122Y-25693
X45122Y-26693
X45122Y-27693
X45122Y-28693
X45122Y-29693
X45122Y-30693
X45122Y-31693
X45122Y-32693
X45122Y-33693
X45122Y-34693
X45122Y-35693
X45122Y-36693
X45122Y-37693
X45122Y-38693
X45122Y-40693
X45122Y-41693
X45122Y-42693
X45122Y-43693
X45139Y-39693
X52122Y-24693
X52122Y-25693
X52122Y-26693
X52122Y-27693
X52122Y-28693
X52122Y-29693
X52122Y-30693
X52122Y-31693
X52122Y-32693
X52122Y-33693
X52122Y-34693
X52122Y-35693
X52122Y-36693
X52122Y-37693
X52122Y-38693
X52122Y-39693
X52122Y-40693
X52122Y-41693
X52122Y-42693
X52122Y-43693
X55906Y-43307
X55906Y-44307
X56906Y-43307
X56906Y-44307
X57906Y-43307
X57906Y-44307
X58906Y-43307
X58906Y-44307
X59906Y-43307
X59906Y-44307
X60906Y-43307
X60906Y-44307
X61906Y-43307
X61906Y-44307
X62906Y-43307
X62906Y-44307
M30
