G04 #@! TF.GenerationSoftware,KiCad,Pcbnew,8.0.0*
G04 #@! TF.CreationDate,2024-03-25T14:53:35-05:00*
G04 #@! TF.ProjectId,SensorModuleBase,53656e73-6f72-44d6-9f64-756c65426173,rev?*
G04 #@! TF.SameCoordinates,Original*
G04 #@! TF.FileFunction,Profile,NP*
%FSLAX46Y46*%
G04 Gerber Fmt 4.6, Leading zero omitted, Abs format (unit mm)*
G04 Created by KiCad (PCBNEW 8.0.0) date 2024-03-25 14:53:35*
%MOMM*%
%LPD*%
G01*
G04 APERTURE LIST*
G04 #@! TA.AperFunction,Profile*
%ADD10C,0.050000*%
G04 #@! TD*
G04 APERTURE END LIST*
D10*
X68485000Y-71200000D02*
X49485000Y-71200000D01*
X25985000Y-14700000D02*
X26485000Y-14200000D01*
X15485000Y-54700000D02*
X15485000Y-25700000D01*
X26485000Y-68700000D02*
X26485000Y-55700000D01*
X15485000Y-25200000D02*
X15985000Y-24700000D01*
X69985000Y-58200000D02*
X70485000Y-58700000D01*
X69985000Y-14700000D02*
X69985000Y-57700000D01*
X25485000Y-24700000D02*
X25985000Y-24200000D01*
X70485000Y-69200000D02*
X68485000Y-71200000D01*
X69485000Y-14200000D02*
X69985000Y-14700000D01*
X69985000Y-57700000D02*
X69985000Y-58200000D01*
X49485000Y-71200000D02*
X47485000Y-69200000D01*
X47485000Y-69200000D02*
X26985000Y-69200000D01*
X26485000Y-14200000D02*
X69485000Y-14200000D01*
X15985000Y-24700000D02*
X25485000Y-24700000D01*
X26985000Y-69200000D02*
X26485000Y-68700000D01*
X26485000Y-55700000D02*
X25985000Y-55200000D01*
X25985000Y-24200000D02*
X25985000Y-14700000D01*
X25985000Y-55200000D02*
X15985000Y-55200000D01*
X70485000Y-58700000D02*
X70485000Y-69200000D01*
X15985000Y-55200000D02*
X15485000Y-54700000D01*
X15485000Y-25700000D02*
X15485000Y-25200000D01*
M02*
