%TF.GenerationSoftware,KiCad,Pcbnew,8.0.0*%
%TF.CreationDate,2024-04-24T16:24:05-05:00*%
%TF.ProjectId,UltrasonicPhasedArrayModule,556c7472-6173-46f6-9e69-635068617365,rev?*%
%TF.SameCoordinates,Original*%
%TF.FileFunction,Legend,Bot*%
%TF.FilePolarity,Positive*%
%FSLAX46Y46*%
G04 Gerber Fmt 4.6, Leading zero omitted, Abs format (unit mm)*
G04 Created by KiCad (PCBNEW 8.0.0) date 2024-04-24 16:24:05*
%MOMM*%
%LPD*%
G01*
G04 APERTURE LIST*
%ADD10C,0.150000*%
%ADD11C,0.100000*%
G04 APERTURE END LIST*
D10*
X169333333Y-84954818D02*
X168761905Y-84954818D01*
X169047619Y-85954818D02*
X169047619Y-84954818D01*
X168428571Y-85954818D02*
X168428571Y-85288151D01*
X168428571Y-85478627D02*
X168380952Y-85383389D01*
X168380952Y-85383389D02*
X168333333Y-85335770D01*
X168333333Y-85335770D02*
X168238095Y-85288151D01*
X168238095Y-85288151D02*
X168142857Y-85288151D01*
X167380952Y-85954818D02*
X167380952Y-85431008D01*
X167380952Y-85431008D02*
X167428571Y-85335770D01*
X167428571Y-85335770D02*
X167523809Y-85288151D01*
X167523809Y-85288151D02*
X167714285Y-85288151D01*
X167714285Y-85288151D02*
X167809523Y-85335770D01*
X167380952Y-85907199D02*
X167476190Y-85954818D01*
X167476190Y-85954818D02*
X167714285Y-85954818D01*
X167714285Y-85954818D02*
X167809523Y-85907199D01*
X167809523Y-85907199D02*
X167857142Y-85811960D01*
X167857142Y-85811960D02*
X167857142Y-85716722D01*
X167857142Y-85716722D02*
X167809523Y-85621484D01*
X167809523Y-85621484D02*
X167714285Y-85573865D01*
X167714285Y-85573865D02*
X167476190Y-85573865D01*
X167476190Y-85573865D02*
X167380952Y-85526246D01*
X166904761Y-85288151D02*
X166904761Y-85954818D01*
X166904761Y-85383389D02*
X166857142Y-85335770D01*
X166857142Y-85335770D02*
X166761904Y-85288151D01*
X166761904Y-85288151D02*
X166619047Y-85288151D01*
X166619047Y-85288151D02*
X166523809Y-85335770D01*
X166523809Y-85335770D02*
X166476190Y-85431008D01*
X166476190Y-85431008D02*
X166476190Y-85954818D01*
X166047618Y-85907199D02*
X165952380Y-85954818D01*
X165952380Y-85954818D02*
X165761904Y-85954818D01*
X165761904Y-85954818D02*
X165666666Y-85907199D01*
X165666666Y-85907199D02*
X165619047Y-85811960D01*
X165619047Y-85811960D02*
X165619047Y-85764341D01*
X165619047Y-85764341D02*
X165666666Y-85669103D01*
X165666666Y-85669103D02*
X165761904Y-85621484D01*
X165761904Y-85621484D02*
X165904761Y-85621484D01*
X165904761Y-85621484D02*
X165999999Y-85573865D01*
X165999999Y-85573865D02*
X166047618Y-85478627D01*
X166047618Y-85478627D02*
X166047618Y-85431008D01*
X166047618Y-85431008D02*
X165999999Y-85335770D01*
X165999999Y-85335770D02*
X165904761Y-85288151D01*
X165904761Y-85288151D02*
X165761904Y-85288151D01*
X165761904Y-85288151D02*
X165666666Y-85335770D01*
X164761904Y-85954818D02*
X164761904Y-84954818D01*
X164761904Y-85907199D02*
X164857142Y-85954818D01*
X164857142Y-85954818D02*
X165047618Y-85954818D01*
X165047618Y-85954818D02*
X165142856Y-85907199D01*
X165142856Y-85907199D02*
X165190475Y-85859579D01*
X165190475Y-85859579D02*
X165238094Y-85764341D01*
X165238094Y-85764341D02*
X165238094Y-85478627D01*
X165238094Y-85478627D02*
X165190475Y-85383389D01*
X165190475Y-85383389D02*
X165142856Y-85335770D01*
X165142856Y-85335770D02*
X165047618Y-85288151D01*
X165047618Y-85288151D02*
X164857142Y-85288151D01*
X164857142Y-85288151D02*
X164761904Y-85335770D01*
X163857142Y-85288151D02*
X163857142Y-85954818D01*
X164285713Y-85288151D02*
X164285713Y-85811960D01*
X164285713Y-85811960D02*
X164238094Y-85907199D01*
X164238094Y-85907199D02*
X164142856Y-85954818D01*
X164142856Y-85954818D02*
X163999999Y-85954818D01*
X163999999Y-85954818D02*
X163904761Y-85907199D01*
X163904761Y-85907199D02*
X163857142Y-85859579D01*
X162952380Y-85907199D02*
X163047618Y-85954818D01*
X163047618Y-85954818D02*
X163238094Y-85954818D01*
X163238094Y-85954818D02*
X163333332Y-85907199D01*
X163333332Y-85907199D02*
X163380951Y-85859579D01*
X163380951Y-85859579D02*
X163428570Y-85764341D01*
X163428570Y-85764341D02*
X163428570Y-85478627D01*
X163428570Y-85478627D02*
X163380951Y-85383389D01*
X163380951Y-85383389D02*
X163333332Y-85335770D01*
X163333332Y-85335770D02*
X163238094Y-85288151D01*
X163238094Y-85288151D02*
X163047618Y-85288151D01*
X163047618Y-85288151D02*
X162952380Y-85335770D01*
X162142856Y-85907199D02*
X162238094Y-85954818D01*
X162238094Y-85954818D02*
X162428570Y-85954818D01*
X162428570Y-85954818D02*
X162523808Y-85907199D01*
X162523808Y-85907199D02*
X162571427Y-85811960D01*
X162571427Y-85811960D02*
X162571427Y-85431008D01*
X162571427Y-85431008D02*
X162523808Y-85335770D01*
X162523808Y-85335770D02*
X162428570Y-85288151D01*
X162428570Y-85288151D02*
X162238094Y-85288151D01*
X162238094Y-85288151D02*
X162142856Y-85335770D01*
X162142856Y-85335770D02*
X162095237Y-85431008D01*
X162095237Y-85431008D02*
X162095237Y-85526246D01*
X162095237Y-85526246D02*
X162571427Y-85621484D01*
X161666665Y-85954818D02*
X161666665Y-85288151D01*
X161666665Y-85478627D02*
X161619046Y-85383389D01*
X161619046Y-85383389D02*
X161571427Y-85335770D01*
X161571427Y-85335770D02*
X161476189Y-85288151D01*
X161476189Y-85288151D02*
X161380951Y-85288151D01*
X160333331Y-85050056D02*
X160285712Y-85002437D01*
X160285712Y-85002437D02*
X160190474Y-84954818D01*
X160190474Y-84954818D02*
X159952379Y-84954818D01*
X159952379Y-84954818D02*
X159857141Y-85002437D01*
X159857141Y-85002437D02*
X159809522Y-85050056D01*
X159809522Y-85050056D02*
X159761903Y-85145294D01*
X159761903Y-85145294D02*
X159761903Y-85240532D01*
X159761903Y-85240532D02*
X159809522Y-85383389D01*
X159809522Y-85383389D02*
X160380950Y-85954818D01*
X160380950Y-85954818D02*
X159761903Y-85954818D01*
X169333333Y-68954819D02*
X168761905Y-68954819D01*
X169047619Y-69954819D02*
X169047619Y-68954819D01*
X168428571Y-69954819D02*
X168428571Y-69288152D01*
X168428571Y-69478628D02*
X168380952Y-69383390D01*
X168380952Y-69383390D02*
X168333333Y-69335771D01*
X168333333Y-69335771D02*
X168238095Y-69288152D01*
X168238095Y-69288152D02*
X168142857Y-69288152D01*
X167380952Y-69954819D02*
X167380952Y-69431009D01*
X167380952Y-69431009D02*
X167428571Y-69335771D01*
X167428571Y-69335771D02*
X167523809Y-69288152D01*
X167523809Y-69288152D02*
X167714285Y-69288152D01*
X167714285Y-69288152D02*
X167809523Y-69335771D01*
X167380952Y-69907200D02*
X167476190Y-69954819D01*
X167476190Y-69954819D02*
X167714285Y-69954819D01*
X167714285Y-69954819D02*
X167809523Y-69907200D01*
X167809523Y-69907200D02*
X167857142Y-69811961D01*
X167857142Y-69811961D02*
X167857142Y-69716723D01*
X167857142Y-69716723D02*
X167809523Y-69621485D01*
X167809523Y-69621485D02*
X167714285Y-69573866D01*
X167714285Y-69573866D02*
X167476190Y-69573866D01*
X167476190Y-69573866D02*
X167380952Y-69526247D01*
X166904761Y-69288152D02*
X166904761Y-69954819D01*
X166904761Y-69383390D02*
X166857142Y-69335771D01*
X166857142Y-69335771D02*
X166761904Y-69288152D01*
X166761904Y-69288152D02*
X166619047Y-69288152D01*
X166619047Y-69288152D02*
X166523809Y-69335771D01*
X166523809Y-69335771D02*
X166476190Y-69431009D01*
X166476190Y-69431009D02*
X166476190Y-69954819D01*
X166047618Y-69907200D02*
X165952380Y-69954819D01*
X165952380Y-69954819D02*
X165761904Y-69954819D01*
X165761904Y-69954819D02*
X165666666Y-69907200D01*
X165666666Y-69907200D02*
X165619047Y-69811961D01*
X165619047Y-69811961D02*
X165619047Y-69764342D01*
X165619047Y-69764342D02*
X165666666Y-69669104D01*
X165666666Y-69669104D02*
X165761904Y-69621485D01*
X165761904Y-69621485D02*
X165904761Y-69621485D01*
X165904761Y-69621485D02*
X165999999Y-69573866D01*
X165999999Y-69573866D02*
X166047618Y-69478628D01*
X166047618Y-69478628D02*
X166047618Y-69431009D01*
X166047618Y-69431009D02*
X165999999Y-69335771D01*
X165999999Y-69335771D02*
X165904761Y-69288152D01*
X165904761Y-69288152D02*
X165761904Y-69288152D01*
X165761904Y-69288152D02*
X165666666Y-69335771D01*
X164761904Y-69954819D02*
X164761904Y-68954819D01*
X164761904Y-69907200D02*
X164857142Y-69954819D01*
X164857142Y-69954819D02*
X165047618Y-69954819D01*
X165047618Y-69954819D02*
X165142856Y-69907200D01*
X165142856Y-69907200D02*
X165190475Y-69859580D01*
X165190475Y-69859580D02*
X165238094Y-69764342D01*
X165238094Y-69764342D02*
X165238094Y-69478628D01*
X165238094Y-69478628D02*
X165190475Y-69383390D01*
X165190475Y-69383390D02*
X165142856Y-69335771D01*
X165142856Y-69335771D02*
X165047618Y-69288152D01*
X165047618Y-69288152D02*
X164857142Y-69288152D01*
X164857142Y-69288152D02*
X164761904Y-69335771D01*
X163857142Y-69288152D02*
X163857142Y-69954819D01*
X164285713Y-69288152D02*
X164285713Y-69811961D01*
X164285713Y-69811961D02*
X164238094Y-69907200D01*
X164238094Y-69907200D02*
X164142856Y-69954819D01*
X164142856Y-69954819D02*
X163999999Y-69954819D01*
X163999999Y-69954819D02*
X163904761Y-69907200D01*
X163904761Y-69907200D02*
X163857142Y-69859580D01*
X162952380Y-69907200D02*
X163047618Y-69954819D01*
X163047618Y-69954819D02*
X163238094Y-69954819D01*
X163238094Y-69954819D02*
X163333332Y-69907200D01*
X163333332Y-69907200D02*
X163380951Y-69859580D01*
X163380951Y-69859580D02*
X163428570Y-69764342D01*
X163428570Y-69764342D02*
X163428570Y-69478628D01*
X163428570Y-69478628D02*
X163380951Y-69383390D01*
X163380951Y-69383390D02*
X163333332Y-69335771D01*
X163333332Y-69335771D02*
X163238094Y-69288152D01*
X163238094Y-69288152D02*
X163047618Y-69288152D01*
X163047618Y-69288152D02*
X162952380Y-69335771D01*
X162142856Y-69907200D02*
X162238094Y-69954819D01*
X162238094Y-69954819D02*
X162428570Y-69954819D01*
X162428570Y-69954819D02*
X162523808Y-69907200D01*
X162523808Y-69907200D02*
X162571427Y-69811961D01*
X162571427Y-69811961D02*
X162571427Y-69431009D01*
X162571427Y-69431009D02*
X162523808Y-69335771D01*
X162523808Y-69335771D02*
X162428570Y-69288152D01*
X162428570Y-69288152D02*
X162238094Y-69288152D01*
X162238094Y-69288152D02*
X162142856Y-69335771D01*
X162142856Y-69335771D02*
X162095237Y-69431009D01*
X162095237Y-69431009D02*
X162095237Y-69526247D01*
X162095237Y-69526247D02*
X162571427Y-69621485D01*
X161666665Y-69954819D02*
X161666665Y-69288152D01*
X161666665Y-69478628D02*
X161619046Y-69383390D01*
X161619046Y-69383390D02*
X161571427Y-69335771D01*
X161571427Y-69335771D02*
X161476189Y-69288152D01*
X161476189Y-69288152D02*
X161380951Y-69288152D01*
X159761903Y-69954819D02*
X160333331Y-69954819D01*
X160047617Y-69954819D02*
X160047617Y-68954819D01*
X160047617Y-68954819D02*
X160142855Y-69097676D01*
X160142855Y-69097676D02*
X160238093Y-69192914D01*
X160238093Y-69192914D02*
X160333331Y-69240533D01*
D11*
X153190476Y-75957419D02*
X153523809Y-75481228D01*
X153761904Y-75957419D02*
X153761904Y-74957419D01*
X153761904Y-74957419D02*
X153380952Y-74957419D01*
X153380952Y-74957419D02*
X153285714Y-75005038D01*
X153285714Y-75005038D02*
X153238095Y-75052657D01*
X153238095Y-75052657D02*
X153190476Y-75147895D01*
X153190476Y-75147895D02*
X153190476Y-75290752D01*
X153190476Y-75290752D02*
X153238095Y-75385990D01*
X153238095Y-75385990D02*
X153285714Y-75433609D01*
X153285714Y-75433609D02*
X153380952Y-75481228D01*
X153380952Y-75481228D02*
X153761904Y-75481228D01*
X152380952Y-75909800D02*
X152476190Y-75957419D01*
X152476190Y-75957419D02*
X152666666Y-75957419D01*
X152666666Y-75957419D02*
X152761904Y-75909800D01*
X152761904Y-75909800D02*
X152809523Y-75814561D01*
X152809523Y-75814561D02*
X152809523Y-75433609D01*
X152809523Y-75433609D02*
X152761904Y-75338371D01*
X152761904Y-75338371D02*
X152666666Y-75290752D01*
X152666666Y-75290752D02*
X152476190Y-75290752D01*
X152476190Y-75290752D02*
X152380952Y-75338371D01*
X152380952Y-75338371D02*
X152333333Y-75433609D01*
X152333333Y-75433609D02*
X152333333Y-75528847D01*
X152333333Y-75528847D02*
X152809523Y-75624085D01*
X151476190Y-75909800D02*
X151571428Y-75957419D01*
X151571428Y-75957419D02*
X151761904Y-75957419D01*
X151761904Y-75957419D02*
X151857142Y-75909800D01*
X151857142Y-75909800D02*
X151904761Y-75862180D01*
X151904761Y-75862180D02*
X151952380Y-75766942D01*
X151952380Y-75766942D02*
X151952380Y-75481228D01*
X151952380Y-75481228D02*
X151904761Y-75385990D01*
X151904761Y-75385990D02*
X151857142Y-75338371D01*
X151857142Y-75338371D02*
X151761904Y-75290752D01*
X151761904Y-75290752D02*
X151571428Y-75290752D01*
X151571428Y-75290752D02*
X151476190Y-75338371D01*
X150666666Y-75909800D02*
X150761904Y-75957419D01*
X150761904Y-75957419D02*
X150952380Y-75957419D01*
X150952380Y-75957419D02*
X151047618Y-75909800D01*
X151047618Y-75909800D02*
X151095237Y-75814561D01*
X151095237Y-75814561D02*
X151095237Y-75433609D01*
X151095237Y-75433609D02*
X151047618Y-75338371D01*
X151047618Y-75338371D02*
X150952380Y-75290752D01*
X150952380Y-75290752D02*
X150761904Y-75290752D01*
X150761904Y-75290752D02*
X150666666Y-75338371D01*
X150666666Y-75338371D02*
X150619047Y-75433609D01*
X150619047Y-75433609D02*
X150619047Y-75528847D01*
X150619047Y-75528847D02*
X151095237Y-75624085D01*
X150190475Y-75957419D02*
X150190475Y-75290752D01*
X150190475Y-74957419D02*
X150238094Y-75005038D01*
X150238094Y-75005038D02*
X150190475Y-75052657D01*
X150190475Y-75052657D02*
X150142856Y-75005038D01*
X150142856Y-75005038D02*
X150190475Y-74957419D01*
X150190475Y-74957419D02*
X150190475Y-75052657D01*
X149809523Y-75290752D02*
X149571428Y-75957419D01*
X149571428Y-75957419D02*
X149333333Y-75290752D01*
X148571428Y-75909800D02*
X148666666Y-75957419D01*
X148666666Y-75957419D02*
X148857142Y-75957419D01*
X148857142Y-75957419D02*
X148952380Y-75909800D01*
X148952380Y-75909800D02*
X148999999Y-75814561D01*
X148999999Y-75814561D02*
X148999999Y-75433609D01*
X148999999Y-75433609D02*
X148952380Y-75338371D01*
X148952380Y-75338371D02*
X148857142Y-75290752D01*
X148857142Y-75290752D02*
X148666666Y-75290752D01*
X148666666Y-75290752D02*
X148571428Y-75338371D01*
X148571428Y-75338371D02*
X148523809Y-75433609D01*
X148523809Y-75433609D02*
X148523809Y-75528847D01*
X148523809Y-75528847D02*
X148999999Y-75624085D01*
X148095237Y-75957419D02*
X148095237Y-75290752D01*
X148095237Y-75481228D02*
X148047618Y-75385990D01*
X148047618Y-75385990D02*
X147999999Y-75338371D01*
X147999999Y-75338371D02*
X147904761Y-75290752D01*
X147904761Y-75290752D02*
X147809523Y-75290752D01*
X146523808Y-74957419D02*
X146428570Y-74957419D01*
X146428570Y-74957419D02*
X146333332Y-75005038D01*
X146333332Y-75005038D02*
X146285713Y-75052657D01*
X146285713Y-75052657D02*
X146238094Y-75147895D01*
X146238094Y-75147895D02*
X146190475Y-75338371D01*
X146190475Y-75338371D02*
X146190475Y-75576466D01*
X146190475Y-75576466D02*
X146238094Y-75766942D01*
X146238094Y-75766942D02*
X146285713Y-75862180D01*
X146285713Y-75862180D02*
X146333332Y-75909800D01*
X146333332Y-75909800D02*
X146428570Y-75957419D01*
X146428570Y-75957419D02*
X146523808Y-75957419D01*
X146523808Y-75957419D02*
X146619046Y-75909800D01*
X146619046Y-75909800D02*
X146666665Y-75862180D01*
X146666665Y-75862180D02*
X146714284Y-75766942D01*
X146714284Y-75766942D02*
X146761903Y-75576466D01*
X146761903Y-75576466D02*
X146761903Y-75338371D01*
X146761903Y-75338371D02*
X146714284Y-75147895D01*
X146714284Y-75147895D02*
X146666665Y-75052657D01*
X146666665Y-75052657D02*
X146619046Y-75005038D01*
X146619046Y-75005038D02*
X146523808Y-74957419D01*
D10*
X169333333Y-52454819D02*
X168761905Y-52454819D01*
X169047619Y-53454819D02*
X169047619Y-52454819D01*
X168428571Y-53454819D02*
X168428571Y-52788152D01*
X168428571Y-52978628D02*
X168380952Y-52883390D01*
X168380952Y-52883390D02*
X168333333Y-52835771D01*
X168333333Y-52835771D02*
X168238095Y-52788152D01*
X168238095Y-52788152D02*
X168142857Y-52788152D01*
X167380952Y-53454819D02*
X167380952Y-52931009D01*
X167380952Y-52931009D02*
X167428571Y-52835771D01*
X167428571Y-52835771D02*
X167523809Y-52788152D01*
X167523809Y-52788152D02*
X167714285Y-52788152D01*
X167714285Y-52788152D02*
X167809523Y-52835771D01*
X167380952Y-53407200D02*
X167476190Y-53454819D01*
X167476190Y-53454819D02*
X167714285Y-53454819D01*
X167714285Y-53454819D02*
X167809523Y-53407200D01*
X167809523Y-53407200D02*
X167857142Y-53311961D01*
X167857142Y-53311961D02*
X167857142Y-53216723D01*
X167857142Y-53216723D02*
X167809523Y-53121485D01*
X167809523Y-53121485D02*
X167714285Y-53073866D01*
X167714285Y-53073866D02*
X167476190Y-53073866D01*
X167476190Y-53073866D02*
X167380952Y-53026247D01*
X166904761Y-52788152D02*
X166904761Y-53454819D01*
X166904761Y-52883390D02*
X166857142Y-52835771D01*
X166857142Y-52835771D02*
X166761904Y-52788152D01*
X166761904Y-52788152D02*
X166619047Y-52788152D01*
X166619047Y-52788152D02*
X166523809Y-52835771D01*
X166523809Y-52835771D02*
X166476190Y-52931009D01*
X166476190Y-52931009D02*
X166476190Y-53454819D01*
X166047618Y-53407200D02*
X165952380Y-53454819D01*
X165952380Y-53454819D02*
X165761904Y-53454819D01*
X165761904Y-53454819D02*
X165666666Y-53407200D01*
X165666666Y-53407200D02*
X165619047Y-53311961D01*
X165619047Y-53311961D02*
X165619047Y-53264342D01*
X165619047Y-53264342D02*
X165666666Y-53169104D01*
X165666666Y-53169104D02*
X165761904Y-53121485D01*
X165761904Y-53121485D02*
X165904761Y-53121485D01*
X165904761Y-53121485D02*
X165999999Y-53073866D01*
X165999999Y-53073866D02*
X166047618Y-52978628D01*
X166047618Y-52978628D02*
X166047618Y-52931009D01*
X166047618Y-52931009D02*
X165999999Y-52835771D01*
X165999999Y-52835771D02*
X165904761Y-52788152D01*
X165904761Y-52788152D02*
X165761904Y-52788152D01*
X165761904Y-52788152D02*
X165666666Y-52835771D01*
X164761904Y-53454819D02*
X164761904Y-52454819D01*
X164761904Y-53407200D02*
X164857142Y-53454819D01*
X164857142Y-53454819D02*
X165047618Y-53454819D01*
X165047618Y-53454819D02*
X165142856Y-53407200D01*
X165142856Y-53407200D02*
X165190475Y-53359580D01*
X165190475Y-53359580D02*
X165238094Y-53264342D01*
X165238094Y-53264342D02*
X165238094Y-52978628D01*
X165238094Y-52978628D02*
X165190475Y-52883390D01*
X165190475Y-52883390D02*
X165142856Y-52835771D01*
X165142856Y-52835771D02*
X165047618Y-52788152D01*
X165047618Y-52788152D02*
X164857142Y-52788152D01*
X164857142Y-52788152D02*
X164761904Y-52835771D01*
X163857142Y-52788152D02*
X163857142Y-53454819D01*
X164285713Y-52788152D02*
X164285713Y-53311961D01*
X164285713Y-53311961D02*
X164238094Y-53407200D01*
X164238094Y-53407200D02*
X164142856Y-53454819D01*
X164142856Y-53454819D02*
X163999999Y-53454819D01*
X163999999Y-53454819D02*
X163904761Y-53407200D01*
X163904761Y-53407200D02*
X163857142Y-53359580D01*
X162952380Y-53407200D02*
X163047618Y-53454819D01*
X163047618Y-53454819D02*
X163238094Y-53454819D01*
X163238094Y-53454819D02*
X163333332Y-53407200D01*
X163333332Y-53407200D02*
X163380951Y-53359580D01*
X163380951Y-53359580D02*
X163428570Y-53264342D01*
X163428570Y-53264342D02*
X163428570Y-52978628D01*
X163428570Y-52978628D02*
X163380951Y-52883390D01*
X163380951Y-52883390D02*
X163333332Y-52835771D01*
X163333332Y-52835771D02*
X163238094Y-52788152D01*
X163238094Y-52788152D02*
X163047618Y-52788152D01*
X163047618Y-52788152D02*
X162952380Y-52835771D01*
X162142856Y-53407200D02*
X162238094Y-53454819D01*
X162238094Y-53454819D02*
X162428570Y-53454819D01*
X162428570Y-53454819D02*
X162523808Y-53407200D01*
X162523808Y-53407200D02*
X162571427Y-53311961D01*
X162571427Y-53311961D02*
X162571427Y-52931009D01*
X162571427Y-52931009D02*
X162523808Y-52835771D01*
X162523808Y-52835771D02*
X162428570Y-52788152D01*
X162428570Y-52788152D02*
X162238094Y-52788152D01*
X162238094Y-52788152D02*
X162142856Y-52835771D01*
X162142856Y-52835771D02*
X162095237Y-52931009D01*
X162095237Y-52931009D02*
X162095237Y-53026247D01*
X162095237Y-53026247D02*
X162571427Y-53121485D01*
X161666665Y-53454819D02*
X161666665Y-52788152D01*
X161666665Y-52978628D02*
X161619046Y-52883390D01*
X161619046Y-52883390D02*
X161571427Y-52835771D01*
X161571427Y-52835771D02*
X161476189Y-52788152D01*
X161476189Y-52788152D02*
X161380951Y-52788152D01*
X160095236Y-52454819D02*
X159999998Y-52454819D01*
X159999998Y-52454819D02*
X159904760Y-52502438D01*
X159904760Y-52502438D02*
X159857141Y-52550057D01*
X159857141Y-52550057D02*
X159809522Y-52645295D01*
X159809522Y-52645295D02*
X159761903Y-52835771D01*
X159761903Y-52835771D02*
X159761903Y-53073866D01*
X159761903Y-53073866D02*
X159809522Y-53264342D01*
X159809522Y-53264342D02*
X159857141Y-53359580D01*
X159857141Y-53359580D02*
X159904760Y-53407200D01*
X159904760Y-53407200D02*
X159999998Y-53454819D01*
X159999998Y-53454819D02*
X160095236Y-53454819D01*
X160095236Y-53454819D02*
X160190474Y-53407200D01*
X160190474Y-53407200D02*
X160238093Y-53359580D01*
X160238093Y-53359580D02*
X160285712Y-53264342D01*
X160285712Y-53264342D02*
X160333331Y-53073866D01*
X160333331Y-53073866D02*
X160333331Y-52835771D01*
X160333331Y-52835771D02*
X160285712Y-52645295D01*
X160285712Y-52645295D02*
X160238093Y-52550057D01*
X160238093Y-52550057D02*
X160190474Y-52502438D01*
X160190474Y-52502438D02*
X160095236Y-52454819D01*
X169333332Y-101204818D02*
X168761904Y-101204818D01*
X169047618Y-102204818D02*
X169047618Y-101204818D01*
X168428570Y-102204818D02*
X168428570Y-101538151D01*
X168428570Y-101728627D02*
X168380951Y-101633389D01*
X168380951Y-101633389D02*
X168333332Y-101585770D01*
X168333332Y-101585770D02*
X168238094Y-101538151D01*
X168238094Y-101538151D02*
X168142856Y-101538151D01*
X167380951Y-102204818D02*
X167380951Y-101681008D01*
X167380951Y-101681008D02*
X167428570Y-101585770D01*
X167428570Y-101585770D02*
X167523808Y-101538151D01*
X167523808Y-101538151D02*
X167714284Y-101538151D01*
X167714284Y-101538151D02*
X167809522Y-101585770D01*
X167380951Y-102157199D02*
X167476189Y-102204818D01*
X167476189Y-102204818D02*
X167714284Y-102204818D01*
X167714284Y-102204818D02*
X167809522Y-102157199D01*
X167809522Y-102157199D02*
X167857141Y-102061960D01*
X167857141Y-102061960D02*
X167857141Y-101966722D01*
X167857141Y-101966722D02*
X167809522Y-101871484D01*
X167809522Y-101871484D02*
X167714284Y-101823865D01*
X167714284Y-101823865D02*
X167476189Y-101823865D01*
X167476189Y-101823865D02*
X167380951Y-101776246D01*
X166904760Y-101538151D02*
X166904760Y-102204818D01*
X166904760Y-101633389D02*
X166857141Y-101585770D01*
X166857141Y-101585770D02*
X166761903Y-101538151D01*
X166761903Y-101538151D02*
X166619046Y-101538151D01*
X166619046Y-101538151D02*
X166523808Y-101585770D01*
X166523808Y-101585770D02*
X166476189Y-101681008D01*
X166476189Y-101681008D02*
X166476189Y-102204818D01*
X166047617Y-102157199D02*
X165952379Y-102204818D01*
X165952379Y-102204818D02*
X165761903Y-102204818D01*
X165761903Y-102204818D02*
X165666665Y-102157199D01*
X165666665Y-102157199D02*
X165619046Y-102061960D01*
X165619046Y-102061960D02*
X165619046Y-102014341D01*
X165619046Y-102014341D02*
X165666665Y-101919103D01*
X165666665Y-101919103D02*
X165761903Y-101871484D01*
X165761903Y-101871484D02*
X165904760Y-101871484D01*
X165904760Y-101871484D02*
X165999998Y-101823865D01*
X165999998Y-101823865D02*
X166047617Y-101728627D01*
X166047617Y-101728627D02*
X166047617Y-101681008D01*
X166047617Y-101681008D02*
X165999998Y-101585770D01*
X165999998Y-101585770D02*
X165904760Y-101538151D01*
X165904760Y-101538151D02*
X165761903Y-101538151D01*
X165761903Y-101538151D02*
X165666665Y-101585770D01*
X164761903Y-102204818D02*
X164761903Y-101204818D01*
X164761903Y-102157199D02*
X164857141Y-102204818D01*
X164857141Y-102204818D02*
X165047617Y-102204818D01*
X165047617Y-102204818D02*
X165142855Y-102157199D01*
X165142855Y-102157199D02*
X165190474Y-102109579D01*
X165190474Y-102109579D02*
X165238093Y-102014341D01*
X165238093Y-102014341D02*
X165238093Y-101728627D01*
X165238093Y-101728627D02*
X165190474Y-101633389D01*
X165190474Y-101633389D02*
X165142855Y-101585770D01*
X165142855Y-101585770D02*
X165047617Y-101538151D01*
X165047617Y-101538151D02*
X164857141Y-101538151D01*
X164857141Y-101538151D02*
X164761903Y-101585770D01*
X163857141Y-101538151D02*
X163857141Y-102204818D01*
X164285712Y-101538151D02*
X164285712Y-102061960D01*
X164285712Y-102061960D02*
X164238093Y-102157199D01*
X164238093Y-102157199D02*
X164142855Y-102204818D01*
X164142855Y-102204818D02*
X163999998Y-102204818D01*
X163999998Y-102204818D02*
X163904760Y-102157199D01*
X163904760Y-102157199D02*
X163857141Y-102109579D01*
X162952379Y-102157199D02*
X163047617Y-102204818D01*
X163047617Y-102204818D02*
X163238093Y-102204818D01*
X163238093Y-102204818D02*
X163333331Y-102157199D01*
X163333331Y-102157199D02*
X163380950Y-102109579D01*
X163380950Y-102109579D02*
X163428569Y-102014341D01*
X163428569Y-102014341D02*
X163428569Y-101728627D01*
X163428569Y-101728627D02*
X163380950Y-101633389D01*
X163380950Y-101633389D02*
X163333331Y-101585770D01*
X163333331Y-101585770D02*
X163238093Y-101538151D01*
X163238093Y-101538151D02*
X163047617Y-101538151D01*
X163047617Y-101538151D02*
X162952379Y-101585770D01*
X162142855Y-102157199D02*
X162238093Y-102204818D01*
X162238093Y-102204818D02*
X162428569Y-102204818D01*
X162428569Y-102204818D02*
X162523807Y-102157199D01*
X162523807Y-102157199D02*
X162571426Y-102061960D01*
X162571426Y-102061960D02*
X162571426Y-101681008D01*
X162571426Y-101681008D02*
X162523807Y-101585770D01*
X162523807Y-101585770D02*
X162428569Y-101538151D01*
X162428569Y-101538151D02*
X162238093Y-101538151D01*
X162238093Y-101538151D02*
X162142855Y-101585770D01*
X162142855Y-101585770D02*
X162095236Y-101681008D01*
X162095236Y-101681008D02*
X162095236Y-101776246D01*
X162095236Y-101776246D02*
X162571426Y-101871484D01*
X161666664Y-102204818D02*
X161666664Y-101538151D01*
X161666664Y-101728627D02*
X161619045Y-101633389D01*
X161619045Y-101633389D02*
X161571426Y-101585770D01*
X161571426Y-101585770D02*
X161476188Y-101538151D01*
X161476188Y-101538151D02*
X161380950Y-101538151D01*
X160380949Y-101204818D02*
X159761902Y-101204818D01*
X159761902Y-101204818D02*
X160095235Y-101585770D01*
X160095235Y-101585770D02*
X159952378Y-101585770D01*
X159952378Y-101585770D02*
X159857140Y-101633389D01*
X159857140Y-101633389D02*
X159809521Y-101681008D01*
X159809521Y-101681008D02*
X159761902Y-101776246D01*
X159761902Y-101776246D02*
X159761902Y-102014341D01*
X159761902Y-102014341D02*
X159809521Y-102109579D01*
X159809521Y-102109579D02*
X159857140Y-102157199D01*
X159857140Y-102157199D02*
X159952378Y-102204818D01*
X159952378Y-102204818D02*
X160238092Y-102204818D01*
X160238092Y-102204818D02*
X160333330Y-102157199D01*
X160333330Y-102157199D02*
X160380949Y-102109579D01*
M02*
