M48
INCH,TZ
T1C0.0315
T2C0.0394
T3C0.0433
T4C0.0866
%
G90
G05
T1
X56261Y-20374
X56299Y-25886
X56299Y-26870
X57024Y-37795
X57055Y-33661
X57055Y-35039
X57055Y-36417
X57245Y-20374
X57453Y-22807
X57453Y-23807
X57453Y-24807
X57453Y-25807
X59610Y-20374
X60453Y-22807
X60453Y-23807
X60453Y-24807
X60453Y-25807
X60595Y-20374
X61024Y-37795
X61055Y-33661
X61055Y-35039
X61055Y-36417
T2
X52248Y-26102
X52248Y-27102
X52248Y-28102
X52248Y-29102
X52248Y-30102
X52248Y-31102
X52248Y-32102
X52248Y-33102
X53248Y-26102
X53248Y-27102
X53248Y-28102
X53248Y-29102
X53248Y-30102
X53248Y-31102
X53248Y-32102
X53248Y-33102
T3
X57087Y-29724
X61024Y-29724
X62795Y-20079
X62795Y-26476
X62795Y-32776
X62795Y-39173
X66732Y-20079
X66732Y-26476
X66732Y-32776
X66732Y-39173
T4
X49213Y-21654
X49213Y-37402
X59055Y-17717
X59055Y-41339
M30
