M48
INCH,TZ
T1C0.0315
T2C0.0394
%
G90
G05
T1
X33642Y-24803
X33642Y-25591
X33642Y-26378
X33642Y-27165
X33642Y-27953
X33642Y-28740
X33642Y-29528
X33642Y-30315
X36614Y-24803
X36614Y-25591
X36614Y-26378
X36614Y-27165
X36614Y-27953
X36614Y-28740
X36614Y-29528
X36614Y-30315
T2
X40929Y-23953
X40929Y-24953
X40929Y-25953
X40929Y-26953
X40929Y-27953
X40929Y-28953
X40929Y-29953
X40929Y-30953
X41929Y-23953
X41929Y-24953
X41929Y-25953
X41929Y-26953
X41929Y-27953
X41929Y-28953
X41929Y-29953
X41929Y-30953
M30
