%TF.GenerationSoftware,KiCad,Pcbnew,8.0.0*%
%TF.CreationDate,2024-03-25T14:49:14-05:00*%
%TF.ProjectId,ICD_2x8_16P_ breadboard_breakout,4943445f-3278-4385-9f31-36505f206272,rev?*%
%TF.SameCoordinates,Original*%
%TF.FileFunction,Legend,Bot*%
%TF.FilePolarity,Positive*%
%FSLAX46Y46*%
G04 Gerber Fmt 4.6, Leading zero omitted, Abs format (unit mm)*
G04 Created by KiCad (PCBNEW 8.0.0) date 2024-03-25 14:49:14*
%MOMM*%
%LPD*%
G01*
G04 APERTURE LIST*
%ADD10C,0.150000*%
%ADD11C,0.120000*%
G04 APERTURE END LIST*
D10*
X95833333Y-61954819D02*
X95833333Y-62669104D01*
X95833333Y-62669104D02*
X95880952Y-62811961D01*
X95880952Y-62811961D02*
X95976190Y-62907200D01*
X95976190Y-62907200D02*
X96119047Y-62954819D01*
X96119047Y-62954819D02*
X96214285Y-62954819D01*
X95404761Y-62050057D02*
X95357142Y-62002438D01*
X95357142Y-62002438D02*
X95261904Y-61954819D01*
X95261904Y-61954819D02*
X95023809Y-61954819D01*
X95023809Y-61954819D02*
X94928571Y-62002438D01*
X94928571Y-62002438D02*
X94880952Y-62050057D01*
X94880952Y-62050057D02*
X94833333Y-62145295D01*
X94833333Y-62145295D02*
X94833333Y-62240533D01*
X94833333Y-62240533D02*
X94880952Y-62383390D01*
X94880952Y-62383390D02*
X95452380Y-62954819D01*
X95452380Y-62954819D02*
X94833333Y-62954819D01*
X88333333Y-61954819D02*
X88333333Y-62669104D01*
X88333333Y-62669104D02*
X88380952Y-62811961D01*
X88380952Y-62811961D02*
X88476190Y-62907200D01*
X88476190Y-62907200D02*
X88619047Y-62954819D01*
X88619047Y-62954819D02*
X88714285Y-62954819D01*
X87952380Y-61954819D02*
X87333333Y-61954819D01*
X87333333Y-61954819D02*
X87666666Y-62335771D01*
X87666666Y-62335771D02*
X87523809Y-62335771D01*
X87523809Y-62335771D02*
X87428571Y-62383390D01*
X87428571Y-62383390D02*
X87380952Y-62431009D01*
X87380952Y-62431009D02*
X87333333Y-62526247D01*
X87333333Y-62526247D02*
X87333333Y-62764342D01*
X87333333Y-62764342D02*
X87380952Y-62859580D01*
X87380952Y-62859580D02*
X87428571Y-62907200D01*
X87428571Y-62907200D02*
X87523809Y-62954819D01*
X87523809Y-62954819D02*
X87809523Y-62954819D01*
X87809523Y-62954819D02*
X87904761Y-62907200D01*
X87904761Y-62907200D02*
X87952380Y-62859580D01*
D11*
%TO.C,J2*%
X91940000Y-64000000D02*
X94060000Y-64000000D01*
X91940000Y-78060000D02*
X91940000Y-64000000D01*
X91940000Y-78060000D02*
X94060000Y-78060000D01*
X93000000Y-61940000D02*
X94060000Y-61940000D01*
X94060000Y-61940000D02*
X94060000Y-63000000D01*
X94060000Y-78060000D02*
X94060000Y-64000000D01*
%TO.C,J3*%
X84390000Y-64000000D02*
X86510000Y-64000000D01*
X84390000Y-78060000D02*
X84390000Y-64000000D01*
X84390000Y-78060000D02*
X86510000Y-78060000D01*
X85450000Y-61940000D02*
X86510000Y-61940000D01*
X86510000Y-61940000D02*
X86510000Y-63000000D01*
X86510000Y-78060000D02*
X86510000Y-64000000D01*
%TD*%
M02*
