%TF.GenerationSoftware,KiCad,Pcbnew,8.0.0*%
%TF.CreationDate,2024-03-25T14:49:14-05:00*%
%TF.ProjectId,ICD_2x8_16P_ breadboard_breakout,4943445f-3278-4385-9f31-36505f206272,rev?*%
%TF.SameCoordinates,Original*%
%TF.FileFunction,Legend,Top*%
%TF.FilePolarity,Positive*%
%FSLAX46Y46*%
G04 Gerber Fmt 4.6, Leading zero omitted, Abs format (unit mm)*
G04 Created by KiCad (PCBNEW 8.0.0) date 2024-03-25 14:49:14*
%MOMM*%
%LPD*%
G01*
G04 APERTURE LIST*
%ADD10C,0.150000*%
%ADD11C,0.120000*%
G04 APERTURE END LIST*
D10*
X104896666Y-57454819D02*
X104896666Y-58169104D01*
X104896666Y-58169104D02*
X104849047Y-58311961D01*
X104849047Y-58311961D02*
X104753809Y-58407200D01*
X104753809Y-58407200D02*
X104610952Y-58454819D01*
X104610952Y-58454819D02*
X104515714Y-58454819D01*
X105896666Y-58454819D02*
X105325238Y-58454819D01*
X105610952Y-58454819D02*
X105610952Y-57454819D01*
X105610952Y-57454819D02*
X105515714Y-57597676D01*
X105515714Y-57597676D02*
X105420476Y-57692914D01*
X105420476Y-57692914D02*
X105325238Y-57740533D01*
D11*
%TO.C,J1*%
X99280000Y-60340000D02*
X99280000Y-61340000D01*
X99280000Y-61340000D02*
X100280000Y-60840000D01*
X100280000Y-60840000D02*
X99280000Y-60340000D01*
X100670000Y-55630000D02*
X109790000Y-55630000D01*
X100670000Y-67680000D02*
X101980000Y-67680000D01*
X100670000Y-83830000D02*
X100670000Y-55630000D01*
X101980000Y-56930000D02*
X108480000Y-56930000D01*
X101980000Y-67680000D02*
X101980000Y-56930000D01*
X101980000Y-71780000D02*
X100670000Y-71780000D01*
X101980000Y-71780000D02*
X101980000Y-71780000D01*
X101980000Y-82530000D02*
X101980000Y-71780000D01*
X108480000Y-56930000D02*
X108480000Y-82530000D01*
X108480000Y-82530000D02*
X101980000Y-82530000D01*
X109790000Y-55630000D02*
X109790000Y-83830000D01*
X109790000Y-83830000D02*
X100670000Y-83830000D01*
%TD*%
M02*
