%TF.GenerationSoftware,KiCad,Pcbnew,8.0.0*%
%TF.CreationDate,2024-03-25T14:49:13-05:00*%
%TF.ProjectId,ICD_2x8_16P_ breadboard_breakout,4943445f-3278-4385-9f31-36505f206272,rev?*%
%TF.SameCoordinates,Original*%
%TF.FileFunction,Copper,L2,Bot*%
%TF.FilePolarity,Positive*%
%FSLAX46Y46*%
G04 Gerber Fmt 4.6, Leading zero omitted, Abs format (unit mm)*
G04 Created by KiCad (PCBNEW 8.0.0) date 2024-03-25 14:49:13*
%MOMM*%
%LPD*%
G01*
G04 APERTURE LIST*
G04 Aperture macros list*
%AMRoundRect*
0 Rectangle with rounded corners*
0 $1 Rounding radius*
0 $2 $3 $4 $5 $6 $7 $8 $9 X,Y pos of 4 corners*
0 Add a 4 corners polygon primitive as box body*
4,1,4,$2,$3,$4,$5,$6,$7,$8,$9,$2,$3,0*
0 Add four circle primitives for the rounded corners*
1,1,$1+$1,$2,$3*
1,1,$1+$1,$4,$5*
1,1,$1+$1,$6,$7*
1,1,$1+$1,$8,$9*
0 Add four rect primitives between the rounded corners*
20,1,$1+$1,$2,$3,$4,$5,0*
20,1,$1+$1,$4,$5,$6,$7,0*
20,1,$1+$1,$6,$7,$8,$9,0*
20,1,$1+$1,$8,$9,$2,$3,0*%
G04 Aperture macros list end*
%TA.AperFunction,ComponentPad*%
%ADD10RoundRect,0.250000X-0.600000X-0.600000X0.600000X-0.600000X0.600000X0.600000X-0.600000X0.600000X0*%
%TD*%
%TA.AperFunction,ComponentPad*%
%ADD11C,1.700000*%
%TD*%
%TA.AperFunction,ComponentPad*%
%ADD12R,1.350000X1.350000*%
%TD*%
%TA.AperFunction,ComponentPad*%
%ADD13O,1.350000X1.350000*%
%TD*%
%TA.AperFunction,Conductor*%
%ADD14C,0.200000*%
%TD*%
G04 APERTURE END LIST*
D10*
%TO.P,J1,1,Pin_1*%
%TO.N,Net-(J1-Pin_1)*%
X103960000Y-60840000D03*
D11*
%TO.P,J1,2,Pin_2*%
%TO.N,Net-(J1-Pin_2)*%
X106500000Y-60840000D03*
%TO.P,J1,3,Pin_3*%
%TO.N,Net-(J1-Pin_3)*%
X103960000Y-63380000D03*
%TO.P,J1,4,Pin_4*%
%TO.N,Net-(J1-Pin_4)*%
X106500000Y-63380000D03*
%TO.P,J1,5,Pin_5*%
%TO.N,Net-(J1-Pin_5)*%
X103960000Y-65920000D03*
%TO.P,J1,6,Pin_6*%
%TO.N,Net-(J1-Pin_6)*%
X106500000Y-65920000D03*
%TO.P,J1,7,Pin_7*%
%TO.N,Net-(J1-Pin_7)*%
X103960000Y-68460000D03*
%TO.P,J1,8,Pin_8*%
%TO.N,Net-(J1-Pin_8)*%
X106500000Y-68460000D03*
%TO.P,J1,9,Pin_9*%
%TO.N,Net-(J1-Pin_9)*%
X103960000Y-71000000D03*
%TO.P,J1,10,Pin_10*%
%TO.N,Net-(J1-Pin_10)*%
X106500000Y-71000000D03*
%TO.P,J1,11,Pin_11*%
%TO.N,Net-(J1-Pin_11)*%
X103960000Y-73540000D03*
%TO.P,J1,12,Pin_12*%
%TO.N,Net-(J1-Pin_12)*%
X106500000Y-73540000D03*
%TO.P,J1,13,Pin_13*%
%TO.N,Net-(J1-Pin_13)*%
X103960000Y-76080000D03*
%TO.P,J1,14,Pin_14*%
%TO.N,Net-(J1-Pin_14)*%
X106500000Y-76080000D03*
%TO.P,J1,15,Pin_15*%
%TO.N,Net-(J1-Pin_15)*%
X103960000Y-78620000D03*
%TO.P,J1,16,Pin_16*%
%TO.N,Net-(J1-Pin_16)*%
X106500000Y-78620000D03*
%TD*%
D12*
%TO.P,J2,1,Pin_1*%
%TO.N,Net-(J1-Pin_1)*%
X93000000Y-63000000D03*
D13*
%TO.P,J2,2,Pin_2*%
%TO.N,Net-(J1-Pin_2)*%
X93000000Y-65000000D03*
%TO.P,J2,3,Pin_3*%
%TO.N,Net-(J1-Pin_3)*%
X93000000Y-67000000D03*
%TO.P,J2,4,Pin_4*%
%TO.N,Net-(J1-Pin_4)*%
X93000000Y-69000000D03*
%TO.P,J2,5,Pin_5*%
%TO.N,Net-(J1-Pin_5)*%
X93000000Y-71000000D03*
%TO.P,J2,6,Pin_6*%
%TO.N,Net-(J1-Pin_6)*%
X93000000Y-73000000D03*
%TO.P,J2,7,Pin_7*%
%TO.N,Net-(J1-Pin_7)*%
X93000000Y-75000000D03*
%TO.P,J2,8,Pin_8*%
%TO.N,Net-(J1-Pin_8)*%
X93000000Y-77000000D03*
%TD*%
D12*
%TO.P,J3,1,Pin_1*%
%TO.N,Net-(J1-Pin_9)*%
X85450000Y-63000000D03*
D13*
%TO.P,J3,2,Pin_2*%
%TO.N,Net-(J1-Pin_10)*%
X85450000Y-65000000D03*
%TO.P,J3,3,Pin_3*%
%TO.N,Net-(J1-Pin_11)*%
X85450000Y-67000000D03*
%TO.P,J3,4,Pin_4*%
%TO.N,Net-(J1-Pin_12)*%
X85450000Y-69000000D03*
%TO.P,J3,5,Pin_5*%
%TO.N,Net-(J1-Pin_13)*%
X85450000Y-71000000D03*
%TO.P,J3,6,Pin_6*%
%TO.N,Net-(J1-Pin_14)*%
X85450000Y-73000000D03*
%TO.P,J3,7,Pin_7*%
%TO.N,Net-(J1-Pin_15)*%
X85450000Y-75000000D03*
%TO.P,J3,8,Pin_8*%
%TO.N,Net-(J1-Pin_16)*%
X85450000Y-77000000D03*
%TD*%
D14*
%TO.N,Net-(J1-Pin_15)*%
X103960000Y-78620000D02*
X95998859Y-78620000D01*
X93378859Y-76000000D02*
X86450000Y-76000000D01*
X86450000Y-76000000D02*
X85450000Y-75000000D01*
X95998859Y-78620000D02*
X93378859Y-76000000D01*
%TO.N,Net-(J1-Pin_11)*%
X93378859Y-68000000D02*
X86450000Y-68000000D01*
X86450000Y-68000000D02*
X85450000Y-67000000D01*
X103960000Y-73540000D02*
X98918859Y-73540000D01*
X98918859Y-73540000D02*
X93378859Y-68000000D01*
%TO.N,Net-(J1-Pin_9)*%
X86425000Y-63975000D02*
X85450000Y-63000000D01*
X103960000Y-71000000D02*
X96935000Y-63975000D01*
X96935000Y-63975000D02*
X86425000Y-63975000D01*
%TO.N,Net-(J1-Pin_10)*%
X86425000Y-65975000D02*
X85450000Y-65000000D01*
X106500000Y-71000000D02*
X105350000Y-72150000D01*
X95353859Y-65975000D02*
X86425000Y-65975000D01*
X101528859Y-72150000D02*
X95353859Y-65975000D01*
X105350000Y-72150000D02*
X101528859Y-72150000D01*
%TO.N,Net-(J1-Pin_12)*%
X86450000Y-70000000D02*
X85450000Y-69000000D01*
X93378859Y-70000000D02*
X86450000Y-70000000D01*
X105350000Y-74690000D02*
X98068859Y-74690000D01*
X98068859Y-74690000D02*
X93378859Y-70000000D01*
X106500000Y-73540000D02*
X105350000Y-74690000D01*
%TO.N,Net-(J1-Pin_13)*%
X97508859Y-76080000D02*
X93403859Y-71975000D01*
X103960000Y-76080000D02*
X97508859Y-76080000D01*
X86425000Y-71975000D02*
X85450000Y-71000000D01*
X93403859Y-71975000D02*
X86425000Y-71975000D01*
%TO.N,Net-(J1-Pin_14)*%
X93974999Y-73975000D02*
X86425000Y-73975000D01*
X97229999Y-77230000D02*
X93974999Y-73975000D01*
X106500000Y-76080000D02*
X105350000Y-77230000D01*
X105350000Y-77230000D02*
X97229999Y-77230000D01*
X86425000Y-73975000D02*
X85450000Y-73000000D01*
%TO.N,Net-(J1-Pin_16)*%
X93000000Y-78000000D02*
X86450000Y-78000000D01*
X105350000Y-79770000D02*
X94770000Y-79770000D01*
X106500000Y-78620000D02*
X105350000Y-79770000D01*
X86450000Y-78000000D02*
X85450000Y-77000000D01*
X94770000Y-79770000D02*
X93000000Y-78000000D01*
%TD*%
M02*
