%TF.GenerationSoftware,KiCad,Pcbnew,8.0.0*%
%TF.CreationDate,2024-03-25T14:49:14-05:00*%
%TF.ProjectId,ICD_2x8_16P_ breadboard_breakout,4943445f-3278-4385-9f31-36505f206272,rev?*%
%TF.SameCoordinates,Original*%
%TF.FileFunction,Profile,NP*%
%FSLAX46Y46*%
G04 Gerber Fmt 4.6, Leading zero omitted, Abs format (unit mm)*
G04 Created by KiCad (PCBNEW 8.0.0) date 2024-03-25 14:49:14*
%MOMM*%
%LPD*%
G01*
G04 APERTURE LIST*
%TA.AperFunction,Profile*%
%ADD10C,0.050000*%
%TD*%
G04 APERTURE END LIST*
D10*
X99500000Y-55000000D02*
X99500000Y-59500000D01*
X99500000Y-84500000D02*
X100000000Y-85000000D01*
X99500000Y-81500000D02*
X99500000Y-84500000D01*
X99500000Y-59500000D02*
X99000000Y-60000000D01*
X110500000Y-85000000D02*
X111000000Y-84500000D01*
X111000000Y-55000000D02*
X110500000Y-54500000D01*
X83000000Y-61000000D02*
X83000000Y-79000000D01*
X94500000Y-60500000D02*
X83500000Y-60500000D01*
X83500000Y-79500000D02*
X93000000Y-79500000D01*
X99000000Y-60000000D02*
X95000000Y-60000000D01*
X83500000Y-60500000D02*
X83000000Y-61000000D01*
X99000000Y-81000000D02*
X99500000Y-81500000D01*
X100000000Y-54500000D02*
X99500000Y-55000000D01*
X94500000Y-81000000D02*
X99000000Y-81000000D01*
X100000000Y-85000000D02*
X110500000Y-85000000D01*
X83000000Y-79000000D02*
X83500000Y-79500000D01*
X93000000Y-79500000D02*
X94500000Y-81000000D01*
X95000000Y-60000000D02*
X94500000Y-60500000D01*
X111000000Y-84500000D02*
X111000000Y-55000000D01*
X110500000Y-54500000D02*
X100000000Y-54500000D01*
M02*
